<?xml version="1.0" encoding="UTF-8"?>
<svg width="20.73mm" height="21.279mm" version="1.1" viewBox="0 0 20.73 21.279" xmlns="http://www.w3.org/2000/svg" xmlns:cc="http://creativecommons.org/ns#" xmlns:dc="http://purl.org/dc/elements/1.1/" xmlns:rdf="http://www.w3.org/1999/02/22-rdf-syntax-ns#">
 <metadata>
  <rdf:RDF>
   <cc:Work rdf:about="">
    <dc:format>image/svg+xml</dc:format>
    <dc:type rdf:resource="http://purl.org/dc/dcmitype/StillImage"/>
    <dc:title/>
   </cc:Work>
  </rdf:RDF>
 </metadata>
 <g transform="translate(-80.35 -73.271)">
  <g transform="matrix(.35278 0 0 -.35278 40.605 210.62)" fill="#53c5c7">
   <path d="m114.65 364.1c1.52 0.734 3.415 0.86 5.04 0.305 1.074-0.366 1.938-0.998 2.568-1.834 0.452 1.344 1.268 2.254 2.127 2.87-1.014 0.235-1.856 0.823-2.435 1.72-0.875 1.356-0.977 3.209-0.252 4.61 0.512 0.989 1.36 1.636 2.43 1.869-1.961 2.816-1.045 5.423 0.423 6.86 1.449 1.417 3.823 2.116 5.539 1.035 2.041 3.993 4.734 3.891 5.827 3.65 2.211-0.489 3.943-2.716 3.943-5.071 0-1.238-0.391-2.22-0.974-2.947 0.641-0.088 1.191-0.324 1.65-0.741 0.346-0.316 0.631-0.732 0.867-1.229v6.794c0 4.812-3.465 7.329-6.889 7.329-2.359 0-4.425-1.174-5.668-3.222l-0.183-0.301-0.315 0.159c-1.536 0.776-3.695 0.144-4.657-1.277-0.528-0.779-0.629-1.684-0.285-2.546l0.259-0.648-0.684 0.132c-0.258 0.05-0.534 0.075-0.818 0.075-2.045 0-4.256-1.222-5.503-3.042-0.857-1.251-1.646-3.341-0.542-6.19l0.166-0.428-0.452-0.084c-2.068-0.382-2.975-2.143-3.136-3.664-0.199-1.885 0.605-3.595 1.954-4.184"/>
   <path d="m125.34 349.16c-0.531 0-1.045 0.09-1.54 0.273-2.315 0.85-3.323 3.377-3.365 3.485l0.755 0.294c9e-3 -0.022 0.924-2.3 2.894-3.021 1.13-0.412 2.411-0.241 3.806 0.511 1.359 0.733 2.086 1.981 1.996 3.425-0.079 1.266-0.813 2.413-1.785 2.79-0.913 0.354-1.919 0.035-2.909-0.922l-0.563 0.582c1.641 1.589 3.063 1.368 3.765 1.095 1.276-0.495 2.201-1.899 2.3-3.495 8e-3 -0.12-1e-3 -0.237-3e-3 -0.355 4.117-1.215 6.421 0.426 7.206 2.411 0.744 1.882 0.241 4.433-1.889 5.444l-0.641 0.305 0.589 0.397c1.769 1.191 1.873 2.788 1.191 3.841-0.533 0.823-1.59 1.334-2.573 0.725l-0.428 0.687c1.414 0.879 2.951 0.156 3.681-0.971 0.795-1.23 0.8-3.115-0.908-4.569 2.082-1.366 2.543-4.102 1.731-6.157-0.706-1.787-2.426-3.353-5.298-3.353-0.819 0-1.737 0.137-2.746 0.423-0.264-1.258-1.081-2.342-2.331-3.016-1.024-0.552-2.006-0.829-2.935-0.829zm14.476-10.133c-0.682 0.473-1.608 0.497-2.749 0.071l-0.9-0.335 0.387 0.878c1.274 2.886 0.636 5.247-1.708 6.316-2.153 0.983-4.784 0.45-5.52-1.116l-0.732 0.345c1.031 2.188 4.298 2.552 6.588 1.508 0.426-0.194 0.831-0.449 1.198-0.758 1.275 0.25 2.07 1.519 2.293 2.741 0.194 1.057 8e-3 2.309-0.844 2.722l0.352 0.729c1.07-0.518 1.588-1.963 1.289-3.597-0.246-1.347-1.087-2.747-2.446-3.254 0.943-1.179 1.362-2.9 0.582-5.173 1.049 0.231 1.944 0.094 2.672-0.412 0.456-0.317 0.831-0.779 1.126-1.37v32.207h-0.024c0 2.674-0.467 4.457-1.389 5.297-0.492 0.449-1.114 0.628-1.942 0.562-0.452-0.318-0.945-0.545-1.442-0.65-1.556-0.331-3.003 0.344-3.596 1.679l0.74 0.329c0.441-0.992 1.495-1.468 2.688-1.216 1.205 0.255 2.612 1.347 2.612 3.583 0 1.99-1.453 3.87-3.308 4.28-1.983 0.435-3.855-0.891-5.134-3.645l-0.226-0.488-0.406 0.353c-1.376 1.195-3.551 0.587-4.858-0.693-1.385-1.355-2.094-3.73 0.069-6.334l0.522-0.628-0.816-0.036c-1.113-0.047-1.992-0.589-2.475-1.524-0.596-1.152-0.51-2.679 0.213-3.799 0.644-0.998 1.708-1.504 2.995-1.457 0.451 0.198 0.87 0.331 1.201 0.415 0.488 0.123 0.986 0.199 1.48 0.239-1.02 1.512-0.767 3.438 0.111 4.703 0.895 1.29 2.684 2.307 5.022 1.291l-0.322-0.743c-1.889 0.82-3.323 0.016-4.035-1.01-0.797-1.148-0.972-2.964 0.231-4.215 2.047-0.059 3.852-0.791 4.338-1.941l-0.746-0.315c-0.463 1.094-3.268 1.865-5.881 1.206-1.442-0.364-3.629-1.378-4.187-4.176l0.063-0.112-0.088-0.038c-0.11-0.63-0.143-1.341-0.066-2.157l-0.806-0.076c-0.081 0.847-0.045 1.589 0.061 2.257-0.665 1.275-1.748 1.886-2.574 2.168-1.522 0.52-3.317 0.37-4.684-0.392l-0.064 0.115c-1.312-0.645-1.64-2.154-1.383-3.295 0.253-1.125 1.166-2.326 2.972-2.326l1.509 0.062-1.09-0.752c-1.392-0.962-1.924-3.135-1.292-5.285 0.691-2.351 2.461-3.799 4.733-3.873l1.119-0.037-0.91-0.653c-1.073-0.772-1.503-1.888-1.149-2.986 0.328-1.017 1.237-1.701 2.263-1.701 0.466 0 0.941 0.135 1.414 0.401l1.788 1.007-1.308-1.582c-1.106-1.337-1.358-3.002-0.675-4.454 0.983-2.087 3.608-3.146 6.479-2.536l0.043 9e-3c0.124 0.135 0.263 0.264 0.422 0.381-2.019 0.581-2.723 1.761-2.967 2.482-0.419 1.233-0.061 2.707 0.892 3.668 0.778 0.784 1.771 1.052 2.722 0.738l-0.254-0.769c-0.65 0.214-1.34 0.017-1.893-0.54-0.617-0.621-1.073-1.74-0.701-2.836 0.393-1.157 1.632-1.932 3.491-2.184l1.856-0.251-1.794-0.538c-0.633-0.19-1.046-0.509-1.32-0.873 0.379-3.661 3.51-5.636 6.373-5.637h1e-3c1.457 0 2.779 0.507 3.726 1.426 0.991 0.964 1.531 2.378 1.62 4.082-0.062 2.258-0.604 3.859-1.552 4.518"/>
   <path d="m169.44 364.1c-1.519 0.734-3.415 0.86-5.039 0.305-1.075-0.366-1.939-0.998-2.568-1.834-0.452 1.344-1.268 2.254-2.128 2.87 1.015 0.235 1.856 0.823 2.435 1.72 0.876 1.356 0.977 3.209 0.253 4.61-0.512 0.989-1.36 1.636-2.431 1.869 1.961 2.816 1.046 5.423-0.422 6.86-1.449 1.417-3.824 2.116-5.54 1.035-2.041 3.993-4.733 3.891-5.826 3.65-2.212-0.489-3.943-2.716-3.943-5.071 0-1.238 0.39-2.22 0.974-2.947-0.642-0.088-1.191-0.324-1.65-0.741-0.347-0.316-0.632-0.732-0.868-1.229v6.794c0 4.812 3.466 7.329 6.89 7.329 2.359 0 4.424-1.174 5.668-3.222l0.183-0.301 0.314 0.159c1.537 0.776 3.696 0.144 4.657-1.277 0.529-0.779 0.63-1.684 0.285-2.546l-0.259-0.648 0.685 0.132c0.258 0.05 0.533 0.075 0.817 0.075 2.045 0 4.257-1.222 5.503-3.042 0.857-1.251 1.647-3.341 0.543-6.19l-0.167-0.428 0.452-0.084c2.068-0.382 2.976-2.143 3.137-3.664 0.198-1.885-0.605-3.595-1.955-4.184"/>
   <path d="m155.81 349.99c-1.249 0.674-2.066 1.758-2.331 3.016-1.009-0.286-1.927-0.423-2.746-0.423-2.871 0-4.591 1.566-5.298 3.353-0.812 2.055-0.35 4.791 1.731 6.157-1.708 1.454-1.703 3.339-0.907 4.569 0.729 1.127 2.267 1.85 3.68 0.971l-0.427-0.687c-0.984 0.609-2.041 0.098-2.573-0.725-0.682-1.053-0.579-2.65 1.19-3.841l0.59-0.397-0.642-0.305c-2.129-1.011-2.632-3.562-1.888-5.444 0.785-1.985 3.088-3.626 7.205-2.411-2e-3 0.118-0.01 0.235-3e-3 0.355 0.1 1.596 1.024 3 2.3 3.495 0.702 0.273 2.125 0.494 3.766-1.095l-0.564-0.582c-0.989 0.957-1.996 1.276-2.909 0.922-0.971-0.377-1.705-1.524-1.784-2.79-0.091-1.444 0.637-2.692 1.995-3.425 1.396-0.752 2.676-0.923 3.806-0.511 1.971 0.721 2.886 2.999 2.895 3.021l0.754-0.294c-0.042-0.108-1.05-2.635-3.364-3.485-0.495-0.183-1.009-0.273-1.541-0.273-0.929 0-1.91 0.277-2.935 0.829zm-13.093-15.48c0.089-1.704 0.629-3.118 1.621-4.082 0.946-0.919 2.269-1.426 3.725-1.426h1e-3c2.864 1e-3 5.995 1.976 6.374 5.637-0.274 0.364-0.688 0.683-1.32 0.873l-1.794 0.538 1.856 0.251c1.858 0.252 3.097 1.027 3.49 2.184 0.372 1.096-0.084 2.215-0.701 2.836-0.553 0.557-1.243 0.754-1.893 0.54l-0.254 0.769c0.952 0.314 1.945 0.046 2.722-0.738 0.953-0.961 1.312-2.435 0.893-3.668-0.245-0.721-0.949-1.901-2.967-2.482 0.159-0.117 0.297-0.246 0.422-0.381l0.042-9e-3c2.871-0.61 5.497 0.449 6.479 2.536 0.684 1.452 0.431 3.117-0.675 4.454l-1.308 1.582 1.789-1.007c0.472-0.266 0.948-0.401 1.413-0.401 1.026 0 1.936 0.684 2.264 1.701 0.353 1.098-0.077 2.214-1.15 2.986l-0.909 0.653 1.118 0.037c2.273 0.074 4.042 1.522 4.733 3.873 0.632 2.15 0.101 4.323-1.292 5.285l-1.089 0.752 1.509-0.062c1.805 0 2.719 1.201 2.972 2.326 0.256 1.141-0.071 2.65-1.384 3.295l-0.064-0.115c-1.367 0.762-3.161 0.912-4.683 0.392-0.827-0.282-1.91-0.893-2.575-2.168 0.107-0.668 0.142-1.41 0.062-2.257l-0.807 0.076c0.077 0.816 0.044 1.527-0.066 2.157l-0.087 0.038 0.062 0.112c-0.557 2.798-2.745 3.812-4.187 4.176-2.613 0.659-5.417-0.112-5.88-1.206l-0.746 0.315c0.486 1.15 2.291 1.882 4.337 1.941 1.204 1.251 1.028 3.067 0.231 4.215-0.711 1.026-2.145 1.83-4.034 1.01l-0.323 0.743c2.338 1.016 4.128-1e-3 5.023-1.291 0.877-1.265 1.13-3.191 0.111-4.703 0.494-0.04 0.992-0.116 1.48-0.239 0.331-0.084 0.75-0.217 1.201-0.415 1.286-0.047 2.35 0.459 2.995 1.457 0.723 1.12 0.809 2.647 0.213 3.799-0.483 0.935-1.363 1.477-2.475 1.524l-0.816 0.036 0.522 0.628c2.162 2.604 1.453 4.979 0.069 6.334-1.308 1.28-3.482 1.888-4.858 0.693l-0.406-0.353-0.227 0.488c-1.279 2.754-3.15 4.08-5.133 3.645-1.855-0.41-3.309-2.29-3.309-4.28 0-2.236 1.408-3.328 2.613-3.583 1.192-0.252 2.246 0.224 2.687 1.216l0.741-0.329c-0.594-1.335-2.04-2.01-3.596-1.679-0.498 0.105-0.991 0.332-1.443 0.65-0.828 0.066-1.449-0.113-1.941-0.562-0.922-0.84-1.39-2.623-1.39-5.297h-0.024v-32.207c0.296 0.591 0.671 1.053 1.127 1.37 0.727 0.506 1.622 0.643 2.672 0.412-0.78 2.273-0.362 3.994 0.581 5.173-1.358 0.507-2.199 1.907-2.446 3.254-0.299 1.634 0.219 3.079 1.289 3.597l0.353-0.729c-0.852-0.413-1.039-1.665-0.845-2.722 0.224-1.222 1.018-2.491 2.293-2.741 0.367 0.309 0.772 0.564 1.198 0.758 2.29 1.044 5.558 0.68 6.589-1.508l-0.733-0.345c-0.736 1.566-3.366 2.099-5.52 1.116-2.343-1.069-2.982-3.43-1.708-6.316l0.388-0.878-0.9 0.335c-1.142 0.426-2.067 0.402-2.75-0.071-0.948-0.659-1.489-2.26-1.552-4.518"/>
  </g>
 </g>
</svg>
