<?xml version="1.0" encoding="UTF-8"?>
<svg width="22.978mm" height="20.9mm" version="1.1" viewBox="0 0 22.978 20.9" xmlns="http://www.w3.org/2000/svg" xmlns:cc="http://creativecommons.org/ns#" xmlns:dc="http://purl.org/dc/elements/1.1/" xmlns:rdf="http://www.w3.org/1999/02/22-rdf-syntax-ns#">
 <metadata>
  <rdf:RDF>
   <cc:Work rdf:about="">
    <dc:format>image/svg+xml</dc:format>
    <dc:type rdf:resource="http://purl.org/dc/dcmitype/StillImage"/>
    <dc:title/>
   </cc:Work>
  </rdf:RDF>
 </metadata>
 <g transform="translate(-61.839 -89.336)">
  <g transform="matrix(.35278 0 0 -.35278 61.696 226.49)">
   <path d="m61.024 359-3.0082 0.119 2.9328 0.681c3.4125 0.792 4.7559 3.105 4.5739 5.045-0.1731 1.837-1.7575 3.747-4.9082 3.876l-0.8239 0.034 0.5301 0.632c0.9922 1.181 1.2012 2.63 0.5742 3.976-0.7386 1.586-2.4847 2.531-3.8273 2.002l-0.911-0.361 0.3903 0.899c0.5422 1.246 0.3851 2.878-0.3899 4.06-1.0297 1.57-2.8406 1.865-4.766 0.697l-0.6344-0.384 0.02 0.741c0.0675 2.596-0.5739 4.607-1.9075 5.975-1.1296 1.16-2.7464 1.799-4.5531 1.799-2.4015 0-4.6972-1.162-5.4597-2.762-0.0168-0.037-0.8172-1.8-0.3563-3.207 0.75-2.285 2.2281-3.485 3.9504-3.209 1.2832 0.205 2.2508 1.21 2.2508 2.338h0.8093c0-1.522-1.2605-2.871-2.9324-3.138-0.1863-0.03-0.3793-0.046-0.5758-0.046-1.5531 0-3.348 0.985-4.2718 3.803-0.4676 1.427 0.0777 3.027 0.3027 3.588-0.9848 1.535-2.5902 2.417-4.4465 2.417-2.0371 0-4.3609-1.158-4.9613-3.745l-0.1637-0.705-0.5148 0.508c-1.2617 1.242-3.0156 1.926-4.9391 1.926-2.1754 0-4.1633-0.901-5.0637-2.297-0.6621-1.026-0.7-2.258-0.1101-3.562l0.9644-2.133-1.625 1.685c-1.2593 1.305-2.5804 1.996-3.8218 1.996-1.0215 0-1.9496-0.469-2.6149-1.321-0.77147-0.988-1.0492-2.31-0.74256-3.535l0.16366-0.655-0.65467 0.164c-1.975 0.495-4.1606-0.662-4.9141-2.534-0.57929-1.437-0.2-2.945 1.0402-4.139l0.60468-0.581-0.83164-0.112c-3.9137-0.526-5.1312-3.26-4.9855-5.441 0.13789-2.059 1.5742-4.143 4.0543-4.143 1.0824 1e-3 2.2606 0.388 3.5 1.15l1.8223 1.121-1.2859-1.71c-1.3039-1.731-1.6523-3.329-1.009-4.618 0.62109-1.244 2.1262-2.048 3.8352-2.048 1.6719 0 3.0918 0.763 3.9059 2.092 0.0695 0.217 0.3441 0.955 0.9476 1.573l0.0746 0.124-0.0082-0.061c0.182 0.176 0.3832 0.343 0.625 0.477 0.5215 0.291 1.1039 0.402 1.741 0.33-0.4691 2.344 1.0746 4.328 3.0075 5.153 1.8453 0.787 4.1835 0.617 5.6191-1.349 0.9934 2.332 3.2445 2.86 5.0121 2.559 2.5484-0.435 5.0207-2.64 4.7461-5.578-0.0465-0.495-0.1527-0.935-0.2832-1.35l0.2727 0.069c0.546-2.155 2.421-2.843 4.0453-2.573 1.6726 0.28 3.3851 1.629 3.1914 3.925l-0.0883 1.044 0.7676-0.714c2.2332-2.076 4.6222-2.729 6.725-1.843 1.8785 0.791 3.2242 2.733 3.2718 4.724 0.0403 1.651-0.8175 2.982-2.416 3.748l-0.4961 0.238 0.375 0.403c1.4203 1.527 1.8325 3.063 1.1614 4.327-0.65 1.223-2.2454 1.974-3.6989 1.744-0.7777-0.122-2.1246-0.64-2.5285-2.679 0.7438-2.04 0.3426-4.505-1.2484-6.991l-0.6824 0.436c1.9886 3.109 1.9828 6.155-0.0153 8.147-1.6812 1.675-4.2773 2.082-6.0398 0.947l-0.7192-0.463 0.0973 0.85c0.2645 2.312-1.1547 3.77-2.6781 4.187-1.227 0.336-2.9469 0.074-3.7719-1.766l-0.4027-0.9-0.3465 0.923c-0.7758 2.069-2.4047 3.007-4.3613 2.509-1.6879-0.43-3.35-2.028-3.0926-3.863l0.1367-0.97-0.7816 0.591c-1.2125 0.917-2.945 0.988-4.3098 0.175-1.3227-0.789-1.9691-2.199-1.7289-3.774l-0.8008-0.122c-0.2918 1.912 0.4988 3.628 2.1148 4.591 1.4086 0.838 3.1489 0.893 4.5438 0.192 0.1586 1.945 1.891 3.5 3.7187 3.964 1.6782 0.429 3.7836 0.02 4.9825-2.253 1.073 1.541 2.8648 1.883 4.3133 1.484 1.6324-0.447 3.2585-1.968 3.3046-4.323 2.0215 0.88 4.6454 0.337 6.3934-1.406 0.3383-0.337 0.6121-0.706 0.8523-1.09 0.5266 1.325 1.5485 2.188 2.925 2.404 1.8149 0.284 3.7219-0.626 4.5391-2.164 0.4633-0.871 0.9223-2.626-0.9383-4.867 1.5813-0.935 2.4528-2.458 2.4094-4.249-0.0559-2.298-1.6051-4.54-3.7676-5.451-0.6554-0.276-1.6293-0.537-2.8226-0.418-0.9895-0.105-1.9657-0.759-2.5551-1.72-0.6707-1.093-0.7551-2.415-0.2379-3.721l0.4082-1.03-0.9766 0.524c-1.3172 0.708-2.6265 0.75-3.6867 0.116-0.918-0.548-1.5101-1.537-1.5238-2.527l-0.0063-0.07c-0.0882-0.972 0.2172-1.895 0.8602-2.599 1.266-1.386 3.6262-1.613 5.507-0.43l0.6852 0.43-0.066-0.807c-0.1254-1.534 0.2445-2.818 1.0699-3.715 0.7558-0.819 1.8801-1.289 3.0855-1.289 1.22 0 2.3403 0.484 2.9957 1.295 0.6016 0.743 0.7938 1.728 0.5543 2.848l-0.1836 0.86 0.7731-0.419c1.1375-0.618 2.2355-0.931 3.2641-0.931 1.9003 0 3.5046 1.109 4.2914 2.966 0.9035 2.132 0.4765 4.554-1.0879 6.169l-0.5821 0.601 0.8328 0.084c1.5625 0.157 2.568 1.683 2.5282 3.01-0.0508 1.653-1.5649 2.699-4.052 2.796" fill="#f68912"/>
   <path d="m41.663 351.42c0.657 0.392 1.9363 0.888 3.6457 0.277-0.2762 1.256-0.0824 2.495 0.5719 3.561 0.4328 0.705 1.0437 1.273 1.73 1.646-0.8027 0.284-1.6683 0.75-2.5793 1.482-0.2296-2.25-2.0625-3.575-3.8582-3.877-0.2703-0.046-0.5457-0.069-0.8222-0.069-1.5852 0-3.1946 0.779-3.9254 2.607-0.8012-1.632-2.2738-2.452-3.7195-2.452-0.1106 0-0.22 4e-3 -0.3293 0.014-1.5368 0.131-3.109 1.317-2.9297 3.61l0.8078-0.064c-0.1367-1.751 1.0015-2.637 2.1914-2.739 1.6769-0.141 3.4992 1.123 3.7512 3.821 0.2308 2.47-1.8911 4.332-4.0754 4.705-1.7047 0.291-3.7461-0.297-4.3758-2.816l-0.2656-1.062-0.4899 0.979c-1.1082 2.217-3.3312 2.472-5.0461 1.742-1.7101-0.73-3.1832-2.543-2.3773-4.799l0.2668-0.748-0.7621 0.223c-0.6844 0.2-1.2891 0.16-1.7957-0.119-0.8727-0.481-1.2243-1.522-1.2692-1.666-0.0156-0.147-0.1441-1.603 0.8141-2.694 0.7426-0.846 1.9582-1.275 3.6133-1.275h8.7019l-0.1445-0.516c-0.0027-0.01-0.2551-0.94 0.2926-1.662 0.4832-0.637 1.4461-0.961 2.8613-0.961h7.6234c0.1391 1.139 0.8489 2.227 1.8938 2.852" fill="#f68912"/>
   <path d="m48.009 340.46c-0.8446 0.916-1.2906 2.15-1.3082 3.598-2.0742-0.988-4.5149-0.582-5.8907 0.926-0.6996 0.766-1.0781 1.739-1.0871 2.776h-1.4937l8.6117-18.216h7.0566l-4.7503 10.049c-0.4196 0.238-0.8137 0.515-1.1383 0.867" fill="#f1511b"/>
  </g>
 </g>
</svg>
