<?xml version="1.0" encoding="UTF-8"?>
<svg width="26.417mm" height="11.747mm" version="1.1" viewBox="0 0 26.417 11.747" xmlns="http://www.w3.org/2000/svg" xmlns:cc="http://creativecommons.org/ns#" xmlns:dc="http://purl.org/dc/elements/1.1/" xmlns:rdf="http://www.w3.org/1999/02/22-rdf-syntax-ns#">
 <metadata>
  <rdf:RDF>
   <cc:Work rdf:about="">
    <dc:format>image/svg+xml</dc:format>
    <dc:type rdf:resource="http://purl.org/dc/dcmitype/StillImage"/>
    <dc:title/>
   </cc:Work>
  </rdf:RDF>
 </metadata>
 <g transform="translate(-145.54 -158.17)">
  <g transform="matrix(.35278 0 0 -.35278 69.588 290.75)" fill="#87ce26">
   <path d="m226.33 358.03-0.807 0.079c0.135 1.374 1.101 2.602 2.583 3.284 1.696 0.781 3.641 0.643 5.073-0.36l-0.465-0.663c-1.198 0.838-2.834 0.947-4.269 0.287-1.219-0.56-2.01-1.543-2.115-2.627zm23.639-3.979c-1.08 1.263-2.576 1.959-4.212 1.959-2.709 0-4.912-1.802-4.912-4.016h-0.81c0 2.378 2.051 4.355 4.74 4.749-0.215 1.711-1.007 2.91-2.273 3.393-1.397 0.535-3.212 0.116-4.316-0.992-0.524-0.527-1.309-1.655-0.676-3.292l0.508-1.312-1.128 0.842c-1.861 1.39-3.838 1.677-5.565 0.81-1.721-0.863-2.832-2.749-2.832-4.806 0-2.173 1.658-3.571 3.297-3.828 1.188-0.19 2.652 0.221 3.202 1.928l0.771-0.248c-0.513-1.59-1.819-2.534-3.426-2.534-0.218 0-0.444 0.017-0.673 0.053-1.979 0.311-3.982 2.001-3.982 4.629 0 2.361 1.287 4.531 3.279 5.531 1.712 0.856 3.683 0.738 5.531-0.309-0.131 1.144 0.255 2.238 1.121 3.107 0.514 0.518 1.148 0.905 1.829 1.152-1.336 2.036-1.312 4.191 0.124 5.842 1.372 1.579 3.649 2.151 5.186 1.3l-0.392-0.709c-1.214 0.672-3.052 0.178-4.183-1.123-0.595-0.684-1.751-2.536 0.083-5.093 0.855 0.161 1.739 0.113 2.531-0.191 0.928-0.354 2.451-1.368 2.78-4.08l0.186 7e-3c1.877 0 3.592-0.796 4.828-2.243 0.699-0.818 1.229-1.818 1.599-2.982v8.972c0 5.159-1.664 6.003-1.681 6.011l-0.48 0.227 0.335 0.408c1.16 1.352 1.391 2.983 0.651 4.592-1.052 2.288-3.786 4.014-6.359 4.014-2.306 0-4.173-1.363-5.258-3.839l-0.324-0.74-0.4 0.703c-0.673 1.189-1.613 1.843-2.645 1.843-1.536 0-2.917-1.435-3.077-3.198l-0.058-0.638-0.552 0.325c-0.491 0.29-1.086 0.443-1.719 0.443-1.254 0-2.483-0.572-3.287-1.531-0.574-0.683-1.189-1.877-0.87-3.69l0.088-0.495-0.679 0.023c-1.466 0-2.919-0.712-3.988-1.955-1.176-1.37-1.696-3.17-1.426-4.94l0.08-0.523-0.042 5e-3c0.332-2.453 3.269-3.192 3.3-3.199l1.921-0.463-1.948-0.33c-2.761-0.469-2.951-3.087-2.904-4.19l-0.404-0.068h-0.405c-0.038 0.926 0.057 3.635 2.401 4.704-1.095 0.536-2.587 1.638-2.769 3.615-1.194 0.025-2.293-0.541-2.914-1.53-0.746-1.19-0.721-2.813 0.071-4.453l0.128-0.264-0.211-0.203c-1.385-1.341-1.823-3.222-1.14-4.908 0.652-1.614 2.125-2.616 3.843-2.616 0.871 0 1.779 0.251 2.696 0.746l0.742 0.4-0.151-0.828v1e-3c3e-3 0 0.012-0.129 0.184-0.308 0.388-0.401 1.608-1.075 5.424-1.075 4.004 0 9.598-0.115 9.978-0.124 0.936 0.075 3.521 0.529 3.521 1.645v1.294l0.738-1.063c0.622-0.896 2.384-1.571 4.098-1.571h1e-3c1.044 0 2.539 0.232 3.735 1.344 0.803 0.746 1.313 1.783 1.565 3.059-0.019 2.934-0.715 5.294-2.024 6.824"/>
   <path d="m277.04 360.65c-1.436 0.66-3.072 0.551-4.27-0.287l-0.465 0.663c1.433 1.003 3.377 1.141 5.073 0.36 1.483-0.682 2.449-1.91 2.583-3.284l-0.806-0.079c-0.106 1.084-0.897 2.067-2.115 2.627zm-23.548-13.43c0.252-1.276 0.761-2.313 1.564-3.059 1.196-1.112 2.692-1.344 3.735-1.344h1e-3c1.714 0 3.476 0.675 4.098 1.571l0.738 1.063v-1.294c0-1.116 2.585-1.57 3.521-1.645 0.381 9e-3 5.974 0.124 9.978 0.124 3.817 0 5.037 0.674 5.424 1.075 0.172 0.179 0.181 0.308 0.184 0.308l1e-3 -1e-3 -0.152 0.828 0.743-0.4c0.917-0.495 1.824-0.746 2.695-0.746 1.719 0 3.191 1.002 3.844 2.616 0.682 1.686 0.245 3.567-1.141 4.908l-0.211 0.203 0.128 0.264c0.792 1.64 0.817 3.263 0.071 4.453-0.621 0.989-1.719 1.555-2.914 1.53-0.181-1.977-1.674-3.079-2.768-3.615 2.343-1.069 2.438-3.778 2.4-4.704h-0.405l-0.403 0.068c0.046 1.103-0.144 3.721-2.905 4.19l-1.948 0.33 1.921 0.463c0.031 7e-3 2.969 0.746 3.301 3.199l-0.042-5e-3 0.08 0.523c0.269 1.77-0.25 3.57-1.427 4.94-1.068 1.243-2.522 1.955-3.987 1.955l-0.68-0.023 0.088 0.495c0.319 1.813-0.296 3.007-0.869 3.69-0.805 0.959-2.033 1.531-3.287 1.531-0.634 0-1.229-0.153-1.72-0.443l-0.552-0.325-0.057 0.638c-0.161 1.763-1.541 3.198-3.078 3.198-1.032 0-1.971-0.654-2.645-1.843l-0.4-0.703-0.324 0.74c-1.085 2.476-2.952 3.839-5.258 3.839-2.573 0-5.307-1.726-6.359-4.014-0.74-1.609-0.509-3.24 0.651-4.592l0.335-0.408-0.48-0.227c-0.017-8e-3 -1.681-0.852-1.681-6.011v-8.972c0.37 1.164 0.901 2.164 1.599 2.982 1.236 1.447 2.951 2.243 4.828 2.243l0.187-7e-3c0.329 2.712 1.851 3.726 2.78 4.08 0.792 0.304 1.676 0.352 2.53 0.191 1.834 2.557 0.678 4.409 0.083 5.093-1.131 1.301-2.969 1.795-4.183 1.123l-0.392 0.709c1.537 0.851 3.814 0.279 5.186-1.3 1.436-1.651 1.46-3.806 0.124-5.842 0.681-0.247 1.315-0.634 1.83-1.152 0.866-0.869 1.251-1.963 1.121-3.107 1.847 1.047 3.818 1.165 5.53 0.309 1.992-1 3.279-3.17 3.279-5.531 0-2.628-2.003-4.318-3.981-4.629-0.23-0.036-0.455-0.053-0.674-0.053-1.607 0-2.913 0.944-3.426 2.534l0.772 0.248c0.549-1.707 2.013-2.118 3.202-1.928 1.638 0.257 3.297 1.655 3.297 3.828 0 2.057-1.112 3.943-2.832 4.806-1.728 0.867-3.704 0.58-5.566-0.81l-1.128-0.842 0.508 1.312c0.633 1.637-0.151 2.765-0.676 3.292-1.103 1.108-2.919 1.527-4.316 0.992-1.266-0.483-2.058-1.682-2.273-3.393 2.689-0.394 4.741-2.371 4.741-4.749h-0.811c0 2.214-2.203 4.016-4.912 4.016-1.636 0-3.132-0.696-4.212-1.959-1.309-1.53-2.005-3.89-2.023-6.824"/>
  </g>
 </g>
</svg>
