<?xml version="1.0" encoding="UTF-8"?>
<svg width="22.95mm" height="20.933mm" version="1.1" viewBox="0 0 22.95 20.933" xmlns="http://www.w3.org/2000/svg" xmlns:cc="http://creativecommons.org/ns#" xmlns:dc="http://purl.org/dc/elements/1.1/" xmlns:rdf="http://www.w3.org/1999/02/22-rdf-syntax-ns#">
 <metadata>
  <rdf:RDF>
   <cc:Work rdf:about="">
    <dc:format>image/svg+xml</dc:format>
    <dc:type rdf:resource="http://purl.org/dc/dcmitype/StillImage"/>
    <dc:title/>
   </cc:Work>
  </rdf:RDF>
 </metadata>
 <g transform="translate(-145.76 -101.41)">
  <g transform="matrix(.35278 0 0 -.35278 30.151 238.59)">
   <g fill="#f1511b">
    <path d="m347.23 368.16c0 0.888 0.776 1.598 1.526 2.284 0.692 0.632 1.406 1.286 1.406 1.968 0 1.923-2.231 2.131-3.19 2.131-2.559 0-5.265-1.249-5.265-2.43 0-0.857 0.588-1.252 1.558-1.803 0.788-0.446 1.682-0.953 1.682-1.996 0-1.732-1.82-3.596-5.817-3.596h-11.408c8e-3 -1.506 0.621-3.073 1.65-4.168 0.581-0.62 1.55-1.359 2.871-1.359 0.613 0 1.238 0.165 1.856 0.491l1.367 0.719-0.838-1.298c-0.663-1.025-0.74-2.069-0.223-3.019 0.706-1.297 2.412-2.204 4.149-2.204 0.909 0 2.595 0.266 3.663 2.047l1.001 1.668-0.252-1.93c-2e-3 -0.016-0.192-1.577 0.812-2.721 0.743-0.846 1.959-1.276 3.614-1.276h8.708l-0.144-0.516c-3e-3 -9e-3 -0.257-0.943 0.291-1.666 0.482-0.638 1.444-0.961 2.858-0.961h2.598c-0.046 4.178-0.809 6.754-2.013 6.754-0.788 0-1.187-0.269-1.647-0.58-0.515-0.347-1.097-0.74-2.195-0.74-2.026 0-3.087 2.185-3.087 4.344 0 1.072 0.257 2.068 0.723 2.806 0.561 0.889 1.378 1.358 2.364 1.358 1.024 0 1.303-1.047 1.549-1.972 0.329-1.236 0.598-1.986 1.551-1.986h0.101c0.378 0 1.081 0 1.65 0.393 0.668 0.462 1.006 1.381 1.006 2.73v3.086h-8.66c-5.395 0-5.815 2.634-5.815 3.442"/>
    <path d="m365.91 376.26c0.906 0 1.121-0.856 1.294-1.544 0.239-0.956 0.434-1.542 1.386-1.542 0.917 0 2.147 2.71 2.147 5.481 0 1.029-0.181 1.886-0.525 2.481-0.367 0.638-0.898 0.948-1.622 0.948-1.302 0-1.813-1.043-2.355-2.148-0.481-0.983-0.98-1.999-2.099-1.999-2.43 0-2.43 1.713-2.43 4.552v6.121c-0.513 0.152-1.038 0.229-1.565 0.229-1.723 0-3.767-0.877-4.335-3.339l-0.174-0.754-0.52 0.573c-0.959 1.055-2.609 1.66-4.529 1.66-2.372 0-4.697-0.916-5.921-2.333-0.785-0.909-1.097-1.961-0.926-3.128l0.165-1.124-0.839 0.767c-0.619 0.567-1.388 0.866-2.222 0.866-1.201 0-2.43-0.619-3.208-1.616-0.705-0.903-0.945-1.991-0.676-3.065l0.164-0.654-0.655 0.163c-1.764 0.439-3.72-0.42-4.651-1.998-0.673-1.142-0.698-2.445-0.071-3.576 0.207-0.387 0.492-0.754 0.848-1.095l0.607-0.581-0.832-0.113c-2.634-0.357-4.283-1.791-4.59-3.965h11.355c3.287 0 5.006 1.402 5.006 2.787 0 0.544-0.482 0.845-1.27 1.292-0.877 0.497-1.97 1.117-1.97 2.507 0 1.824 3.267 3.24 6.076 3.24 2.504 0 4-1.099 4-2.941 0-1.039-0.886-1.85-1.669-2.565-0.621-0.569-1.262-1.156-1.262-1.687 0-1.648 1.871-2.633 5.004-2.633h8.66v2.787c0 5.273 1.415 7.946 4.204 7.946"/>
    <path d="m392.62 365.41h-6.821c-2.576 0-4.995-2.42-4.995-3.88 0-0.602 0.337-0.899 0.932-1.37 0.667-0.529 1.497-1.186 1.497-2.648 0-0.936-0.643-1.799-1.808-2.431-0.987-0.534-2.29-0.854-3.484-0.854-2.232 0-3.619 1.051-3.619 2.742 0 1.43 0.885 2.33 1.596 3.054 0.522 0.53 0.972 0.989 0.972 1.507l1e-3 0.139c2e-3 0.668 5e-3 1.358-0.531 1.896-0.759 0.762-2.515 1.149-5.221 1.149h-8.626v-3.086c0-1.631-0.456-2.774-1.355-3.396-0.776-0.537-1.677-0.537-2.111-0.537l-0.101 0.405v-0.405c-1.644 0-2.042 1.496-2.333 2.588-0.228 0.852-0.393 1.371-0.767 1.371-0.704 0-1.268-0.33-1.678-0.981-0.386-0.611-0.599-1.454-0.599-2.374 0-1.756 0.782-3.534 2.277-3.534 0.85 0 1.263 0.278 1.741 0.602 0.499 0.336 1.065 0.718 2.101 0.718 2.335 0 2.825-4.333 2.825-7.968h4.593c-0.309-3.337 3.54-5.565 6.982-3.411-0.607-7.419 9.786-6.812 8.504-0.81 7.088-3.847 11.075 4.593 6.951 8.846 3.36 0.34 3.596 5.799-0.178 6.447 2.683 0.989 3.856 3.831 3.255 6.221"/>
    <path d="m376.93 364.14c0.774-0.776 0.77-1.716 0.767-2.471v-0.136c0-0.849-0.613-1.473-1.205-2.075-0.67-0.682-1.364-1.388-1.364-2.486 0-1.744 1.964-1.932 2.809-1.932h1e-3c1.064 0 2.223 0.283 3.098 0.757 0.516 0.28 1.382 0.875 1.382 1.718 0 1.071-0.55 1.507-1.189 2.013-0.58 0.46-1.239 0.981-1.239 2.005 0 2.005 2.87 4.69 5.805 4.69h6.119c-0.74 1.485-2.291 2.37-4.343 2.455l-0.824 0.034 0.531 0.631c0.99 1.179 1.2 2.625 0.574 3.97-0.739 1.586-2.492 2.535-3.833 2.003l-0.911-0.36 0.39 0.898c0.542 1.248 0.386 2.882-0.389 4.064-1.029 1.57-2.839 1.862-4.766 0.693l-0.634-0.386 0.019 0.742c0.067 2.597-0.575 4.608-1.909 5.977-1.131 1.16-2.748 1.799-4.554 1.799-2.401 0-4.696-1.16-5.458-2.76l-0.327-0.687-0.387 0.655c-0.616 1.044-1.521 1.864-2.584 2.355v-5.818c0-3.323 0.182-3.743 1.62-3.743 0.585 0 0.903 0.588 1.371 1.547 0.569 1.158 1.276 2.6 3.083 2.6 1.01 0 1.814-0.467 2.325-1.352 0.414-0.718 0.632-1.715 0.632-2.886 0-2.565-1.152-6.291-2.957-6.291-1.631 0-1.957 1.297-2.172 2.155-0.178 0.71-0.272 0.932-0.508 0.932-2.252 0-3.394-2.402-3.394-7.137v-2.787h8.626c3.012 0 4.853-0.44 5.795-1.386"/>
   </g>
   <path d="m374.07 343.84-0.324 0.683c-3.351-1.817-6.943 0.361-6.648 3.593h-2.107l8.802-18.622h7.057l-5.064 10.717c-0.965 0.744-1.653 1.94-1.716 3.629" fill="#732c18"/>
   <path d="m370.21 381.13c-0.367 0.638-0.898 0.948-1.622 0.948-1.302 0-1.813-1.043-2.355-2.148-0.481-0.983-0.98-1.999-2.099-1.999-2.43 0-2.43 1.713-2.43 4.552v6.121c-0.513 0.152-1.038 0.229-1.565 0.229-1.723 0-3.767-0.877-4.335-3.339l-0.174-0.754-0.52 0.573c-0.959 1.055-2.609 1.66-4.529 1.66-2.372 0-4.697-0.916-5.921-2.333-0.785-0.909-1.097-1.961-0.926-3.128l0.165-1.124-0.839 0.767c-0.619 0.567-1.388 0.866-2.222 0.866-1.201 0-2.43-0.619-3.208-1.616-0.705-0.903-0.945-1.991-0.676-3.065l0.164-0.654-0.655 0.163c-1.764 0.439-3.72-0.42-4.651-1.998-0.673-1.142-0.698-2.445-0.071-3.576 0.207-0.387 0.492-0.754 0.848-1.095l0.607-0.581-0.832-0.113c-2.634-0.357-4.283-1.791-4.59-3.965h11.355c3.287 0 5.006 1.402 5.006 2.787 0 0.544-0.482 0.845-1.27 1.292-0.877 0.497-1.97 1.117-1.97 2.507 0 1.824 3.267 3.24 6.076 3.24 2.504 0 4-1.099 4-2.941 0-1.039-0.886-1.85-1.669-2.565-0.621-0.569-1.262-1.156-1.262-1.687 0-1.648 1.871-2.633 5.004-2.633h8.66v2.787c0 5.273 1.415 7.946 4.204 7.946 0.906 0 1.121-0.856 1.294-1.544 0.239-0.956 0.434-1.542 1.386-1.542 0.917 0 2.147 2.71 2.147 5.481 0 1.029-0.181 1.886-0.525 2.481" fill="#f68912"/>
   <path d="m391.92 366.22c-0.74 1.485-2.291 2.37-4.343 2.455l-0.824 0.034 0.531 0.631c0.99 1.179 1.2 2.625 0.574 3.97-0.739 1.586-2.492 2.535-3.833 2.003l-0.911-0.36 0.39 0.898c0.542 1.248 0.386 2.882-0.389 4.064-1.029 1.57-2.839 1.862-4.766 0.693l-0.634-0.386 0.019 0.742c0.067 2.597-0.575 4.608-1.909 5.977-1.131 1.16-2.748 1.799-4.554 1.799-2.401 0-4.696-1.16-5.458-2.76l-0.327-0.687-0.387 0.655c-0.616 1.044-1.521 1.864-2.584 2.355v-5.818c0-3.323 0.182-3.743 1.62-3.743 0.585 0 0.903 0.588 1.371 1.547 0.569 1.158 1.276 2.6 3.083 2.6 1.01 0 1.814-0.467 2.325-1.352 0.414-0.718 0.632-1.715 0.632-2.886 0-2.565-1.152-6.291-2.957-6.291-1.631 0-1.957 1.297-2.172 2.155-0.178 0.71-0.272 0.932-0.508 0.932-2.252 0-3.394-2.402-3.394-7.137v-2.787h8.626c3.012 0 4.853-0.44 5.795-1.386 0.774-0.776 0.77-1.716 0.767-2.471v-0.136c0-0.849-0.613-1.473-1.205-2.075-0.67-0.682-1.364-1.388-1.364-2.486 0-1.744 1.964-1.932 2.809-1.932h1e-3c1.064 0 2.223 0.283 3.098 0.757 0.516 0.28 1.382 0.875 1.382 1.718 0 1.071-0.55 1.507-1.189 2.013-0.58 0.46-1.239 0.981-1.239 2.005 0 2.005 2.87 4.69 5.805 4.69h6.119" fill="#53c5c7"/>
   <path d="m359.69 355.27c-0.788 0-1.187-0.269-1.647-0.58-0.515-0.347-1.097-0.74-2.195-0.74-2.026 0-3.087 2.185-3.087 4.344 0 1.072 0.257 2.068 0.723 2.806 0.561 0.889 1.378 1.358 2.364 1.358 1.024 0 1.303-1.047 1.549-1.972 0.329-1.236 0.598-1.986 1.551-1.986h0.101c0.378 0 1.081 0 1.65 0.393 0.668 0.462 1.006 1.381 1.006 2.73v3.086h-8.66c-5.395 0-5.815 2.634-5.815 3.442 0 0.888 0.776 1.598 1.526 2.284 0.692 0.632 1.406 1.286 1.406 1.968 0 1.923-2.231 2.131-3.19 2.131-2.559 0-5.265-1.249-5.265-2.43 0-0.857 0.588-1.252 1.558-1.803 0.788-0.446 1.682-0.953 1.682-1.996 0-1.732-1.82-3.596-5.817-3.596h-11.408c8e-3 -1.506 0.621-3.073 1.65-4.168 0.581-0.62 1.55-1.359 2.871-1.359 0.613 0 1.238 0.165 1.856 0.491l1.367 0.719-0.838-1.298c-0.663-1.025-0.74-2.069-0.223-3.019 0.706-1.297 2.412-2.204 4.149-2.204 0.909 0 2.595 0.266 3.663 2.047l1.001 1.668-0.252-1.93c-2e-3 -0.016-0.192-1.577 0.812-2.721 0.743-0.846 1.959-1.276 3.614-1.276h8.708l-0.144-0.516c-3e-3 -9e-3 -0.257-0.943 0.291-1.666 0.482-0.638 1.444-0.961 2.858-0.961h2.598c-0.046 4.178-0.809 6.754-2.013 6.754" fill="#87ce26"/>
  </g>
 </g>
</svg>
