<?xml version="1.0" encoding="UTF-8" standalone="no"?>
<svg
   xmlns:dc="http://purl.org/dc/elements/1.1/"
   xmlns:cc="http://creativecommons.org/ns#"
   xmlns:rdf="http://www.w3.org/1999/02/22-rdf-syntax-ns#"
   xmlns:svg="http://www.w3.org/2000/svg"
   xmlns="http://www.w3.org/2000/svg"
   xmlns:sodipodi="http://sodipodi.sourceforge.net/DTD/sodipodi-0.dtd"
   xmlns:inkscape="http://www.inkscape.org/namespaces/inkscape"
   sodipodi:docname="g2197.svg"
   inkscape:version="1.0beta2 (2b71d25, 2019-12-03)"
   id="svg2289"
   version="1.1"
   viewBox="0 0 21.298319 23.063873"
   height="23.063873mm"
   width="21.298319mm">
  <defs
     id="defs2283" />
  <sodipodi:namedview
     inkscape:window-maximized="0"
     inkscape:window-y="25"
     inkscape:window-x="0"
     inkscape:window-height="847"
     inkscape:window-width="1440"
     showgrid="false"
     inkscape:document-rotation="0"
     inkscape:current-layer="layer1"
     inkscape:document-units="mm"
     inkscape:cy="43.585272"
     inkscape:cx="40.248791"
     inkscape:zoom="0.35"
     inkscape:pageshadow="2"
     inkscape:pageopacity="0.0"
     borderopacity="1.0"
     bordercolor="#666666"
     pagecolor="#ffffff"
     id="base" />
  <metadata
     id="metadata2286">
    <rdf:RDF>
      <cc:Work
         rdf:about="">
        <dc:format>image/svg+xml</dc:format>
        <dc:type
           rdf:resource="http://purl.org/dc/dcmitype/StillImage" />
        <dc:title></dc:title>
      </cc:Work>
    </rdf:RDF>
  </metadata>
  <g
     transform="translate(-95.184174,-136.63473)"
     id="layer1"
     inkscape:groupmode="layer"
     inkscape:label="Layer 1">
    <g
       transform="matrix(0.35277777,0,0,-0.35277777,94.201512,197.4077)"
       id="g2197">
      <path
         inkscape:connector-curvature="0"
         id="path1399"
         style="fill:#717374;fill-opacity:1;fill-rule:nonzero;stroke:none;stroke-width:0.1"
         d="m 32.2836,164.016 c 0,8.636 -9.6191,11.033 -13.2641,4.61 -2.8347,1.532 -6.682,-1.355 -5.4672,-4.61 -3.74605,0.775 -9.72027,-3.635 -7.29019,-10.347 -4.35352,-0.862 -4.45508,-7.766 -1.21523,-9.203 -2.83438,-1.439 -2.12579,-7.001 1.92421,-6.809 -3.24023,-2.396 -1.82304,-10.354 3.64451,-10.545 -3.23943,-2.494 -0.4051,-7.288 2.9367,-5.273 -3.0378,-3.932 0.3036,-9.477 6.1762,-8.142 0.4047,-8.348 12.5551,-9.771 12.5551,0 0,9.772 0,50.319 0,50.319" />
      <path
         inkscape:connector-curvature="0"
         id="path1401"
         style="fill:#fadc25;fill-opacity:1;fill-rule:nonzero;stroke:none;stroke-width:0.1"
         d="m 27.9672,165.599 c -0.6488,2.421 -3.1371,3.858 -5.5574,3.209 -2.4211,-0.648 -3.8575,-3.136 -3.2086,-5.557 0.9527,-3.556 3.7402,-3.187 4.5816,-6.328 l 1.5574,0.417 0.1325,0.035 1.5582,0.418 c -0.6477,2.416 0.7367,3.609 0.9796,5.646 0.1543,0.692 0.1528,1.43 -0.0433,2.16" />
      <path
         inkscape:connector-curvature="0"
         id="path1403"
         style="fill:#929292;fill-opacity:1;fill-rule:nonzero;stroke:none;stroke-width:0.1"
         d="m 28.7563,154.871 c 0.1562,-0.582 -0.1911,-1.186 -0.7723,-1.34 L 25.2559,152.8 c -0.5813,-0.158 -1.1836,0.191 -1.3395,0.773 l -0.5641,2.103 c -0.155,0.58 0.193,1.183 0.7739,1.339 l 2.7277,0.731 c 0.5816,0.156 1.1836,-0.193 1.3395,-0.774 l 0.5629,-2.101" />
      <path
         inkscape:connector-curvature="0"
         id="path1405"
         style="fill:#ffffff;fill-opacity:1;fill-rule:nonzero;stroke:none;stroke-width:0.1"
         d="m 24.9895,157.245 -0.3184,-0.083 c -0.7031,2.697 -2.8098,5.516 -2.8313,5.545 l 0.2625,0.197 c 0.0215,-0.029 2.1668,-2.9 2.8872,-5.659" />
      <path
         inkscape:connector-curvature="0"
         id="path1407"
         style="fill:#ffffff;fill-opacity:1;fill-rule:nonzero;stroke:none;stroke-width:0.1"
         d="m 25.8965,157.488 c -0.7563,2.748 -0.334,6.309 -0.3289,6.344 l 0.3254,-0.041 c -0.0043,-0.034 -0.4196,-3.53 0.3199,-6.215 l -0.3164,-0.088" />
      <path
         inkscape:connector-curvature="0"
         id="path1409"
         style="fill:#ffffff;fill-opacity:1;fill-rule:nonzero;stroke:none;stroke-width:0.1"
         d="m 23.9172,162.113 -0.0836,-0.005 c -0.1598,0.03 -0.2129,0.239 -0.2645,0.441 l -0.0425,0.156 c -0.0786,0.235 -0.1297,0.283 -0.1543,0.291 l -0.2352,-0.168 -0.0664,-0.069 c -0.1879,-0.177 -0.3402,-0.369 -0.5023,-0.573 -0.0938,-0.12 -0.1895,-0.239 -0.2926,-0.356 l -0.1641,0.144 c 0.1008,0.116 0.1934,0.233 0.2848,0.348 0.1601,0.201 0.3246,0.407 0.5238,0.596 l 0.0578,0.06 c 0.1094,0.115 0.2731,0.288 0.4621,0.225 0.1692,-0.053 0.2493,-0.295 0.2922,-0.424 l 0.0485,-0.176 0.0964,-0.278 0.0985,0.122 0.0847,0.193 c 0.0407,0.12 0.0833,0.243 0.1739,0.325 0.1742,0.16 0.3117,0.039 0.3851,-0.028 l 0.0793,-0.064 c 0.1172,-0.08 0.1575,-0.089 0.2547,-0.049 0.4141,0.171 0.9391,0.607 1.2063,0.932 l 0.1683,-0.141 c -0.2808,-0.339 -0.8293,-0.803 -1.2906,-0.992 -0.1906,-0.078 -0.3086,-0.035 -0.4617,0.07 l -0.1016,0.081 -0.0648,0.052 -0.027,-0.022 c -0.05,-0.045 -0.0836,-0.142 -0.1152,-0.236 l -0.1117,-0.246 c -0.0563,-0.082 -0.1375,-0.183 -0.2383,-0.209" />
      <path
         inkscape:connector-curvature="0"
         id="path1411"
         style="fill:#b2b2b1;fill-opacity:1;fill-rule:nonzero;stroke:none;stroke-width:0.1"
         d="m 27.984,153.531 c 0.5812,0.154 0.9285,0.758 0.7723,1.34 l -0.5629,2.101 c -0.1559,0.581 -0.7579,0.93 -1.3395,0.774 l -1.3812,-0.371 1.1293,-4.215 1.382,0.371" />
      <path
         inkscape:connector-curvature="0"
         id="path1413"
         style="fill:#929292;fill-opacity:1;fill-rule:nonzero;stroke:none;stroke-width:0.1"
         d="m 27.907,156.953 -4.3047,-1.154 -0.1121,0.423 4.3028,1.153 0.114,-0.422" />
      <path
         inkscape:connector-curvature="0"
         id="path1415"
         style="fill:#929292;fill-opacity:1;fill-rule:nonzero;stroke:none;stroke-width:0.1"
         d="m 28.1438,156.068 -4.304,-1.154 -0.1132,0.423 4.3039,1.154 0.1133,-0.423" />
      <path
         inkscape:connector-curvature="0"
         id="path1417"
         style="fill:#929292;fill-opacity:1;fill-rule:nonzero;stroke:none;stroke-width:0.1"
         d="m 28.3809,155.183 -4.3039,-1.153 -0.1129,0.423 4.3035,1.152 0.1133,-0.422" />
      <path
         inkscape:connector-curvature="0"
         id="path1419"
         style="fill:#929292;fill-opacity:1;fill-rule:nonzero;stroke:none;stroke-width:0.1"
         d="m 28.6176,154.299 -4.3039,-1.153 -0.1133,0.422 4.3039,1.153 0.1133,-0.422" />
      <path
         inkscape:connector-curvature="0"
         id="path1421"
         style="fill:#ffffff;fill-opacity:1;fill-rule:nonzero;stroke:none;stroke-width:0.1"
         d="m 27.6875,165.373 -0.4223,-0.112 c -0.8277,3.09 -3.5062,3.098 -4.4683,2.84 l -0.1129,0.422 c 1.0793,0.29 4.0824,0.287 5.0035,-3.15" />
      <path
         inkscape:connector-curvature="0"
         id="path1423"
         style="fill:#fadc25;fill-opacity:1;fill-rule:nonzero;stroke:none;stroke-width:0.1"
         d="m 18.6781,153.028 c 1.2532,2.17 0.509,4.946 -1.6609,6.2 -2.1703,1.251 -4.9457,0.508 -6.1984,-1.662 -1.84067,-3.187 0.3917,-4.898 -1.23521,-7.715 l 1.39651,-0.806 0.1179,-0.068 1.3977,-0.807 c 1.25,2.166 3.0731,2.029 4.6852,3.299 0.598,0.38 1.1183,0.904 1.4972,1.559" />
      <path
         inkscape:connector-curvature="0"
         id="path1425"
         style="fill:#929292;fill-opacity:1;fill-rule:nonzero;stroke:none;stroke-width:0.1"
         d="m 11.6488,144.883 c -0.3004,-0.521 -0.9726,-0.702 -1.4933,-0.401 l -2.44612,1.412 c -0.52071,0.301 -0.70118,0.973 -0.4,1.494 l 1.08867,1.887 c 0.30078,0.52 0.97304,0.699 1.49336,0.399 l 2.44649,-1.412 c 0.5211,-0.301 0.7008,-0.973 0.4,-1.494 l -1.0891,-1.885" />
      <path
         inkscape:connector-curvature="0"
         id="path1427"
         style="fill:#ffffff;fill-opacity:1;fill-rule:nonzero;stroke:none;stroke-width:0.1"
         d="m 10.6641,149.226 -0.2828,0.166 c 1.4093,2.405 1.9136,5.887 1.9179,5.922 l 0.3246,-0.046 c -0.0047,-0.036 -0.5179,-3.583 -1.9597,-6.042" />
      <path
         inkscape:connector-curvature="0"
         id="path1429"
         style="fill:#ffffff;fill-opacity:1;fill-rule:nonzero;stroke:none;stroke-width:0.1"
         d="m 11.4773,148.757 c 1.4098,2.478 4.2247,4.696 4.2532,4.717 l 0.2027,-0.257 c -0.0277,-0.022 -2.793,-2.2 -4.1699,-4.622 l -0.286,0.162" />
      <path
         inkscape:connector-curvature="0"
         id="path1431"
         style="fill:#ffffff;fill-opacity:1;fill-rule:nonzero;stroke:none;stroke-width:0.1"
         d="m 13.348,153.426 -0.0613,0.057 c -0.0926,0.133 0.0176,0.319 0.1235,0.497 l 0.0808,0.141 c 0.111,0.223 0.1086,0.293 0.0969,0.316 l -0.2848,0.047 -0.0961,-0.002 c -0.259,0.006 -0.5015,-0.021 -0.7601,-0.05 -0.1508,-0.018 -0.3028,-0.035 -0.459,-0.046 l -0.0133,0.219 c 0.152,0.01 0.3004,0.026 0.4469,0.043 0.2547,0.03 0.518,0.061 0.7918,0.053 h 0.0832 c 0.1582,0.005 0.3965,0.012 0.4863,-0.166 0.0809,-0.158 -0.0328,-0.385 -0.0937,-0.507 l -0.0899,-0.159 -0.1285,-0.264 c 0.009,0.003 0.0531,-0.002 0.1555,0.016 l 0.1965,0.076 c 0.1128,0.057 0.2296,0.113 0.3527,0.107 0.2367,-0.009 0.2476,-0.193 0.2531,-0.291 l 0.0106,-0.101 c 0.0257,-0.14 0.0476,-0.175 0.1453,-0.215 0.4136,-0.172 1.0933,-0.234 1.5113,-0.195 l 0.0203,-0.219 c -0.4383,-0.041 -1.1535,0.02 -1.6144,0.211 -0.1903,0.08 -0.2438,0.193 -0.277,0.377 l -0.0144,0.13 -0.0094,0.082 -0.0348,0.003 -0.248,-0.085 -0.2532,-0.095 c -0.0968,-0.018 -0.2261,-0.031 -0.3168,0.02" />
      <path
         inkscape:connector-curvature="0"
         id="path1433"
         style="fill:#b2b2b1;fill-opacity:1;fill-rule:nonzero;stroke:none;stroke-width:0.1"
         d="m 10.1555,144.482 c 0.5207,-0.301 1.1929,-0.12 1.4933,0.401 l 1.0891,1.885 c 0.3008,0.521 0.1211,1.193 -0.4,1.494 l -1.2399,0.715 -2.18159,-3.779 1.23909,-0.716" />
      <path
         inkscape:connector-curvature="0"
         id="path1435"
         style="fill:#929292;fill-opacity:1;fill-rule:nonzero;stroke:none;stroke-width:0.1"
         d="m 12.5211,146.957 -3.85938,2.227 0.21953,0.378 3.85745,-2.226 -0.2176,-0.379" />
      <path
         inkscape:connector-curvature="0"
         id="path1437"
         style="fill:#929292;fill-opacity:1;fill-rule:nonzero;stroke:none;stroke-width:0.1"
         d="m 12.0625,146.163 -3.85781,2.229 0.21797,0.379 3.85864,-2.228 -0.2188,-0.38" />
      <path
         inkscape:connector-curvature="0"
         id="path1439"
         style="fill:#929292;fill-opacity:1;fill-rule:nonzero;stroke:none;stroke-width:0.1"
         d="m 11.6055,145.37 -3.85902,2.227 0.21875,0.381 3.85897,-2.229 -0.2187,-0.379" />
      <path
         inkscape:connector-curvature="0"
         id="path1441"
         style="fill:#929292;fill-opacity:1;fill-rule:nonzero;stroke:none;stroke-width:0.1"
         d="m 11.1469,144.578 -3.85862,2.227 0.21914,0.38 3.85818,-2.228 -0.2187,-0.379" />
      <path
         inkscape:connector-curvature="0"
         id="path1443"
         style="fill:#ffffff;fill-opacity:1;fill-rule:nonzero;stroke:none;stroke-width:0.1"
         d="m 18.3203,153.066 -0.3785,0.219 c 1.5992,2.769 -0.2887,4.67 -1.1512,5.168 l 0.2188,0.377 c 0.9676,-0.557 3.0898,-2.683 1.3109,-5.764" />
      <path
         inkscape:connector-curvature="0"
         id="path1445"
         style="fill:#fadc25;fill-opacity:1;fill-rule:nonzero;stroke:none;stroke-width:0.1"
         d="m 15.782,138.269 c -2.1703,1.252 -4.9457,0.508 -6.19841,-1.661 -1.25312,-2.171 -0.50937,-4.946 1.66091,-6.199 3.1871,-1.841 4.8977,0.392 7.7145,-1.235 l 0.8055,1.396 0.0691,0.119 0.8066,1.397 c -2.1644,1.25 -2.0304,3.074 -3.2988,4.685 -0.3809,0.598 -0.9027,1.118 -1.5594,1.498" />
      <path
         inkscape:connector-curvature="0"
         id="path1447"
         style="fill:#929292;fill-opacity:1;fill-rule:nonzero;stroke:none;stroke-width:0.1"
         d="m 23.9277,131.24 c 0.5211,-0.301 0.7016,-0.973 0.4004,-1.494 L 22.916,127.3 c -0.3004,-0.521 -0.9726,-0.701 -1.4941,-0.4 l -1.886,1.088 c -0.5203,0.301 -0.6996,0.974 -0.3992,1.494 l 1.4121,2.446 c 0.3008,0.521 0.9723,0.701 1.4934,0.4 l 1.8855,-1.088" />
      <path
         inkscape:connector-curvature="0"
         id="path1449"
         style="fill:#ffffff;fill-opacity:1;fill-rule:nonzero;stroke:none;stroke-width:0.1"
         d="m 19.584,130.254 -0.1664,-0.282 c -2.4043,1.409 -5.8867,1.913 -5.9215,1.918 l 0.0453,0.325 c 0.0356,-0.004 3.5824,-0.518 6.0426,-1.961" />
      <path
         inkscape:connector-curvature="0"
         id="path1451"
         style="fill:#ffffff;fill-opacity:1;fill-rule:nonzero;stroke:none;stroke-width:0.1"
         d="m 20.0535,131.068 c -2.4789,1.409 -4.6965,4.225 -4.7176,4.254 l 0.2579,0.201 c 0.0214,-0.027 2.2007,-2.793 4.6218,-4.17 l -0.1621,-0.285" />
      <path
         inkscape:connector-curvature="0"
         id="path1453"
         style="fill:#ffffff;fill-opacity:1;fill-rule:nonzero;stroke:none;stroke-width:0.1"
         d="m 15.384,132.939 -0.0559,-0.062 c -0.1343,-0.092 -0.3187,0.017 -0.4984,0.125 l -0.141,0.079 c -0.2215,0.11 -0.2918,0.11 -0.3149,0.097 -0.0539,-0.028 -0.05,-0.194 -0.0472,-0.286 l 0.0019,-0.095 c -0.0078,-0.258 0.0211,-0.5 0.0504,-0.76 0.0172,-0.151 0.0336,-0.301 0.0449,-0.459 l -0.2187,-0.014 c -0.0098,0.153 -0.0266,0.301 -0.0442,0.447 -0.0293,0.255 -0.0589,0.518 -0.0511,0.793 l -0.0012,0.082 c -0.0047,0.159 -0.0106,0.398 0.1672,0.488 0.1582,0.081 0.3844,-0.034 0.5062,-0.095 l 0.159,-0.09 0.2653,-0.129 c -0.0043,0.01 0.0011,0.055 -0.0168,0.157 l -0.0778,0.197 c -0.0551,0.111 -0.1113,0.228 -0.1058,0.351 0.0086,0.239 0.1929,0.248 0.291,0.254 l 0.1015,0.01 c 0.1399,0.027 0.1746,0.049 0.2149,0.146 0.1726,0.413 0.2351,1.094 0.1949,1.511 l 0.2184,0.021 c 0.0414,-0.438 -0.0192,-1.154 -0.2118,-1.614 -0.0793,-0.191 -0.1925,-0.245 -0.3757,-0.279 l -0.1293,-0.013 -0.0825,-0.008 -0.0027,-0.035 0.084,-0.25 0.0961,-0.252 c 0.0183,-0.098 0.0312,-0.227 -0.0207,-0.317" />
      <path
         inkscape:connector-curvature="0"
         id="path1455"
         style="fill:#b2b2b1;fill-opacity:1;fill-rule:nonzero;stroke:none;stroke-width:0.1"
         d="m 24.3281,129.746 c 0.3012,0.521 0.1207,1.193 -0.4004,1.494 l -1.8855,1.088 c -0.5211,0.301 -1.1926,0.121 -1.4934,-0.4 l -0.7152,-1.239 3.7797,-2.183 0.7148,1.24" />
      <path
         inkscape:connector-curvature="0"
         id="path1457"
         style="fill:#929292;fill-opacity:1;fill-rule:nonzero;stroke:none;stroke-width:0.1"
         d="m 21.8539,132.111 -2.2285,-3.859 -0.3777,0.218 2.2269,3.86 0.3793,-0.219" />
      <path
         inkscape:connector-curvature="0"
         id="path1459"
         style="fill:#929292;fill-opacity:1;fill-rule:nonzero;stroke:none;stroke-width:0.1"
         d="m 22.6469,131.652 -2.2281,-3.857 -0.379,0.218 2.229,3.859 0.3781,-0.22" />
      <path
         inkscape:connector-curvature="0"
         id="path1461"
         style="fill:#929292;fill-opacity:1;fill-rule:nonzero;stroke:none;stroke-width:0.1"
         d="m 23.4398,131.195 -2.2285,-3.857 -0.3777,0.217 2.2269,3.86 0.3793,-0.22" />
      <path
         inkscape:connector-curvature="0"
         id="path1463"
         style="fill:#929292;fill-opacity:1;fill-rule:nonzero;stroke:none;stroke-width:0.1"
         d="m 24.2336,130.737 -2.2285,-3.858 -0.3789,0.219 2.2273,3.859 0.3801,-0.22" />
      <path
         inkscape:connector-curvature="0"
         id="path1465"
         style="fill:#ffffff;fill-opacity:1;fill-rule:nonzero;stroke:none;stroke-width:0.1"
         d="m 15.7438,137.91 -0.2188,-0.377 c -2.7695,1.6 -4.6695,-0.289 -5.1672,-1.152 l -0.37889,0.218 c 0.55859,0.969 2.68359,3.09 5.76489,1.311" />
      <path
         inkscape:connector-curvature="0"
         id="path1467"
         style="fill:#fadc25;fill-opacity:1;fill-rule:nonzero;stroke:none;stroke-width:0.1"
         d="m 21.523,138.036 c 1.2563,-2.168 4.0333,-2.907 6.2012,-1.651 2.168,1.256 2.9074,4.033 1.6508,6.201 -1.8441,3.184 -4.4398,2.102 -6.0703,4.918 l -1.3953,-0.809 -0.1188,-0.068 -1.3957,-0.809 c 1.2535,-2.164 0.2278,-3.677 0.5235,-5.706 0.0312,-0.708 0.2246,-1.421 0.6046,-2.076" />
      <path
         inkscape:connector-curvature="0"
         id="path1469"
         style="fill:#929292;fill-opacity:1;fill-rule:nonzero;stroke:none;stroke-width:0.1"
         d="m 17.9672,148.191 c -0.3012,0.52 -0.1234,1.194 0.3984,1.494 l 2.4442,1.416 c 0.5199,0.303 1.1922,0.123 1.4937,-0.398 l 1.0918,-1.884 c 0.3012,-0.52 0.1211,-1.192 -0.3988,-1.494 l -2.4434,-1.417 c -0.5211,-0.301 -1.1922,-0.121 -1.4941,0.398 l -1.0918,1.885" />
      <path
         inkscape:connector-curvature="0"
         id="path1471"
         style="fill:#ffffff;fill-opacity:1;fill-rule:nonzero;stroke:none;stroke-width:0.1"
         d="m 22.223,146.88 0.2868,0.16 c 1.3804,-2.419 4.1472,-4.592 4.1757,-4.615 l -0.2019,-0.259 c -0.0289,0.023 -2.8473,2.236 -4.2606,4.714" />
      <path
         inkscape:connector-curvature="0"
         id="path1473"
         style="fill:#ffffff;fill-opacity:1;fill-rule:nonzero;stroke:none;stroke-width:0.1"
         d="m 21.4117,146.407 c 1.4453,-2.457 1.9637,-6.003 1.9684,-6.038 l -0.325,-0.047 c -0.0043,0.035 -0.5145,3.519 -1.9262,5.918 l 0.2828,0.167" />
      <path
         inkscape:connector-curvature="0"
         id="path1475"
         style="fill:#ffffff;fill-opacity:1;fill-rule:nonzero;stroke:none;stroke-width:0.1"
         d="m 24.5254,142.458 0.0801,0.025 c 0.1617,0.014 0.2675,-0.175 0.3695,-0.355 l 0.0816,-0.14 c 0.1372,-0.208 0.1997,-0.239 0.2247,-0.241 l 0.1839,0.222 0.0461,0.084 c 0.1356,0.221 0.2321,0.446 0.3348,0.686 0.0605,0.138 0.1223,0.277 0.1906,0.418 l 0.1957,-0.096 c -0.0668,-0.137 -0.1265,-0.273 -0.184,-0.411 -0.1019,-0.234 -0.2078,-0.477 -0.3511,-0.711 l -0.0395,-0.072 c -0.0762,-0.14 -0.189,-0.349 -0.3883,-0.338 -0.1773,0.007 -0.3168,0.22 -0.3922,0.333 l -0.0925,0.156 -0.1657,0.244 c -0.0015,-0.008 -0.0285,-0.043 -0.0628,-0.142 l -0.0321,-0.209 c -0.0078,-0.125 -0.0168,-0.255 -0.0832,-0.359 -0.1262,-0.201 -0.291,-0.118 -0.3785,-0.074 l -0.0934,0.04 c -0.1336,0.047 -0.1753,0.046 -0.2586,-0.018 -0.3558,-0.273 -0.7492,-0.829 -0.9222,-1.212 l -0.1988,0.09 c 0.182,0.401 0.5906,0.992 0.9871,1.296 0.164,0.125 0.2886,0.114 0.4648,0.052 l 0.1188,-0.052 0.0765,-0.035 0.0196,0.03 c 0.0367,0.056 0.0441,0.16 0.0507,0.258 0.0059,0.091 0.0137,0.184 0.043,0.266 0.0324,0.095 0.0859,0.212 0.1754,0.265" />
      <path
         inkscape:connector-curvature="0"
         id="path1477"
         style="fill:#b2b2b1;fill-opacity:1;fill-rule:nonzero;stroke:none;stroke-width:0.1"
         d="m 18.3656,149.685 c -0.5218,-0.3 -0.6996,-0.974 -0.3984,-1.494 l 1.0918,-1.885 c 0.3019,-0.519 0.973,-0.699 1.4941,-0.398 l 1.2375,0.719 -2.1871,3.774 -1.2379,-0.716" />
      <path
         inkscape:connector-curvature="0"
         id="path1479"
         style="fill:#929292;fill-opacity:1;fill-rule:nonzero;stroke:none;stroke-width:0.1"
         d="m 19.3301,146.401 3.8562,2.235 0.218,-0.378 -3.8547,-2.235 -0.2195,0.378" />
      <path
         inkscape:connector-curvature="0"
         id="path1481"
         style="fill:#929292;fill-opacity:1;fill-rule:nonzero;stroke:none;stroke-width:0.1"
         d="m 18.8715,147.194 3.8555,2.233 0.2195,-0.377 -3.8563,-2.234 -0.2187,0.378" />
      <path
         inkscape:connector-curvature="0"
         id="path1483"
         style="fill:#929292;fill-opacity:1;fill-rule:nonzero;stroke:none;stroke-width:0.1"
         d="m 18.4125,147.986 3.8555,2.234 0.2183,-0.378 -3.8554,-2.234 -0.2184,0.378" />
      <path
         inkscape:connector-curvature="0"
         id="path1485"
         style="fill:#929292;fill-opacity:1;fill-rule:nonzero;stroke:none;stroke-width:0.1"
         d="m 17.9531,148.779 3.8555,2.232 0.2195,-0.377 -3.8547,-2.235 -0.2203,0.38" />
      <path
         inkscape:connector-curvature="0"
         id="path1487"
         style="fill:#ffffff;fill-opacity:1;fill-rule:nonzero;stroke:none;stroke-width:0.1"
         d="m 21.7344,138.327 0.3789,0.22 c 1.6023,-2.768 4.1902,-2.079 5.0523,-1.579 l 0.2196,-0.38 c -0.9668,-0.561 -3.8676,-1.338 -5.6508,1.739" />
      <path
         inkscape:connector-curvature="0"
         id="path1489"
         style="fill:#fadc25;fill-opacity:1;fill-rule:nonzero;stroke:none;stroke-width:0.1"
         d="m 28.248,121.732 c -0.6484,2.419 -3.1371,3.856 -5.5578,3.207 -2.4207,-0.648 -3.8574,-3.136 -3.2078,-5.556 0.9524,-3.555 3.7399,-3.186 4.5817,-6.329 l 1.557,0.418 0.1324,0.036 1.5578,0.417 c -0.6468,2.414 0.7375,3.608 0.9801,5.645 0.1539,0.691 0.1527,1.429 -0.0434,2.162" />
      <path
         inkscape:connector-curvature="0"
         id="path1491"
         style="fill:#929292;fill-opacity:1;fill-rule:nonzero;stroke:none;stroke-width:0.1"
         d="m 29.0371,111 c 0.1563,-0.58 -0.191,-1.183 -0.773,-1.338 l -2.7274,-0.731 c -0.5816,-0.156 -1.1836,0.192 -1.339,0.774 l -0.5645,2.101 c -0.1551,0.582 0.1934,1.185 0.7738,1.34 l 2.7282,0.732 c 0.5816,0.155 1.1832,-0.193 1.339,-0.774 L 29.0371,111" />
      <path
         inkscape:connector-curvature="0"
         id="path1493"
         style="fill:#ffffff;fill-opacity:1;fill-rule:nonzero;stroke:none;stroke-width:0.1"
         d="m 25.2699,113.375 -0.3183,-0.08 c -0.7028,2.695 -2.809,5.515 -2.8301,5.543 l 0.2617,0.197 c 0.0223,-0.029 2.1664,-2.9 2.8867,-5.66" />
      <path
         inkscape:connector-curvature="0"
         id="path1495"
         style="fill:#ffffff;fill-opacity:1;fill-rule:nonzero;stroke:none;stroke-width:0.1"
         d="m 26.177,113.619 c -0.7567,2.75 -0.3336,6.309 -0.3286,6.343 l 0.3254,-0.038 c -0.0043,-0.036 -0.4195,-3.532 0.32,-6.217 l -0.3168,-0.088" />
      <path
         inkscape:connector-curvature="0"
         id="path1497"
         style="fill:#ffffff;fill-opacity:1;fill-rule:nonzero;stroke:none;stroke-width:0.1"
         d="m 24.198,118.244 -0.0835,-0.004 c -0.1598,0.029 -0.2129,0.238 -0.2645,0.439 l -0.043,0.158 c -0.0781,0.235 -0.1293,0.282 -0.1539,0.291 l -0.2347,-0.168 -0.0668,-0.07 c -0.1879,-0.176 -0.3399,-0.369 -0.5024,-0.572 -0.0937,-0.119 -0.1894,-0.239 -0.2922,-0.357 l -0.1644,0.144 c 0.1008,0.116 0.1937,0.232 0.2851,0.348 0.1602,0.201 0.3243,0.409 0.5239,0.598 l 0.0574,0.058 c 0.1098,0.115 0.2726,0.287 0.4621,0.226 0.1695,-0.054 0.2492,-0.294 0.2926,-0.425 l 0.0484,-0.176 0.0965,-0.277 0.0977,0.121 0.0851,0.193 c 0.0402,0.119 0.0832,0.242 0.1742,0.324 0.1739,0.163 0.311,0.041 0.3844,-0.027 l 0.0797,-0.062 c 0.1176,-0.081 0.1574,-0.09 0.2547,-0.049 0.414,0.17 0.939,0.605 1.2054,0.929 l 0.1696,-0.138 c -0.2809,-0.34 -0.8289,-0.805 -1.2906,-0.994 -0.1915,-0.077 -0.309,-0.034 -0.4625,0.072 l -0.1012,0.08 -0.0649,0.052 -0.0265,-0.023 c -0.0504,-0.045 -0.084,-0.14 -0.1157,-0.234 l -0.1117,-0.248 c -0.0554,-0.081 -0.1375,-0.182 -0.2383,-0.209" />
      <path
         inkscape:connector-curvature="0"
         id="path1499"
         style="fill:#b2b2b1;fill-opacity:1;fill-rule:nonzero;stroke:none;stroke-width:0.1"
         d="m 28.2641,109.662 c 0.582,0.155 0.9293,0.758 0.773,1.338 l -0.5629,2.104 c -0.1558,0.581 -0.7574,0.929 -1.339,0.774 l -1.3817,-0.37 1.1293,-4.216 1.3813,0.37" />
      <path
         inkscape:connector-curvature="0"
         id="path1501"
         style="fill:#929292;fill-opacity:1;fill-rule:nonzero;stroke:none;stroke-width:0.1"
         d="m 28.1879,113.084 -4.3047,-1.153 -0.1121,0.422 4.3031,1.155 0.1137,-0.424" />
      <path
         inkscape:connector-curvature="0"
         id="path1503"
         style="fill:#929292;fill-opacity:1;fill-rule:nonzero;stroke:none;stroke-width:0.1"
         d="m 28.4242,112.199 -4.3035,-1.152 -0.1133,0.423 4.3039,1.151 0.1129,-0.422" />
      <path
         inkscape:connector-curvature="0"
         id="path1505"
         style="fill:#929292;fill-opacity:1;fill-rule:nonzero;stroke:none;stroke-width:0.1"
         d="m 28.6617,111.316 -4.3039,-1.154 -0.1129,0.423 4.3039,1.153 0.1129,-0.422" />
      <path
         inkscape:connector-curvature="0"
         id="path1507"
         style="fill:#929292;fill-opacity:1;fill-rule:nonzero;stroke:none;stroke-width:0.1"
         d="m 28.8988,110.429 -4.3047,-1.152 -0.1132,0.424 4.3039,1.152 0.114,-0.424" />
      <path
         inkscape:connector-curvature="0"
         id="path1509"
         style="fill:#ffffff;fill-opacity:1;fill-rule:nonzero;stroke:none;stroke-width:0.1"
         d="m 27.9684,121.506 -0.4223,-0.113 c -0.8277,3.087 -3.5063,3.097 -4.4684,2.839 l -0.1129,0.421 c 1.079,0.291 4.0825,0.288 5.0036,-3.147" />
      <path
         inkscape:connector-curvature="0"
         id="path1511"
         style="fill:#717374;fill-opacity:1;fill-rule:nonzero;stroke:none;stroke-width:0.1"
         d="m 33.6605,164.016 c 0,8.636 9.6192,11.033 13.2641,4.61 2.8352,1.532 6.6824,-1.355 5.4676,-4.61 3.7461,0.775 9.7199,-3.635 7.2898,-10.347 4.3535,-0.862 4.4551,-7.766 1.2157,-9.203 2.8343,-1.439 2.1257,-7.001 -1.9247,-6.809 3.2403,-2.396 1.8235,-10.354 -3.6445,-10.545 3.2399,-2.494 0.4055,-7.288 -2.9363,-5.273 3.0375,-3.932 -0.3039,-9.477 -6.1766,-8.142 -0.4047,-8.348 -12.5551,-9.771 -12.5551,0 0,9.772 0,50.319 0,50.319" />
      <path
         inkscape:connector-curvature="0"
         id="path1513"
         style="fill:#fadc25;fill-opacity:1;fill-rule:nonzero;stroke:none;stroke-width:0.1"
         d="m 37.977,165.599 c 0.6492,2.421 3.1375,3.858 5.5578,3.209 2.4207,-0.648 3.8574,-3.136 3.2086,-5.557 -0.9528,-3.556 -3.7407,-3.187 -4.5817,-6.328 l -1.5578,0.417 -0.132,0.035 -1.5582,0.418 c 0.6472,2.416 -0.7367,3.609 -0.9801,5.646 -0.1543,0.692 -0.1523,1.43 0.0434,2.16" />
      <path
         inkscape:connector-curvature="0"
         id="path1515"
         style="fill:#929292;fill-opacity:1;fill-rule:nonzero;stroke:none;stroke-width:0.1"
         d="m 37.1879,154.871 c -0.1563,-0.582 0.191,-1.186 0.7726,-1.34 l 2.7282,-0.731 c 0.5808,-0.158 1.1836,0.191 1.339,0.773 l 0.5641,2.103 c 0.1555,0.58 -0.193,1.183 -0.7734,1.339 l -2.7282,0.731 c -0.5812,0.156 -1.1836,-0.193 -1.339,-0.774 l -0.5633,-2.101" />
      <path
         inkscape:connector-curvature="0"
         id="path1517"
         style="fill:#ffffff;fill-opacity:1;fill-rule:nonzero;stroke:none;stroke-width:0.1"
         d="m 40.9551,157.245 0.3183,-0.083 c 0.7032,2.697 2.8094,5.516 2.8313,5.545 l -0.2629,0.197 c -0.0215,-0.029 -2.1664,-2.9 -2.8867,-5.659" />
      <path
         inkscape:connector-curvature="0"
         id="path1519"
         style="fill:#ffffff;fill-opacity:1;fill-rule:nonzero;stroke:none;stroke-width:0.1"
         d="m 40.048,157.488 c 0.7563,2.748 0.3336,6.309 0.329,6.344 l -0.3258,-0.041 c 0.0047,-0.034 0.4195,-3.53 -0.3199,-6.215 l 0.3167,-0.088" />
      <path
         inkscape:connector-curvature="0"
         id="path1521"
         style="fill:#ffffff;fill-opacity:1;fill-rule:nonzero;stroke:none;stroke-width:0.1"
         d="m 42.0273,162.113 0.0836,-0.005 c 0.1594,0.03 0.2129,0.239 0.2641,0.441 l 0.043,0.156 c 0.0781,0.235 0.1293,0.283 0.1543,0.291 l 0.2347,-0.168 0.0664,-0.069 c 0.1879,-0.177 0.3407,-0.369 0.5028,-0.573 0.0933,-0.12 0.189,-0.239 0.2922,-0.356 l 0.164,0.144 c -0.1004,0.116 -0.1933,0.233 -0.2844,0.348 -0.1601,0.201 -0.325,0.407 -0.5242,0.596 l -0.0574,0.06 c -0.1094,0.115 -0.273,0.288 -0.4625,0.225 -0.1687,-0.053 -0.2488,-0.295 -0.2922,-0.424 l -0.048,-0.176 -0.0969,-0.278 -0.098,0.122 -0.0848,0.193 c -0.0406,0.12 -0.0832,0.243 -0.1738,0.325 -0.1747,0.16 -0.3118,0.039 -0.3856,-0.028 l -0.0789,-0.064 c -0.1172,-0.08 -0.1578,-0.089 -0.2551,-0.049 -0.414,0.171 -0.9386,0.607 -1.2058,0.932 l -0.1688,-0.141 c 0.2809,-0.339 0.8293,-0.803 1.2906,-0.992 0.1911,-0.078 0.3086,-0.035 0.4622,0.07 l 0.1015,0.081 0.0649,0.052 0.0269,-0.022 c 0.0496,-0.045 0.0832,-0.142 0.1152,-0.236 l 0.1118,-0.246 c 0.0562,-0.082 0.1371,-0.183 0.2382,-0.209" />
      <path
         inkscape:connector-curvature="0"
         id="path1523"
         style="fill:#b2b2b1;fill-opacity:1;fill-rule:nonzero;stroke:none;stroke-width:0.1"
         d="m 37.9605,153.531 c -0.5816,0.154 -0.9289,0.758 -0.7726,1.34 l 0.5633,2.101 c 0.1554,0.581 0.7578,0.93 1.339,0.774 l 1.3817,-0.371 -1.1297,-4.215 -1.3817,0.371" />
      <path
         inkscape:connector-curvature="0"
         id="path1525"
         style="fill:#929292;fill-opacity:1;fill-rule:nonzero;stroke:none;stroke-width:0.1"
         d="m 38.0371,156.953 4.3047,-1.154 0.1125,0.423 -4.3027,1.153 -0.1145,-0.422" />
      <path
         inkscape:connector-curvature="0"
         id="path1527"
         style="fill:#929292;fill-opacity:1;fill-rule:nonzero;stroke:none;stroke-width:0.1"
         d="m 37.8008,156.068 4.3039,-1.154 0.1133,0.423 -4.3039,1.154 -0.1133,-0.423" />
      <path
         inkscape:connector-curvature="0"
         id="path1529"
         style="fill:#929292;fill-opacity:1;fill-rule:nonzero;stroke:none;stroke-width:0.1"
         d="m 37.5637,155.183 4.3035,-1.153 0.1133,0.423 -4.3035,1.152 -0.1133,-0.422" />
      <path
         inkscape:connector-curvature="0"
         id="path1531"
         style="fill:#929292;fill-opacity:1;fill-rule:nonzero;stroke:none;stroke-width:0.1"
         d="m 37.3266,154.299 4.3043,-1.153 0.1132,0.422 -4.3043,1.153 -0.1132,-0.422" />
      <path
         inkscape:connector-curvature="0"
         id="path1533"
         style="fill:#ffffff;fill-opacity:1;fill-rule:nonzero;stroke:none;stroke-width:0.1"
         d="m 38.2566,165.373 0.4227,-0.112 c 0.8273,3.09 3.5062,3.098 4.4684,2.84 l 0.1125,0.422 c -1.0789,0.29 -4.0825,0.287 -5.0036,-3.15" />
      <path
         inkscape:connector-curvature="0"
         id="path1535"
         style="fill:#fadc25;fill-opacity:1;fill-rule:nonzero;stroke:none;stroke-width:0.1"
         d="m 47.266,153.028 c -1.2527,2.17 -0.5086,4.946 1.6613,6.2 2.1704,1.251 4.9457,0.508 6.1981,-1.662 1.841,-3.187 -0.3914,-4.898 1.2355,-7.715 l -1.3964,-0.806 -0.1184,-0.068 -1.3973,-0.807 c -1.25,2.166 -3.0734,2.029 -4.6851,3.299 -0.5981,0.38 -1.1188,0.904 -1.4977,1.559" />
      <path
         inkscape:connector-curvature="0"
         id="path1537"
         style="fill:#929292;fill-opacity:1;fill-rule:nonzero;stroke:none;stroke-width:0.1"
         d="m 54.2953,144.883 c 0.3004,-0.521 0.9727,-0.702 1.4938,-0.401 l 2.4457,1.412 c 0.5211,0.301 0.7011,0.973 0.4,1.494 l -1.0883,1.887 c -0.3008,0.52 -0.9735,0.699 -1.4938,0.399 l -2.4464,-1.412 c -0.5208,-0.301 -0.7004,-0.973 -0.3997,-1.494 l 1.0887,-1.885" />
      <path
         inkscape:connector-curvature="0"
         id="path1539"
         style="fill:#ffffff;fill-opacity:1;fill-rule:nonzero;stroke:none;stroke-width:0.1"
         d="m 55.2805,149.226 0.2824,0.166 c -1.409,2.405 -1.9137,5.887 -1.918,5.922 l -0.3246,-0.046 c 0.0051,-0.036 0.518,-3.583 1.9602,-6.042" />
      <path
         inkscape:connector-curvature="0"
         id="path1541"
         style="fill:#ffffff;fill-opacity:1;fill-rule:nonzero;stroke:none;stroke-width:0.1"
         d="m 54.4668,148.757 c -1.4098,2.478 -4.2246,4.696 -4.2527,4.717 l -0.2028,-0.257 c 0.0278,-0.022 2.793,-2.2 4.17,-4.622 l 0.2855,0.162" />
      <path
         inkscape:connector-curvature="0"
         id="path1543"
         style="fill:#ffffff;fill-opacity:1;fill-rule:nonzero;stroke:none;stroke-width:0.1"
         d="m 52.5961,153.426 0.0617,0.057 c 0.0922,0.133 -0.0176,0.319 -0.1234,0.497 l -0.0813,0.141 c -0.1109,0.223 -0.1086,0.293 -0.0968,0.316 l 0.2847,0.047 0.0961,-0.002 c 0.259,0.006 0.5016,-0.021 0.7606,-0.05 0.1507,-0.018 0.3027,-0.035 0.4589,-0.046 l 0.0129,0.219 c -0.1515,0.01 -0.3,0.026 -0.4465,0.043 -0.255,0.03 -0.5179,0.061 -0.7921,0.053 H 52.648 c -0.1582,0.005 -0.3964,0.012 -0.4863,-0.166 -0.0812,-0.158 0.0324,-0.385 0.0938,-0.507 l 0.0898,-0.159 0.1281,-0.264 c -0.0086,0.003 -0.0531,-0.002 -0.155,0.016 l -0.1969,0.076 c -0.1125,0.057 -0.2293,0.113 -0.3524,0.107 -0.2371,-0.009 -0.2476,-0.193 -0.2535,-0.291 l -0.0101,-0.101 c -0.0258,-0.14 -0.0481,-0.175 -0.1457,-0.215 -0.4133,-0.172 -1.093,-0.234 -1.5114,-0.195 l -0.0203,-0.219 c 0.4387,-0.041 1.1539,0.02 1.6149,0.211 0.1898,0.08 0.2433,0.193 0.2765,0.377 l 0.0149,0.13 0.0094,0.082 0.0343,0.003 0.2485,-0.085 0.2527,-0.095 c 0.0973,-0.018 0.2266,-0.031 0.3168,0.02" />
      <path
         inkscape:connector-curvature="0"
         id="path1545"
         style="fill:#b2b2b1;fill-opacity:1;fill-rule:nonzero;stroke:none;stroke-width:0.1"
         d="m 55.7891,144.482 c -0.5211,-0.301 -1.1934,-0.12 -1.4938,0.401 l -1.0887,1.885 c -0.3007,0.521 -0.1211,1.193 0.3997,1.494 l 1.2398,0.715 2.1816,-3.779 -1.2386,-0.716" />
      <path
         inkscape:connector-curvature="0"
         id="path1547"
         style="fill:#929292;fill-opacity:1;fill-rule:nonzero;stroke:none;stroke-width:0.1"
         d="m 53.4234,146.957 3.8594,2.227 -0.2199,0.378 -3.8574,-2.226 0.2179,-0.379" />
      <path
         inkscape:connector-curvature="0"
         id="path1549"
         style="fill:#929292;fill-opacity:1;fill-rule:nonzero;stroke:none;stroke-width:0.1"
         d="m 53.8816,146.163 3.8582,2.229 -0.2183,0.379 -3.8582,-2.228 0.2183,-0.38" />
      <path
         inkscape:connector-curvature="0"
         id="path1551"
         style="fill:#929292;fill-opacity:1;fill-rule:nonzero;stroke:none;stroke-width:0.1"
         d="m 54.3391,145.37 3.8586,2.227 -0.2188,0.381 -3.859,-2.229 0.2192,-0.379" />
      <path
         inkscape:connector-curvature="0"
         id="path1553"
         style="fill:#929292;fill-opacity:1;fill-rule:nonzero;stroke:none;stroke-width:0.1"
         d="m 54.7973,144.578 3.859,2.227 -0.2192,0.38 -3.8586,-2.228 0.2188,-0.379" />
      <path
         inkscape:connector-curvature="0"
         id="path1555"
         style="fill:#ffffff;fill-opacity:1;fill-rule:nonzero;stroke:none;stroke-width:0.1"
         d="m 47.6238,153.066 0.3785,0.219 c -1.5992,2.769 0.2887,4.67 1.1516,5.168 l -0.2187,0.377 c -0.968,-0.557 -3.0899,-2.683 -1.3114,-5.764" />
      <path
         inkscape:connector-curvature="0"
         id="path1557"
         style="fill:#fadc25;fill-opacity:1;fill-rule:nonzero;stroke:none;stroke-width:0.1"
         d="m 50.1621,138.269 c 2.1703,1.252 4.9457,0.508 6.1988,-1.661 1.2528,-2.171 0.509,-4.946 -1.6613,-6.199 -3.1867,-1.841 -4.8973,0.392 -7.7141,-1.235 l -0.8058,1.396 -0.0688,0.119 -0.8066,1.397 c 2.1645,1.25 2.0301,3.074 3.2988,4.685 0.3809,0.598 0.9028,1.118 1.559,1.498" />
      <path
         inkscape:connector-curvature="0"
         id="path1559"
         style="fill:#929292;fill-opacity:1;fill-rule:nonzero;stroke:none;stroke-width:0.1"
         d="m 42.0168,131.24 c -0.5211,-0.301 -0.702,-0.973 -0.4008,-1.494 l 1.4121,-2.446 c 0.3004,-0.521 0.9731,-0.701 1.4946,-0.4 l 1.8855,1.088 c 0.5203,0.301 0.6996,0.974 0.3992,1.494 l -1.4121,2.446 c -0.3008,0.521 -0.9719,0.701 -1.493,0.4 l -1.8855,-1.088" />
      <path
         inkscape:connector-curvature="0"
         id="path1561"
         style="fill:#ffffff;fill-opacity:1;fill-rule:nonzero;stroke:none;stroke-width:0.1"
         d="m 46.3605,130.254 0.1665,-0.282 c 2.4043,1.409 5.8867,1.913 5.921,1.918 l -0.0453,0.325 c -0.0355,-0.004 -3.5824,-0.518 -6.0422,-1.961" />
      <path
         inkscape:connector-curvature="0"
         id="path1563"
         style="fill:#ffffff;fill-opacity:1;fill-rule:nonzero;stroke:none;stroke-width:0.1"
         d="m 45.8906,131.068 c 2.4789,1.409 4.6969,4.225 4.718,4.254 l -0.2578,0.201 c -0.0215,-0.027 -2.2008,-2.793 -4.6223,-4.17 l 0.1621,-0.285" />
      <path
         inkscape:connector-curvature="0"
         id="path1565"
         style="fill:#ffffff;fill-opacity:1;fill-rule:nonzero;stroke:none;stroke-width:0.1"
         d="m 50.5605,132.939 0.0555,-0.062 c 0.1344,-0.092 0.3192,0.017 0.4988,0.125 l 0.1411,0.079 c 0.2211,0.11 0.2914,0.11 0.3144,0.097 0.0543,-0.028 0.0504,-0.194 0.0473,-0.286 l -0.002,-0.095 c 0.0078,-0.258 -0.0211,-0.5 -0.0504,-0.76 -0.0168,-0.151 -0.0336,-0.301 -0.0449,-0.459 l 0.2192,-0.014 c 0.0093,0.153 0.0261,0.301 0.0437,0.447 0.0293,0.255 0.059,0.518 0.0512,0.793 l 0.0015,0.082 c 0.0043,0.159 0.0102,0.398 -0.1675,0.488 -0.1582,0.081 -0.384,-0.034 -0.5063,-0.095 l -0.1586,-0.09 -0.2652,-0.129 c 0.0039,0.01 -0.0016,0.055 0.0168,0.157 l 0.0773,0.197 c 0.0555,0.111 0.1114,0.228 0.1063,0.351 -0.009,0.239 -0.193,0.248 -0.291,0.254 l -0.1016,0.01 c -0.1398,0.027 -0.175,0.049 -0.2148,0.146 -0.1731,0.413 -0.2356,1.094 -0.195,1.511 l -0.2183,0.021 c -0.0414,-0.438 0.0191,-1.154 0.2113,-1.614 0.0797,-0.191 0.193,-0.245 0.3762,-0.279 l 0.1293,-0.013 0.082,-0.008 0.0027,-0.035 -0.084,-0.25 -0.096,-0.252 c -0.018,-0.098 -0.0313,-0.227 0.021,-0.317" />
      <path
         inkscape:connector-curvature="0"
         id="path1567"
         style="fill:#b2b2b1;fill-opacity:1;fill-rule:nonzero;stroke:none;stroke-width:0.1"
         d="m 41.616,129.746 c -0.3012,0.521 -0.1203,1.193 0.4008,1.494 l 1.8855,1.088 c 0.5211,0.301 1.1922,0.121 1.493,-0.4 l 0.7156,-1.239 -3.7796,-2.183 -0.7153,1.24" />
      <path
         inkscape:connector-curvature="0"
         id="path1569"
         style="fill:#929292;fill-opacity:1;fill-rule:nonzero;stroke:none;stroke-width:0.1"
         d="m 44.0902,132.111 2.2286,-3.859 0.3781,0.218 -2.2274,3.86 -0.3793,-0.219" />
      <path
         inkscape:connector-curvature="0"
         id="path1571"
         style="fill:#929292;fill-opacity:1;fill-rule:nonzero;stroke:none;stroke-width:0.1"
         d="m 43.2973,131.652 2.2281,-3.857 0.3789,0.218 -2.2285,3.859 -0.3785,-0.22" />
      <path
         inkscape:connector-curvature="0"
         id="path1573"
         style="fill:#929292;fill-opacity:1;fill-rule:nonzero;stroke:none;stroke-width:0.1"
         d="m 42.5043,131.195 2.2285,-3.857 0.3781,0.217 -2.2269,3.86 -0.3797,-0.22" />
      <path
         inkscape:connector-curvature="0"
         id="path1575"
         style="fill:#929292;fill-opacity:1;fill-rule:nonzero;stroke:none;stroke-width:0.1"
         d="m 41.7109,130.737 2.2286,-3.858 0.3789,0.219 -2.2278,3.859 -0.3797,-0.22" />
      <path
         inkscape:connector-curvature="0"
         id="path1577"
         style="fill:#ffffff;fill-opacity:1;fill-rule:nonzero;stroke:none;stroke-width:0.1"
         d="m 50.2008,137.91 0.2187,-0.377 c 2.7696,1.6 4.6696,-0.289 5.1668,-1.152 l 0.3789,0.218 c -0.5586,0.969 -2.6836,3.09 -5.7644,1.311" />
      <path
         inkscape:connector-curvature="0"
         id="path1579"
         style="fill:#fadc25;fill-opacity:1;fill-rule:nonzero;stroke:none;stroke-width:0.1"
         d="m 44.4215,138.036 c -1.2567,-2.168 -4.0332,-2.907 -6.2012,-1.651 -2.168,1.256 -2.9078,4.033 -1.6512,6.201 1.8446,3.184 4.4403,2.102 6.0704,4.918 l 1.3957,-0.809 0.1187,-0.068 1.3953,-0.809 c -1.2531,-2.164 -0.2273,-3.677 -0.5234,-5.706 -0.0313,-0.708 -0.2246,-1.421 -0.6043,-2.076" />
      <path
         inkscape:connector-curvature="0"
         id="path1581"
         style="fill:#929292;fill-opacity:1;fill-rule:nonzero;stroke:none;stroke-width:0.1"
         d="m 47.977,148.191 c 0.3011,0.52 0.1238,1.194 -0.3985,1.494 l -2.4437,1.416 c -0.52,0.303 -1.1922,0.123 -1.4942,-0.398 l -1.0918,-1.884 c -0.3008,-0.52 -0.1211,-1.192 0.3989,-1.494 l 2.4433,-1.417 c 0.5211,-0.301 1.1926,-0.121 1.4942,0.398 l 1.0918,1.885" />
      <path
         inkscape:connector-curvature="0"
         id="path1583"
         style="fill:#ffffff;fill-opacity:1;fill-rule:nonzero;stroke:none;stroke-width:0.1"
         d="m 43.7211,146.88 -0.2863,0.16 c -1.3805,-2.419 -4.1477,-4.592 -4.1758,-4.615 l 0.2019,-0.259 c 0.0289,0.023 2.8473,2.236 4.2602,4.714" />
      <path
         inkscape:connector-curvature="0"
         id="path1585"
         style="fill:#ffffff;fill-opacity:1;fill-rule:nonzero;stroke:none;stroke-width:0.1"
         d="m 44.5328,146.407 c -1.4453,-2.457 -1.964,-6.003 -1.9683,-6.038 l 0.3246,-0.047 c 0.0047,0.035 0.5148,3.519 1.9261,5.918 l -0.2824,0.167" />
      <path
         inkscape:connector-curvature="0"
         id="path1587"
         style="fill:#ffffff;fill-opacity:1;fill-rule:nonzero;stroke:none;stroke-width:0.1"
         d="m 41.4188,142.458 -0.0797,0.025 c -0.1618,0.014 -0.2676,-0.175 -0.37,-0.355 l -0.0812,-0.14 c -0.1375,-0.208 -0.2,-0.239 -0.2246,-0.241 l -0.1844,0.222 -0.0457,0.084 c -0.1359,0.221 -0.232,0.446 -0.3352,0.686 -0.0605,0.138 -0.1218,0.277 -0.1902,0.418 l -0.1961,-0.096 c 0.0672,-0.137 0.1266,-0.273 0.1844,-0.411 0.1019,-0.234 0.2074,-0.477 0.3512,-0.711 l 0.0394,-0.072 c 0.0762,-0.14 0.1891,-0.349 0.3879,-0.338 0.1774,0.007 0.3172,0.22 0.3922,0.333 l 0.093,0.156 0.1656,0.244 c 0.0012,-0.008 0.0281,-0.043 0.0629,-0.142 l 0.0316,-0.209 c 0.0078,-0.125 0.0172,-0.255 0.0836,-0.359 0.1258,-0.201 0.291,-0.118 0.3781,-0.074 l 0.0934,0.04 c 0.134,0.047 0.1754,0.046 0.259,-0.018 0.3558,-0.273 0.7488,-0.829 0.9223,-1.212 l 0.1988,0.09 c -0.1821,0.401 -0.591,0.992 -0.9875,1.296 -0.1641,0.125 -0.2883,0.114 -0.4649,0.052 l -0.1183,-0.052 -0.077,-0.035 -0.0195,0.03 c -0.0363,0.056 -0.0438,0.16 -0.0508,0.258 -0.0058,0.091 -0.0137,0.184 -0.043,0.266 -0.032,0.095 -0.0859,0.212 -0.1753,0.265" />
      <path
         inkscape:connector-curvature="0"
         id="path1589"
         style="fill:#b2b2b1;fill-opacity:1;fill-rule:nonzero;stroke:none;stroke-width:0.1"
         d="m 47.5785,149.685 c 0.5223,-0.3 0.6996,-0.974 0.3985,-1.494 l -1.0918,-1.885 c -0.3016,-0.519 -0.9731,-0.699 -1.4942,-0.398 l -1.2371,0.719 2.1867,3.774 1.2379,-0.716" />
      <path
         inkscape:connector-curvature="0"
         id="path1591"
         style="fill:#929292;fill-opacity:1;fill-rule:nonzero;stroke:none;stroke-width:0.1"
         d="m 46.6145,146.401 -3.8567,2.235 -0.218,-0.378 3.8547,-2.235 0.22,0.378" />
      <path
         inkscape:connector-curvature="0"
         id="path1593"
         style="fill:#929292;fill-opacity:1;fill-rule:nonzero;stroke:none;stroke-width:0.1"
         d="m 47.0727,147.194 -3.8555,2.233 -0.2192,-0.377 3.8559,-2.234 0.2188,0.378" />
      <path
         inkscape:connector-curvature="0"
         id="path1595"
         style="fill:#929292;fill-opacity:1;fill-rule:nonzero;stroke:none;stroke-width:0.1"
         d="m 47.5316,147.986 -3.8554,2.234 -0.2184,-0.378 3.8559,-2.234 0.2179,0.378" />
      <path
         inkscape:connector-curvature="0"
         id="path1597"
         style="fill:#929292;fill-opacity:1;fill-rule:nonzero;stroke:none;stroke-width:0.1"
         d="m 47.991,148.779 -3.8555,2.232 -0.2195,-0.377 3.8551,-2.235 0.2199,0.38" />
      <path
         inkscape:connector-curvature="0"
         id="path1599"
         style="fill:#ffffff;fill-opacity:1;fill-rule:nonzero;stroke:none;stroke-width:0.1"
         d="m 44.2102,138.327 -0.3789,0.22 c -1.6028,-2.768 -4.1907,-2.079 -5.0524,-1.579 l -0.2199,-0.38 c 0.9668,-0.561 3.868,-1.338 5.6512,1.739" />
      <path
         inkscape:connector-curvature="0"
         id="path1601"
         style="fill:#fadc25;fill-opacity:1;fill-rule:nonzero;stroke:none;stroke-width:0.1"
         d="m 37.6965,121.732 c 0.648,2.419 3.1371,3.856 5.5574,3.207 2.4207,-0.648 3.8574,-3.136 3.2078,-5.556 -0.9519,-3.555 -3.7394,-3.186 -4.5812,-6.329 l -1.5575,0.418 -0.132,0.036 -1.5582,0.417 c 0.6469,2.414 -0.7375,3.608 -0.9801,5.645 -0.1539,0.691 -0.1527,1.429 0.0438,2.162" />
      <path
         inkscape:connector-curvature="0"
         id="path1603"
         style="fill:#929292;fill-opacity:1;fill-rule:nonzero;stroke:none;stroke-width:0.1"
         d="m 36.907,111 c -0.1558,-0.58 0.191,-1.183 0.7731,-1.338 l 2.7277,-0.731 c 0.5817,-0.156 1.1836,0.192 1.3387,0.774 l 0.5644,2.101 c 0.1555,0.582 -0.1933,1.185 -0.7738,1.34 l -2.7281,0.732 c -0.5817,0.155 -1.1828,-0.193 -1.3387,-0.774 L 36.907,111" />
      <path
         inkscape:connector-curvature="0"
         id="path1605"
         style="fill:#ffffff;fill-opacity:1;fill-rule:nonzero;stroke:none;stroke-width:0.1"
         d="m 40.6742,113.375 0.3184,-0.08 c 0.7027,2.695 2.8094,5.515 2.8301,5.543 l -0.2618,0.197 c -0.0218,-0.029 -2.1664,-2.9 -2.8867,-5.66" />
      <path
         inkscape:connector-curvature="0"
         id="path1607"
         style="fill:#ffffff;fill-opacity:1;fill-rule:nonzero;stroke:none;stroke-width:0.1"
         d="m 39.7676,113.619 c 0.7562,2.75 0.3336,6.309 0.3281,6.343 l -0.3254,-0.038 c 0.0047,-0.036 0.4195,-3.532 -0.3195,-6.217 l 0.3168,-0.088" />
      <path
         inkscape:connector-curvature="0"
         id="path1609"
         style="fill:#ffffff;fill-opacity:1;fill-rule:nonzero;stroke:none;stroke-width:0.1"
         d="m 41.7461,118.244 0.084,-0.004 c 0.1597,0.029 0.2129,0.238 0.264,0.439 l 0.043,0.158 c 0.0781,0.235 0.1297,0.282 0.1539,0.291 l 0.2348,-0.168 0.0672,-0.07 c 0.1879,-0.176 0.3394,-0.369 0.5023,-0.572 0.0938,-0.119 0.1895,-0.239 0.2918,-0.357 l 0.1649,0.144 c -0.1008,0.116 -0.1942,0.232 -0.2852,0.348 -0.1605,0.201 -0.3242,0.409 -0.5242,0.598 l -0.0571,0.058 c -0.1097,0.115 -0.273,0.287 -0.4625,0.226 -0.1695,-0.054 -0.2488,-0.294 -0.2921,-0.425 l -0.0485,-0.176 -0.0969,-0.277 -0.0976,0.121 -0.0848,0.193 c -0.0406,0.119 -0.0836,0.242 -0.1746,0.324 -0.1734,0.163 -0.3109,0.041 -0.384,-0.027 l -0.0797,-0.062 c -0.1175,-0.081 -0.1578,-0.09 -0.2546,-0.049 -0.4141,0.17 -0.9391,0.605 -1.2059,0.929 l -0.1691,-0.138 c 0.2804,-0.34 0.8289,-0.805 1.2902,-0.994 0.1914,-0.077 0.3094,-0.034 0.4625,0.072 l 0.1016,0.08 0.0644,0.052 0.027,-0.023 c 0.0504,-0.045 0.0839,-0.14 0.1156,-0.234 l 0.1113,-0.248 c 0.0559,-0.081 0.1375,-0.182 0.2383,-0.209" />
      <path
         inkscape:connector-curvature="0"
         id="path1611"
         style="fill:#b2b2b1;fill-opacity:1;fill-rule:nonzero;stroke:none;stroke-width:0.1"
         d="M 37.6801,109.662 C 37.098,109.817 36.7512,110.42 36.907,111 l 0.5633,2.104 c 0.1559,0.581 0.757,0.929 1.3387,0.774 l 1.382,-0.37 -1.1297,-4.216 -1.3812,0.37" />
      <path
         inkscape:connector-curvature="0"
         id="path1613"
         style="fill:#929292;fill-opacity:1;fill-rule:nonzero;stroke:none;stroke-width:0.1"
         d="m 37.7563,113.084 4.3046,-1.153 0.1125,0.422 -4.3035,1.155 -0.1136,-0.424" />
      <path
         inkscape:connector-curvature="0"
         id="path1615"
         style="fill:#929292;fill-opacity:1;fill-rule:nonzero;stroke:none;stroke-width:0.1"
         d="m 37.5199,112.199 4.3039,-1.152 0.1133,0.423 -4.3043,1.151 -0.1129,-0.422" />
      <path
         inkscape:connector-curvature="0"
         id="path1617"
         style="fill:#929292;fill-opacity:1;fill-rule:nonzero;stroke:none;stroke-width:0.1"
         d="m 37.2828,111.316 4.3035,-1.154 0.1129,0.423 -4.3039,1.153 -0.1125,-0.422" />
      <path
         inkscape:connector-curvature="0"
         id="path1619"
         style="fill:#929292;fill-opacity:1;fill-rule:nonzero;stroke:none;stroke-width:0.1"
         d="m 37.0453,110.429 4.3047,-1.152 0.1133,0.424 -4.3035,1.152 -0.1145,-0.424" />
      <path
         inkscape:connector-curvature="0"
         id="path1621"
         style="fill:#ffffff;fill-opacity:1;fill-rule:nonzero;stroke:none;stroke-width:0.1"
         d="m 37.9762,121.506 0.4222,-0.113 c 0.8278,3.087 3.5059,3.097 4.4684,2.839 l 0.1129,0.421 c -1.0793,0.291 -4.0828,0.288 -5.0035,-3.147" />
    </g>
  </g>
</svg>
