<?xml version="1.0" encoding="UTF-8" standalone="no"?>
<svg
   xmlns:dc="http://purl.org/dc/elements/1.1/"
   xmlns:cc="http://creativecommons.org/ns#"
   xmlns:rdf="http://www.w3.org/1999/02/22-rdf-syntax-ns#"
   xmlns:svg="http://www.w3.org/2000/svg"
   xmlns="http://www.w3.org/2000/svg"
   xmlns:sodipodi="http://sodipodi.sourceforge.net/DTD/sodipodi-0.dtd"
   xmlns:inkscape="http://www.inkscape.org/namespaces/inkscape"
   sodipodi:docname="g2204.svg"
   inkscape:version="1.0beta2 (2b71d25, 2019-12-03)"
   id="svg2559"
   version="1.1"
   viewBox="0 0 20.514616 21.643621"
   height="21.643621mm"
   width="20.514616mm">
  <defs
     id="defs2553" />
  <sodipodi:namedview
     inkscape:window-maximized="0"
     inkscape:window-y="25"
     inkscape:window-x="0"
     inkscape:window-height="847"
     inkscape:window-width="1440"
     showgrid="false"
     inkscape:document-rotation="0"
     inkscape:current-layer="layer1"
     inkscape:document-units="mm"
     inkscape:cy="103.75847"
     inkscape:cx="164.48206"
     inkscape:zoom="0.35"
     inkscape:pageshadow="2"
     inkscape:pageopacity="0.0"
     borderopacity="1.0"
     bordercolor="#666666"
     pagecolor="#ffffff"
     id="base" />
  <metadata
     id="metadata2556">
    <rdf:RDF>
      <cc:Work
         rdf:about="">
        <dc:format>image/svg+xml</dc:format>
        <dc:type
           rdf:resource="http://purl.org/dc/dcmitype/StillImage" />
        <dc:title></dc:title>
      </cc:Work>
    </rdf:RDF>
  </metadata>
  <g
     transform="translate(-62.314121,-120.71391)"
     id="layer1"
     inkscape:groupmode="layer"
     inkscape:label="Layer 1">
    <g
       transform="matrix(0.35277777,0,0,-0.35277777,22.462037,180.77679)"
       id="g2204">
      <path
         inkscape:connector-curvature="0"
         id="path1185"
         style="fill:#f1511b;fill-opacity:1;fill-rule:nonzero;stroke:none;stroke-width:0.1"
         d="m 169.145,144.672 -0.126,-0.054 c -1.481,0.646 -3.279,0.735 -4.831,0.206 -1.075,-0.366 -1.938,-0.997 -2.569,-1.833 -0.452,1.345 -1.268,2.254 -2.128,2.87 1.015,0.235 1.856,0.822 2.435,1.72 0.876,1.356 0.978,3.209 0.253,4.609 -0.512,0.989 -1.36,1.636 -2.43,1.869 1.961,2.817 1.046,5.423 -0.423,6.861 -1.448,1.418 -3.822,2.115 -5.539,1.035 -0.57,1.114 -1.19,1.9 -1.812,2.463 1.547,0.194 2.534,0.924 3.118,1.577 0.244,0.273 0.457,0.577 0.636,0.9 1.466,0.651 3.439,0.047 4.355,-1.297 0.533,-0.78 0.638,-1.688 0.298,-2.556 l -0.316,-0.807 0.85,0.167 c 0.251,0.049 0.521,0.074 0.798,0.074 1.981,0 4.141,-1.203 5.377,-2.993 0.876,-1.269 1.687,-3.394 0.58,-6.308 l -0.201,-0.531 0.557,-0.105 c 2.008,-0.379 2.897,-2.128 3.059,-3.64 0.206,-1.918 -0.592,-3.657 -1.941,-4.227" />
      <path
         inkscape:connector-curvature="0"
         id="path1187"
         style="fill:#f1511b;fill-opacity:1;fill-rule:nonzero;stroke:none;stroke-width:0.1"
         d="m 149.364,170.257 c 2.294,0 4.304,-1.156 5.535,-3.168 -0.119,-0.19 -0.25,-0.376 -0.409,-0.554 -0.596,-0.666 -1.702,-1.428 -3.595,-1.348 -1.216,0.641 -2.325,0.551 -2.934,0.418 -2.211,-0.488 -3.944,-2.716 -3.944,-5.07 0,-2.547 1.635,-4.033 3.255,-4.377 1.556,-0.33 3.002,0.345 3.595,1.682 l -0.74,0.328 c -0.44,-0.991 -1.494,-1.469 -2.687,-1.217 -1.205,0.256 -2.613,1.348 -2.613,3.584 0,1.99 1.453,3.87 3.309,4.279 1.988,0.437 3.855,-0.89 5.133,-3.645 l 0.226,-0.488 0.406,0.353 c 1.376,1.194 3.552,0.587 4.859,-0.693 1.384,-1.355 2.093,-3.731 -0.07,-6.334 l -0.522,-0.628 0.816,-0.035 c 1.426,-0.062 2.134,-0.864 2.475,-1.526 0.596,-1.151 0.51,-2.678 -0.213,-3.798 -0.644,-0.999 -1.703,-1.509 -2.996,-1.457 -0.45,0.198 -0.868,0.331 -1.198,0.414 -2.892,0.731 -6.146,-0.068 -6.827,-1.674 l 0.746,-0.317 c 0.463,1.095 3.269,1.868 5.883,1.206 1.44,-0.364 3.627,-1.377 4.185,-4.175 l -0.063,-0.113 0.088,-0.038 c 0.11,-0.629 0.143,-1.341 0.066,-2.157 l 0.807,-0.076 c 0.08,0.848 0.044,1.591 -0.062,2.259 0.665,1.274 1.748,1.884 2.575,2.165 1.521,0.521 3.316,0.369 4.683,-0.392 l 0.056,0.1 c 1.249,-0.652 1.552,-2.139 1.293,-3.27 -0.122,-0.533 -0.69,-2.276 -2.87,-2.276 l -1.809,0.079 1.33,-0.938 c 1.382,-0.974 1.892,-3.179 1.24,-5.361 -0.694,-2.322 -2.424,-3.753 -4.628,-3.827 l -1.373,-0.046 1.108,-0.812 c 1.053,-0.771 1.468,-1.884 1.111,-2.976 -0.323,-0.987 -1.193,-1.649 -2.166,-1.649 -0.447,0 -0.906,0.133 -1.364,0.397 l -2.213,1.27 1.607,-1.981 c 1.1,-1.358 1.34,-3.041 0.642,-4.506 -0.981,-2.059 -3.548,-3.094 -6.348,-2.488 l -0.546,0.119 -0.003,-0.048 c -0.106,0.106 -0.212,0.213 -0.341,0.308 2.018,0.58 2.722,1.759 2.967,2.48 0.419,1.233 0.061,2.707 -0.892,3.668 -0.778,0.785 -1.769,1.053 -2.721,0.738 l 0.254,-0.769 c 0.65,0.218 1.338,0.017 1.891,-0.539 0.618,-0.622 1.074,-1.741 0.701,-2.837 -0.392,-1.156 -1.632,-1.931 -3.49,-2.182 l -1.856,-0.251 1.794,-0.538 c 0.889,-0.268 1.352,-0.791 1.588,-1.339 -0.543,-3.439 -3.516,-5.286 -6.237,-5.286 -1.43,0 -2.729,0.507 -3.657,1.428 -1.068,1.058 -1.632,2.643 -1.632,4.584 v 47.951 c 0,4.851 3.418,7.389 6.795,7.389" />
      <path
         inkscape:connector-curvature="0"
         id="path1189"
         style="fill:#f1511b;fill-opacity:1;fill-rule:nonzero;stroke:none;stroke-width:0.1"
         d="m 114.939,144.672 0.127,-0.054 c 1.48,0.646 3.279,0.735 4.83,0.206 1.075,-0.366 1.939,-0.997 2.569,-1.833 0.452,1.345 1.269,2.254 2.128,2.87 -1.014,0.235 -1.856,0.822 -2.435,1.72 -0.876,1.356 -0.977,3.209 -0.253,4.609 0.512,0.989 1.36,1.636 2.43,1.869 -1.96,2.817 -1.045,5.423 0.423,6.861 1.448,1.418 3.822,2.115 5.54,1.035 0.569,1.114 1.19,1.9 1.812,2.463 -1.547,0.194 -2.534,0.924 -3.119,1.577 -0.244,0.273 -0.457,0.577 -0.635,0.9 -1.466,0.651 -3.439,0.047 -4.356,-1.297 -0.532,-0.78 -0.638,-1.688 -0.297,-2.556 l 0.316,-0.807 -0.851,0.167 c -0.251,0.049 -0.52,0.074 -0.798,0.074 -1.98,0 -4.141,-1.203 -5.376,-2.993 -0.876,-1.269 -1.688,-3.394 -0.581,-6.308 l 0.202,-0.531 -0.558,-0.105 c -2.008,-0.379 -2.896,-2.128 -3.058,-3.64 -0.207,-1.918 0.592,-3.657 1.94,-4.227" />
      <path
         inkscape:connector-curvature="0"
         id="path1191"
         style="fill:#f1511b;fill-opacity:1;fill-rule:nonzero;stroke:none;stroke-width:0.1"
         d="m 134.721,170.257 c -2.294,0 -4.305,-1.156 -5.536,-3.168 0.119,-0.19 0.251,-0.376 0.41,-0.554 0.596,-0.666 1.701,-1.428 3.594,-1.348 1.216,0.641 2.325,0.551 2.934,0.418 2.212,-0.488 3.944,-2.716 3.944,-5.07 0,-2.547 -1.634,-4.033 -3.254,-4.377 -1.556,-0.33 -3.003,0.345 -3.596,1.682 l 0.741,0.328 c 0.44,-0.991 1.494,-1.469 2.687,-1.217 1.205,0.256 2.613,1.348 2.613,3.584 0,1.99 -1.454,3.87 -3.309,4.279 -1.988,0.437 -3.855,-0.89 -5.133,-3.645 l -0.226,-0.488 -0.407,0.353 c -1.376,1.194 -3.552,0.587 -4.858,-0.693 -1.385,-1.355 -2.094,-3.731 0.069,-6.334 l 0.522,-0.628 -0.816,-0.035 c -1.426,-0.062 -2.133,-0.864 -2.475,-1.526 -0.596,-1.151 -0.51,-2.678 0.213,-3.798 0.644,-0.999 1.703,-1.509 2.996,-1.457 0.45,0.198 0.868,0.331 1.199,0.414 2.891,0.731 6.146,-0.068 6.827,-1.674 l -0.746,-0.317 c -0.464,1.095 -3.27,1.868 -5.883,1.206 -1.441,-0.364 -3.627,-1.377 -4.185,-4.175 l 0.063,-0.113 -0.088,-0.038 c -0.11,-0.629 -0.144,-1.341 -0.066,-2.157 l -0.807,-0.076 c -0.08,0.848 -0.045,1.591 0.061,2.259 -0.665,1.274 -1.748,1.884 -2.574,2.165 -1.522,0.521 -3.317,0.369 -4.683,-0.392 l -0.056,0.1 c -1.25,-0.652 -1.552,-2.139 -1.293,-3.27 0.122,-0.533 0.69,-2.276 2.87,-2.276 l 1.808,0.079 -1.329,-0.938 c -1.382,-0.974 -1.892,-3.179 -1.241,-5.361 0.694,-2.322 2.424,-3.753 4.629,-3.827 l 1.373,-0.046 -1.109,-0.812 c -1.052,-0.771 -1.467,-1.884 -1.11,-2.976 0.322,-0.987 1.193,-1.649 2.165,-1.649 0.448,0 0.907,0.133 1.364,0.397 l 2.213,1.27 -1.607,-1.981 c -1.1,-1.358 -1.34,-3.041 -0.642,-4.506 0.981,-2.059 3.549,-3.094 6.348,-2.488 l 0.547,0.119 0.002,-0.048 c 0.106,0.106 0.213,0.213 0.341,0.308 -2.017,0.58 -2.722,1.759 -2.967,2.48 -0.419,1.233 -0.06,2.707 0.893,3.668 0.777,0.785 1.768,1.053 2.721,0.738 l -0.254,-0.769 c -0.651,0.218 -1.339,0.017 -1.892,-0.539 -0.617,-0.622 -1.073,-1.741 -0.701,-2.837 0.393,-1.156 1.633,-1.931 3.491,-2.182 l 1.856,-0.251 -1.794,-0.538 c -0.89,-0.268 -1.353,-0.791 -1.589,-1.339 0.543,-3.439 3.516,-5.286 6.237,-5.286 1.431,0 2.73,0.507 3.658,1.428 1.068,1.058 1.632,2.643 1.632,4.584 v 47.951 c 0,4.851 -3.418,7.389 -6.795,7.389" />
      <path
         inkscape:connector-curvature="0"
         id="path1193"
         style="fill:#732c18;fill-opacity:1;fill-rule:nonzero;stroke:none;stroke-width:0.1"
         d="m 148.167,115.059 -6.422,29.391 -5.378,-18.624 -3.633,9.715 -2.498,-4.453 h -10.73 v 2 h 9.559 l 4.034,7.191 3.024,-8.09 5.891,20.4 6.069,-27.774 1.661,8.287 4.688,-0.005 2.946,5.123 2.692,-5.128 5.562,-0.004 -0.001,-2 -6.77,0.004 -1.563,2.977 -1.71,-2.974 -4.206,0.005 -3.215,-16.041" />
    </g>
  </g>
</svg>
