<?xml version="1.0" encoding="UTF-8" standalone="no"?>
<svg
   xmlns:dc="http://purl.org/dc/elements/1.1/"
   xmlns:cc="http://creativecommons.org/ns#"
   xmlns:rdf="http://www.w3.org/1999/02/22-rdf-syntax-ns#"
   xmlns:svg="http://www.w3.org/2000/svg"
   xmlns="http://www.w3.org/2000/svg"
   xmlns:sodipodi="http://sodipodi.sourceforge.net/DTD/sodipodi-0.dtd"
   xmlns:inkscape="http://www.inkscape.org/namespaces/inkscape"
   sodipodi:docname="g2222.svg"
   inkscape:version="1.0beta2 (2b71d25, 2019-12-03)"
   id="svg2626"
   version="1.1"
   viewBox="0 0 27.220236 20.396553"
   height="20.396553mm"
   width="27.220236mm">
  <defs
     id="defs2620" />
  <sodipodi:namedview
     inkscape:window-maximized="0"
     inkscape:window-y="25"
     inkscape:window-x="0"
     inkscape:window-height="847"
     inkscape:window-width="1440"
     showgrid="false"
     inkscape:document-rotation="0"
     inkscape:current-layer="layer1"
     inkscape:document-units="mm"
     inkscape:cy="38.544654"
     inkscape:cx="51.439817"
     inkscape:zoom="0.35"
     inkscape:pageshadow="2"
     inkscape:pageopacity="0.0"
     borderopacity="1.0"
     bordercolor="#666666"
     pagecolor="#ffffff"
     id="base" />
  <metadata
     id="metadata2623">
    <rdf:RDF>
      <cc:Work
         rdf:about="">
        <dc:format>image/svg+xml</dc:format>
        <dc:type
           rdf:resource="http://purl.org/dc/dcmitype/StillImage" />
        <dc:title></dc:title>
      </cc:Work>
    </rdf:RDF>
  </metadata>
  <g
     transform="translate(-92.223215,-137.96839)"
     id="layer1"
     inkscape:groupmode="layer"
     inkscape:label="Layer 1">
    <g
       transform="matrix(0.35277777,0,0,-0.35277777,16.671173,197.40792)"
       id="g2222">
      <path
         inkscape:connector-curvature="0"
         id="path1153"
         style="fill:#53c5c7;fill-opacity:1;fill-rule:nonzero;stroke:none;stroke-width:0.1"
         d="m 280.845,135.723 -3.311,0.13 3.227,0.749 c 3.753,0.87 5.232,3.414 5.031,5.547 -0.189,2.021 -1.932,4.123 -5.398,4.265 l -0.906,0.037 0.583,0.694 c 1.091,1.3 1.321,2.895 0.631,4.376 -0.813,1.744 -2.739,2.787 -4.212,2.2 l -1.001,-0.394 0.429,0.987 c 0.597,1.37 0.425,3.165 -0.427,4.465 -1.133,1.728 -3.125,2.051 -5.244,0.768 l -0.697,-0.423 0.021,0.815 c 0.075,2.856 -0.631,5.068 -2.097,6.573 -1.243,1.276 -3.021,1.978 -5.008,1.978 -2.64,0 -5.165,-1.276 -6.004,-3.033 -0.009,-0.021 -0.905,-1.976 -0.395,-3.532 0.825,-2.513 2.446,-3.837 4.346,-3.531 1.412,0.226 2.476,1.332 2.476,2.574 h 0.892 c 0,-1.675 -1.388,-3.16 -3.228,-3.453 -0.205,-0.034 -0.417,-0.05 -0.634,-0.05 -1.708,0 -3.682,1.083 -4.699,4.182 -0.515,1.57 0.086,3.329 0.334,3.947 -1.082,1.688 -2.849,2.659 -4.89,2.659 -2.242,0 -4.798,-1.274 -5.457,-4.12 l -0.18,-0.776 -0.567,0.558 c -1.388,1.368 -3.318,2.121 -5.434,2.121 -2.394,0 -4.58,-0.992 -5.57,-2.526 -0.729,-1.128 -0.771,-2.485 -0.121,-3.918 l 1.061,-2.347 -1.788,1.853 c -1.386,1.436 -2.839,2.195 -4.204,2.195 -1.124,0 -2.146,-0.516 -2.876,-1.452 -0.849,-1.087 -1.154,-2.54 -0.818,-3.889 l 0.181,-0.721 -0.721,0.181 c -2.174,0.543 -4.576,-0.73 -5.404,-2.787 -0.638,-1.58 -0.221,-3.24 1.145,-4.554 l 0.664,-0.64 -0.914,-0.123 c -4.305,-0.577 -5.646,-3.584 -5.485,-5.984 0.153,-2.264 1.733,-4.557 4.46,-4.557 1.19,0 2.486,0.426 3.85,1.265 l 2.005,1.233 -1.416,-1.879 c -1.434,-1.907 -1.818,-3.664 -1.109,-5.082 0.682,-1.37 2.338,-2.253 4.218,-2.253 1.839,0.001 3.401,0.839 4.298,2.301 0.078,0.242 0.381,1.055 1.046,1.735 l 0.078,0.131 -0.009,-0.065 c 0.2,0.194 0.422,0.378 0.688,0.525 0.575,0.319 1.215,0.446 1.915,0.362 -0.516,2.578 1.181,4.761 3.307,5.668 2.028,0.867 4.602,0.678 6.181,-1.483 1.092,2.565 3.569,3.147 5.515,2.815 2.802,-0.48 5.521,-2.904 5.219,-6.137 -0.05,-0.545 -0.168,-1.029 -0.311,-1.485 l 0.3,0.077 c 0.601,-2.37 2.67,-3.131 4.449,-2.831 1.84,0.309 3.724,1.792 3.511,4.317 l -0.098,1.15 0.844,-0.786 c 2.456,-2.285 5.082,-3.004 7.398,-2.029 2.066,0.871 3.547,3.008 3.6,5.197 0.044,1.817 -0.901,3.28 -2.657,4.124 l -0.547,0.261 0.412,0.443 c 1.563,1.68 2.016,3.371 1.277,4.76 -0.715,1.347 -2.472,2.163 -4.069,1.918 -0.855,-0.133 -2.336,-0.704 -2.78,-2.945 0.819,-2.244 0.376,-4.956 -1.374,-7.691 l -0.75,0.478 c 2.187,3.421 2.182,6.772 -0.016,8.963 -1.847,1.842 -4.704,2.29 -6.643,1.04 l -0.791,-0.508 0.107,0.934 c 0.29,2.546 -1.272,4.148 -2.949,4.608 -1.344,0.364 -3.24,0.082 -4.147,-1.944 l -0.443,-0.988 -0.38,1.013 c -0.853,2.276 -2.653,3.308 -4.798,2.76 -1.857,-0.473 -3.687,-2.231 -3.402,-4.249 l 0.149,-1.068 -0.859,0.65 c -1.335,1.009 -3.24,1.085 -4.741,0.193 -1.455,-0.867 -2.166,-2.419 -1.902,-4.151 l -0.881,-0.135 c -0.321,2.105 0.549,3.991 2.328,5.052 1.552,0.923 3.464,0.981 4.996,0.21 0.175,2.141 2.081,3.851 4.092,4.362 1.845,0.467 4.161,0.022 5.481,-2.479 1.18,1.694 3.153,2.069 4.743,1.634 1.796,-0.493 3.585,-2.167 3.636,-4.758 2.225,0.968 5.113,0.37 7.033,-1.546 0.371,-0.37 0.672,-0.776 0.936,-1.198 0.579,1.457 1.703,2.407 3.218,2.644 1.99,0.31 4.095,-0.688 4.993,-2.381 0.51,-0.959 1.015,-2.888 -1.032,-5.353 1.739,-1.03 2.699,-2.704 2.65,-4.674 -0.06,-2.528 -1.764,-4.994 -4.143,-5.996 -0.722,-0.306 -1.794,-0.593 -3.109,-0.46 -1.086,-0.117 -2.159,-0.835 -2.806,-1.891 -0.738,-1.203 -0.831,-2.658 -0.262,-4.093 l 0.449,-1.135 -1.074,0.578 c -1.45,0.778 -2.891,0.824 -4.055,0.128 -1.014,-0.606 -1.668,-1.697 -1.678,-2.791 l -0.006,-0.069 c -0.097,-1.068 0.238,-2.083 0.946,-2.857 1.393,-1.525 3.988,-1.771 6.058,-0.473 l 0.754,0.474 -0.074,-0.888 c -0.137,-1.687 0.27,-3.101 1.178,-4.086 0.831,-0.902 2.067,-1.419 3.395,-1.419 1.341,0 2.572,0.533 3.294,1.424 0.662,0.818 0.873,1.902 0.609,3.134 l -0.202,0.946 0.851,-0.462 c 1.251,-0.678 2.46,-1.023 3.591,-1.023 2.091,0 3.856,1.22 4.72,3.263 0.994,2.345 0.523,5.009 -1.197,6.785 l -0.641,0.662 0.917,0.092 c 1.719,0.172 2.826,1.851 2.782,3.309 -0.055,1.821 -1.722,2.971 -4.457,3.079" />
      <path
         inkscape:connector-curvature="0"
         id="path1155"
         style="fill:#53c5c7;fill-opacity:1;fill-rule:nonzero;stroke:none;stroke-width:0.1"
         d="m 259.547,127.388 c 0.723,0.431 2.133,0.976 4.01,0.304 -0.304,1.382 -0.09,2.745 0.63,3.919 0.475,0.775 1.147,1.398 1.901,1.807 -0.882,0.314 -1.835,0.826 -2.836,1.632 -0.253,-2.475 -2.268,-3.933 -4.245,-4.265 -0.297,-0.049 -0.599,-0.075 -0.904,-0.075 -1.744,0 -3.513,0.856 -4.317,2.867 -0.881,-1.795 -2.502,-2.697 -4.092,-2.697 -0.122,0 -0.242,0.006 -0.362,0.014 -1.69,0.146 -3.419,1.451 -3.222,3.971 l 0.888,-0.068 c -0.151,-1.927 1.101,-2.902 2.41,-3.014 1.833,-0.167 3.85,1.234 4.127,4.203 0.255,2.717 -2.079,4.765 -4.483,5.175 -1.877,0.327 -4.121,-0.325 -4.814,-3.097 l -0.292,-1.168 -0.538,1.077 c -1.22,2.438 -3.667,2.72 -5.551,1.915 -1.88,-0.802 -3.501,-2.796 -2.613,-5.279 l 0.293,-0.822 -0.839,0.246 c -0.758,0.222 -1.423,0.176 -1.981,-0.134 -0.962,-0.534 -1.34,-1.666 -1.39,-1.829 -0.017,-0.149 -0.163,-1.76 0.894,-2.965 0.817,-0.93 2.154,-1.402 3.975,-1.402 h 9.572 l -0.158,-0.568 c -0.004,-0.009 -0.281,-1.035 0.32,-1.829 0.532,-0.701 1.592,-1.056 3.148,-1.056 h 8.385 c 0.154,1.252 0.935,2.451 2.084,3.138" />
      <path
         inkscape:connector-curvature="0"
         id="path1157"
         style="fill:#e8f8fa;fill-opacity:1;fill-rule:nonzero;stroke:none;stroke-width:0.1"
         d="m 261.578,132.17 1.143,1.143 c -0.218,-0.4 -0.492,-0.756 -0.805,-1.066 -0.112,-0.027 -0.225,-0.053 -0.338,-0.077 m -6.2,0.529 c -0.531,0.211 -1.048,0.466 -1.546,0.766 -0.016,0.037 -0.031,0.074 -0.046,0.112 -0.011,-0.022 -0.022,-0.043 -0.033,-0.065 -0.252,0.156 -0.5,0.322 -0.742,0.5 0.268,0.555 0.453,1.213 0.524,1.974 0.161,1.716 -0.711,3.165 -1.981,4.103 l 0.634,0.633 c 1.442,-1.111 2.422,-2.809 2.234,-4.819 -0.05,-0.545 -0.168,-1.029 -0.311,-1.485 l 0.3,0.077 c 0.192,-0.757 0.533,-1.349 0.967,-1.796 m 9.934,1.04 c -0.443,0.21 -0.9,0.471 -1.37,0.795 l 0.643,0.644 c 0.517,-0.343 1.036,-0.619 1.555,-0.825 -0.268,-0.22 -0.545,-0.424 -0.828,-0.614 m -2.932,1.609 c 0.012,0.204 0.009,0.414 -0.009,0.633 l -0.098,1.15 0.844,-0.786 c 0.045,-0.042 0.09,-0.083 0.136,-0.124 l -0.873,-0.873 m 1.997,5.035 -0.75,0.478 c 2.187,3.421 2.182,6.772 -0.016,8.963 -0.4,0.399 -0.848,0.733 -1.324,0.998 l 0.65,0.65 c 0.466,-0.281 0.905,-0.621 1.303,-1.018 0.371,-0.37 0.672,-0.776 0.936,-1.198 0.252,0.634 0.608,1.173 1.054,1.598 0.226,-0.19 0.446,-0.39 0.659,-0.601 -0.493,-0.444 -0.93,-1.127 -1.138,-2.179 0.819,-2.244 0.376,-4.956 -1.374,-7.691 m -8.2,9.973 0.107,0.934 c 0.066,0.58 0.036,1.112 -0.07,1.592 0.283,0.087 0.57,0.162 0.858,0.224 0.081,-0.347 0.128,-0.716 0.135,-1.106 0.454,0.197 0.935,0.329 1.43,0.399 l -1.347,-1.347 c -0.11,-0.058 -0.217,-0.12 -0.322,-0.188 l -0.791,-0.508" />
      <path
         inkscape:connector-curvature="0"
         id="path1159"
         style="fill:#8ad8d9;fill-opacity:1;fill-rule:nonzero;stroke:none;stroke-width:0.1"
         d="m 258.986,131.955 v 0 c -1.228,0.036 -2.45,0.285 -3.608,0.744 -0.434,0.447 -0.775,1.039 -0.967,1.796 l -0.3,-0.077 c 0.143,0.456 0.261,0.94 0.311,1.485 0.188,2.01 -0.792,3.708 -2.234,4.819 l 10.099,10.1 c 0.476,-0.265 0.924,-0.599 1.324,-0.998 2.198,-2.191 2.203,-5.542 0.016,-8.963 l 0.75,-0.478 c 1.75,2.735 2.193,5.447 1.374,7.691 0.208,1.052 0.645,1.735 1.138,2.179 0.013,-0.014 0.027,-0.027 0.04,-0.04 1.373,-1.371 2.295,-3.022 2.768,-4.769 0.213,-0.793 0.333,-1.606 0.358,-2.423 0.007,-0.143 0.01,-0.287 0.01,-0.43 0,0.143 -0.003,0.287 -0.01,0.43 l -6.802,-6.8 c -0.046,0.041 -0.091,0.082 -0.136,0.124 l -0.844,0.786 0.098,-1.15 c 0.018,-0.219 0.021,-0.429 0.009,-0.633 l -3.394,-3.393 m 7.154,2.398 c -0.519,0.206 -1.038,0.482 -1.555,0.825 l 5.241,5.24 c -0.258,-1.246 -0.744,-2.458 -1.454,-3.564 -0.407,-0.632 -0.888,-1.231 -1.442,-1.785 -0.001,-10e-4 -0.003,-0.003 -0.004,-0.004 -0.003,-0.003 -0.007,-0.007 -0.01,-0.01 -0.25,-0.249 -0.509,-0.483 -0.776,-0.702 m -17.483,8.064 v 0 c -0.033,1.4 0.209,2.811 0.727,4.141 0.522,1.332 1.321,2.579 2.397,3.655 1.283,1.283 2.811,2.173 4.433,2.669 0.106,-0.48 0.136,-1.012 0.07,-1.592 l -0.107,-0.934 0.791,0.508 c 0.105,0.068 0.212,0.13 0.322,0.188 l -8.633,-8.635 m 16.519,6.839 c -0.264,0.422 -0.565,0.828 -0.936,1.198 -0.398,0.397 -0.837,0.737 -1.303,1.018 l 0.895,0.895 c -0.248,0.117 -0.5,0.224 -0.755,0.32 v 0 c 0.255,-0.096 0.507,-0.203 0.755,-0.32 0.142,-0.062 0.282,-0.129 0.421,-0.198 0.695,-0.357 1.358,-0.796 1.977,-1.315 -0.446,-0.425 -0.802,-0.964 -1.054,-1.598 M 257.207,152 c -0.007,0.39 -0.054,0.759 -0.135,1.106 0.3,0.065 0.601,0.117 0.904,0.157 0.436,0.054 0.874,0.082 1.311,0.082 0.097,0 0.194,-0.002 0.292,-0.004 0.341,-0.004 0.683,-0.024 1.022,-0.062 v 0 c -0.339,0.038 -0.681,0.058 -1.022,0.062 l -0.942,-0.942 c -0.495,-0.07 -0.976,-0.202 -1.43,-0.399" />
      <path
         inkscape:connector-curvature="0"
         id="path1161"
         style="fill:#8ad8d9;fill-opacity:1;fill-rule:nonzero;stroke:none;stroke-width:0.1"
         d="m 261.916,132.247 c 0.313,0.31 0.587,0.666 0.805,1.066 l 1.221,1.221 c 0.47,-0.324 0.927,-0.585 1.37,-0.795 -1.052,-0.703 -2.202,-1.198 -3.396,-1.492 m -8.084,1.218 c -0.026,0.016 -0.052,0.032 -0.079,0.047 0.011,0.022 0.022,0.043 0.033,0.065 0.015,-0.038 0.03,-0.075 0.046,-0.112 m -0.821,0.547 c -0.431,0.318 -0.844,0.672 -1.234,1.063 -0.257,0.256 -0.499,0.523 -0.725,0.799 -0.357,0.437 -0.674,0.895 -0.952,1.371 -0.174,0.3 -0.331,0.607 -0.47,0.92 l 1.924,1.924 c 1.27,-0.938 2.142,-2.387 1.981,-4.103 -0.071,-0.761 -0.256,-1.419 -0.524,-1.974" />
      <path
         inkscape:connector-curvature="0"
         id="path1163"
         style="fill:#343333;fill-opacity:1;fill-rule:nonzero;stroke:none;stroke-width:0.1"
         d="m 259.356,155.221 c -3.36,0 -6.521,-1.307 -8.897,-3.685 -4.905,-4.905 -4.905,-12.884 0,-17.789 2.376,-2.377 5.536,-3.687 8.897,-3.687 3.36,0 6.519,1.31 8.895,3.687 2.377,2.374 3.686,5.534 3.686,8.894 0,3.361 -1.309,6.521 -3.687,8.895 -2.375,2.378 -5.534,3.685 -8.894,3.685 m 0,-1.87 c 2.741,0 5.482,-1.046 7.573,-3.138 4.186,-4.18 4.186,-10.964 0,-15.145 -2.091,-2.095 -4.832,-3.14 -7.573,-3.14 -2.741,0 -5.482,1.045 -7.575,3.14 -4.181,4.181 -4.181,10.965 0,15.145 2.093,2.092 4.834,3.138 7.575,3.138" />
      <path
         inkscape:connector-curvature="0"
         id="path1165"
         style="fill:#343333;fill-opacity:1;fill-rule:nonzero;stroke:none;stroke-width:0.1"
         d="m 288.287,112.615 -20.627,20.629 1.092,1.094 20.628,-20.629 -1.093,-1.094" />
      <path
         inkscape:connector-curvature="0"
         id="path1167"
         style="fill:#fbc508;fill-opacity:1;fill-rule:nonzero;stroke:none;stroke-width:0.1"
         d="m 291.323,115.653 -4.976,-4.98 -14.534,14.532 4.982,4.977 14.528,-14.529" />
      <path
         inkscape:connector-curvature="0"
         id="path1169"
         style="fill:#f5fcfc;fill-opacity:1;fill-rule:nonzero;stroke:none;stroke-width:0.1"
         d="m 251.554,140.089 c -0.74,0.547 -1.616,0.921 -2.502,1.072 -0.102,0.018 -0.206,0.033 -0.311,0.045 -0.005,0.036 -0.009,0.073 -0.014,0.109 -0.031,0.263 -0.052,0.527 -0.062,0.792 0.182,-0.015 0.362,-0.037 0.538,-0.067 1.06,-0.182 2.108,-0.641 2.985,-1.318 l -0.634,-0.633 m 10.733,10.733 c -0.882,0.492 -1.861,0.748 -2.809,0.748 -0.772,0 -1.523,-0.169 -2.188,-0.518 l 1.347,1.347 c 0.274,0.038 0.553,0.057 0.834,0.057 1.181,0 2.395,-0.337 3.466,-0.984 l -0.65,-0.65" />
      <path
         inkscape:connector-curvature="0"
         id="path1171"
         style="fill:#c4ebeb;fill-opacity:1;fill-rule:nonzero;stroke:none;stroke-width:0.1"
         d="m 252.188,140.722 c -0.877,0.677 -1.925,1.136 -2.985,1.318 -0.176,0.03 -0.356,0.052 -0.538,0.067 -0.005,0.103 -0.007,0.206 -0.008,0.31 l 8.633,8.635 c 0.665,0.349 1.416,0.518 2.188,0.518 0.948,0 1.927,-0.256 2.809,-0.748 l -10.099,-10.1 m 10.749,10.75 c -1.071,0.647 -2.285,0.984 -3.466,0.984 -0.281,0 -0.56,-0.019 -0.834,-0.057 l 0.942,0.942 c 0.341,-0.004 0.683,-0.024 1.022,-0.062 0.841,-0.098 1.673,-0.295 2.476,-0.592 0.255,-0.096 0.507,-0.203 0.755,-0.32 l -0.895,-0.895" />
      <path
         inkscape:connector-curvature="0"
         id="path1173"
         style="fill:#c4ebeb;fill-opacity:1;fill-rule:nonzero;stroke:none;stroke-width:0.1"
         d="m 249.63,138.165 v 0 c -0.155,0.329 -0.291,0.663 -0.409,1.002 -0.227,0.665 -0.387,1.348 -0.48,2.039 0.105,-0.012 0.209,-0.027 0.311,-0.045 0.886,-0.151 1.762,-0.525 2.502,-1.072 l -1.924,-1.924" />
      <path
         inkscape:connector-curvature="0"
         id="path1175"
         style="fill:#979898;fill-opacity:1;fill-rule:nonzero;stroke:none;stroke-width:0.1"
         d="m 249.221,139.167 c -0.243,0.701 -0.408,1.42 -0.494,2.148 v 0 c 0.005,-0.036 0.009,-0.073 0.014,-0.109 0.093,-0.691 0.253,-1.374 0.48,-2.039 v 0 m 13.856,13.52 c -0.803,0.297 -1.635,0.494 -2.476,0.592 0.844,-0.093 1.676,-0.291 2.476,-0.592" />
      <path
         inkscape:connector-curvature="0"
         id="path1177"
         style="fill:#f9dc06;fill-opacity:1;fill-rule:nonzero;stroke:none;stroke-width:0.1"
         d="m 291.323,115.653 -2.487,-2.492 -14.533,14.534 2.492,2.487 14.528,-14.529" />
      <path
         inkscape:connector-curvature="0"
         id="path1179"
         style="fill:#f5fcfc;fill-opacity:1;fill-rule:nonzero;stroke:none;stroke-width:0.1"
         d="m 259.858,131.95 c 1.305,0.535 2.424,1.685 2.522,3.398 l 0.873,0.873 c 0.44,-0.398 0.885,-0.746 1.332,-1.043 l -0.643,-0.644 c -0.227,0.157 -0.457,0.328 -0.69,0.516 -0.066,-0.65 -0.254,-1.229 -0.531,-1.737 l -1.143,-1.143 v 0 c -0.567,-0.126 -1.141,-0.199 -1.72,-0.22" />
      <path
         inkscape:connector-curvature="0"
         id="path1181"
         style="fill:#c4ebeb;fill-opacity:1;fill-rule:nonzero;stroke:none;stroke-width:0.1"
         d="m 259.485,131.943 c -0.166,0 -0.332,0.004 -0.499,0.012 l 3.394,3.393 c -0.098,-1.713 -1.217,-2.863 -2.522,-3.398 -0.124,-0.005 -0.248,-0.007 -0.373,-0.007 m 5.1,3.235 c -0.447,0.297 -0.892,0.645 -1.332,1.043 l 6.802,6.8 c 0.007,-0.143 0.01,-0.287 0.01,-0.43 0,-0.731 -0.082,-1.462 -0.239,-2.173 v 0 l -5.241,-5.24" />
      <path
         inkscape:connector-curvature="0"
         id="path1183"
         style="fill:#c4ebeb;fill-opacity:1;fill-rule:nonzero;stroke:none;stroke-width:0.1"
         d="m 262.721,133.313 c 0.277,0.508 0.465,1.087 0.531,1.737 0.233,-0.188 0.463,-0.359 0.69,-0.516 l -1.221,-1.221" />
    </g>
  </g>
</svg>
