<?xml version="1.0" encoding="UTF-8" standalone="no"?>
<svg
   xmlns:dc="http://purl.org/dc/elements/1.1/"
   xmlns:cc="http://creativecommons.org/ns#"
   xmlns:rdf="http://www.w3.org/1999/02/22-rdf-syntax-ns#"
   xmlns:svg="http://www.w3.org/2000/svg"
   xmlns="http://www.w3.org/2000/svg"
   xmlns:sodipodi="http://sodipodi.sourceforge.net/DTD/sodipodi-0.dtd"
   xmlns:inkscape="http://www.inkscape.org/namespaces/inkscape"
   sodipodi:docname="g2246.svg"
   inkscape:version="1.0beta2 (2b71d25, 2019-12-03)"
   id="svg2721"
   version="1.1"
   viewBox="0 0 29.655834 13.236509"
   height="13.236509mm"
   width="29.655834mm">
  <defs
     id="defs2715" />
  <sodipodi:namedview
     inkscape:window-maximized="0"
     inkscape:window-y="25"
     inkscape:window-x="0"
     inkscape:window-height="847"
     inkscape:window-width="1440"
     showgrid="false"
     inkscape:document-rotation="0"
     inkscape:current-layer="layer1"
     inkscape:document-units="mm"
     inkscape:cy="25.013882"
     inkscape:cx="56.042523"
     inkscape:zoom="0.35"
     inkscape:pageshadow="2"
     inkscape:pageopacity="0.0"
     borderopacity="1.0"
     bordercolor="#666666"
     pagecolor="#ffffff"
     id="base" />
  <metadata
     id="metadata2718">
    <rdf:RDF>
      <cc:Work
         rdf:about="">
        <dc:format>image/svg+xml</dc:format>
        <dc:type
           rdf:resource="http://purl.org/dc/dcmitype/StillImage" />
        <dc:title></dc:title>
      </cc:Work>
    </rdf:RDF>
  </metadata>
  <g
     transform="translate(-91.005416,-141.54841)"
     id="layer1"
     inkscape:groupmode="layer"
     inkscape:label="Layer 1">
    <g
       transform="matrix(0.35277777,0,0,-0.35277777,-21.253518,197.40753)"
       id="g2246">
      <path
         inkscape:connector-curvature="0"
         id="path1195"
         style="fill:#f9dc06;fill-opacity:1;fill-rule:nonzero;stroke:none;stroke-width:0.1"
         d="m 357.56,148.139 c 5.569,6.494 -8.352,15.879 -12.809,5.713 -2.337,4.121 -6.792,2.005 -7.126,-1.67 -2.897,1.706 -8.019,-0.67 -7.128,-5.718 -3.789,0.149 -7.277,-3.711 -6.609,-8.093 -3.266,0.371 -6.013,-2.896 -3.933,-7.202 -4.383,-4.239 0.156,-11.57 6.459,-8.168 0,0 -0.373,-2.043 6.607,-2.043 4.587,0 10.989,-0.138 10.989,-0.138 0,0 4.306,0.324 4.306,2.256 1.856,-2.674 11.36,-3.86 11.36,5.421 0,9.281 0,8.017 0,12.622 0,6.162 -2.116,7.02 -2.116,7.02" />
      <path
         inkscape:connector-curvature="0"
         id="path1197"
         style="fill:#f9dc06;fill-opacity:1;fill-rule:nonzero;stroke:none;stroke-width:0.1"
         d="m 362.931,148.139 c -5.568,6.494 8.354,15.879 12.81,5.713 2.337,4.121 6.792,2.005 7.126,-1.67 2.897,1.706 8.019,-0.67 7.129,-5.718 3.787,0.149 7.276,-3.711 6.608,-8.093 3.267,0.371 6.014,-2.896 3.934,-7.202 4.382,-4.239 -0.157,-11.57 -6.459,-8.168 0,0 0.373,-2.043 -6.608,-2.043 -4.587,0 -10.989,-0.138 -10.989,-0.138 0,0 -4.306,0.324 -4.306,2.256 -1.856,-2.674 -11.361,-3.86 -11.361,5.421 0,9.281 0,8.017 0,12.622 0,6.162 2.116,7.02 2.116,7.02" />
      <path
         inkscape:connector-curvature="0"
         id="path1199"
         style="fill:#f1511b;fill-opacity:1;fill-rule:nonzero;stroke:none;stroke-width:0.1"
         d="m 367.871,137.286 h -17.596 v 0.892 h 17.596 c 4.543,0 6.773,1.862 6.968,3.708 0.165,1.574 -1.126,3.472 -4.383,4.167 l 0.186,0.872 c 3.8,-0.811 5.291,-3.162 5.083,-5.132 -0.22,-2.078 -2.408,-4.507 -7.854,-4.507" />
      <path
         inkscape:connector-curvature="0"
         id="path1201"
         style="fill:#f1511b;fill-opacity:1;fill-rule:nonzero;stroke:none;stroke-width:0.1"
         d="m 367.871,146.753 c 1.31,0.322 2.961,0.94 4.024,1.672 l -1.002,-2.018 0.52,-2.192 c -0.871,0.954 -2.339,1.927 -3.542,2.538" />
      <path
         inkscape:connector-curvature="0"
         id="path1203"
         style="fill:#f1511b;fill-opacity:1;fill-rule:nonzero;stroke:none;stroke-width:0.1"
         d="m 366.646,130.62 h -0.892 v 11.622 h 0.892 V 130.62" />
      <path
         inkscape:connector-curvature="0"
         id="path1205"
         style="fill:#f1511b;fill-opacity:1;fill-rule:nonzero;stroke:none;stroke-width:0.1"
         d="m 366.201,127.931 c -0.47,1.266 -1.272,2.835 -2.118,3.809 l 2.118,-0.768 2.118,0.768 c -0.849,-0.974 -1.65,-2.543 -2.118,-3.809" />
      <path
         inkscape:connector-curvature="0"
         id="path1207"
         style="fill:#f1511b;fill-opacity:1;fill-rule:nonzero;stroke:none;stroke-width:0.1"
         d="m 349.487,126.111 c -1.618,0 -3.418,1 -4.24,3.4 l 0.842,0.289 c 0.67,-1.957 2.198,-3.048 3.882,-2.758 1.528,0.254 3.311,1.788 3.311,5.275 v 17.657 h 0.891 v -17.657 c 0,-4.044 -2.184,-5.844 -4.055,-6.155 -0.206,-0.033 -0.416,-0.051 -0.631,-0.051" />
      <path
         inkscape:connector-curvature="0"
         id="path1209"
         style="fill:#f1511b;fill-opacity:1;fill-rule:nonzero;stroke:none;stroke-width:0.1"
         d="m 345.263,132.317 c 0.682,-1.164 1.744,-2.57 2.749,-3.381 l -2.22,0.387 -1.953,-1.124 c 0.666,1.106 1.182,2.791 1.424,4.118" />
      <path
         inkscape:connector-curvature="0"
         id="path1211"
         style="fill:#f1511b;fill-opacity:1;fill-rule:nonzero;stroke:none;stroke-width:0.1"
         d="m 364.53,143.969 h -19.139 v 0.891 h 19.139 v -0.891" />
      <path
         inkscape:connector-curvature="0"
         id="path1213"
         style="fill:#f1511b;fill-opacity:1;fill-rule:nonzero;stroke:none;stroke-width:0.1"
         d="m 342.702,144.414 c 1.265,0.47 2.835,1.271 3.808,2.119 l -0.767,-2.119 0.767,-2.118 c -0.973,0.848 -2.543,1.649 -3.808,2.118" />
      <path
         inkscape:connector-curvature="0"
         id="path1215"
         style="fill:#f1511b;fill-opacity:1;fill-rule:nonzero;stroke:none;stroke-width:0.1"
         d="m 337.779,128.969 -0.885,0.102 c 0.856,7.359 5.449,11.58 12.601,11.58 v -0.891 c -3.907,0 -10.623,-1.402 -11.716,-10.791" />
      <path
         inkscape:connector-curvature="0"
         id="path1217"
         style="fill:#f1511b;fill-opacity:1;fill-rule:nonzero;stroke:none;stroke-width:0.1"
         d="m 337.187,126.331 c -0.385,1.293 -1.081,2.912 -1.863,3.939 l 2.064,-0.904 2.163,0.625 c -0.91,-0.915 -1.813,-2.429 -2.364,-3.66" />
      <path
         inkscape:connector-curvature="0"
         id="path1219"
         style="fill:#f1511b;fill-opacity:1;fill-rule:nonzero;stroke:none;stroke-width:0.1"
         d="m 371.718,133.74 v 0.892 c 3.907,0 10.622,1.401 11.717,10.791 l 0.886,-0.103 c -0.858,-7.359 -5.451,-11.58 -12.603,-11.58" />
      <path
         inkscape:connector-curvature="0"
         id="path1221"
         style="fill:#f1511b;fill-opacity:1;fill-rule:nonzero;stroke:none;stroke-width:0.1"
         d="m 384.027,148.06 c 0.385,-1.294 1.081,-2.912 1.863,-3.939 l -2.063,0.904 -2.164,-0.625 c 0.91,0.915 1.813,2.429 2.364,3.66" />
      <path
         inkscape:connector-curvature="0"
         id="path1223"
         style="fill:#f1511b;fill-opacity:1;fill-rule:nonzero;stroke:none;stroke-width:0.1"
         d="m 329.984,137.3 -0.629,0.629 11.133,11.132 0.63,-0.63 -11.134,-11.131" />
      <path
         inkscape:connector-curvature="0"
         id="path1225"
         style="fill:#f1511b;fill-opacity:1;fill-rule:nonzero;stroke:none;stroke-width:0.1"
         d="m 342.704,150.648 c -0.563,-1.226 -1.107,-2.902 -1.195,-4.19 l -0.956,2.04 -2.04,0.956 c 1.288,0.088 2.964,0.631 4.191,1.194" />
      <path
         inkscape:connector-curvature="0"
         id="path1227"
         style="fill:#f1511b;fill-opacity:1;fill-rule:nonzero;stroke:none;stroke-width:0.1"
         d="m 328.296,127.347 -0.657,0.602 c 6.283,6.88 7.038,11.495 2.608,15.928 l 0.628,0.63 c 4.796,-4.796 4.025,-9.928 -2.579,-17.16" />
      <path
         inkscape:connector-curvature="0"
         id="path1229"
         style="fill:#f1511b;fill-opacity:1;fill-rule:nonzero;stroke:none;stroke-width:0.1"
         d="m 326.105,125.704 c 0.52,1.245 1.004,2.939 1.047,4.229 l 1.026,-2.005 2.072,-0.884 c -1.283,-0.133 -2.94,-0.735 -4.145,-1.34" />
      <path
         inkscape:connector-curvature="0"
         id="path1231"
         style="fill:#f1511b;fill-opacity:1;fill-rule:nonzero;stroke:none;stroke-width:0.1"
         d="m 375.642,127.2 c -2.031,0 -3.902,0.872 -5.654,2.625 l 0.63,0.63 c 2.625,-2.625 5.427,-3.049 8.815,-1.346 3.163,1.594 6.578,4.883 10.394,8.698 l 0.63,-0.629 c -3.872,-3.872 -7.342,-7.21 -10.624,-8.864 -1.472,-0.742 -2.866,-1.114 -4.191,-1.114" />
      <path
         inkscape:connector-curvature="0"
         id="path1233"
         style="fill:#f1511b;fill-opacity:1;fill-rule:nonzero;stroke:none;stroke-width:0.1"
         d="m 392.041,139.396 c -0.575,-1.22 -1.134,-2.891 -1.236,-4.178 l -0.936,2.049 -2.031,0.976 c 1.289,0.075 2.971,0.602 4.203,1.153" />
      <path
         inkscape:connector-curvature="0"
         id="path1235"
         style="fill:#f1511b;fill-opacity:1;fill-rule:nonzero;stroke:none;stroke-width:0.1"
         d="m 391.06,126.299 -14.481,14.482 0.629,0.63 14.482,-14.483 -0.63,-0.629" />
      <path
         inkscape:connector-curvature="0"
         id="path1237"
         style="fill:#f1511b;fill-opacity:1;fill-rule:nonzero;stroke:none;stroke-width:0.1"
         d="m 393.276,124.712 c -1.227,0.563 -2.902,1.106 -4.191,1.195 l 2.04,0.956 0.957,2.039 c 0.087,-1.287 0.631,-2.963 1.194,-4.19" />
    </g>
  </g>
</svg>
