<?xml version="1.0" encoding="UTF-8"?>
<svg width="21.518mm" height="21.589mm" version="1.1" viewBox="0 0 21.518 21.589" xmlns="http://www.w3.org/2000/svg" xmlns:cc="http://creativecommons.org/ns#" xmlns:dc="http://purl.org/dc/elements/1.1/" xmlns:rdf="http://www.w3.org/1999/02/22-rdf-syntax-ns#">
 <metadata>
  <rdf:RDF>
   <cc:Work rdf:about="">
    <dc:format>image/svg+xml</dc:format>
    <dc:type rdf:resource="http://purl.org/dc/dcmitype/StillImage"/>
    <dc:title/>
   </cc:Work>
  </rdf:RDF>
 </metadata>
 <g transform="translate(-234.17 -150.98)">
  <g transform="matrix(.35278 0 0 -.35278 233.3 251.3)">
   <path d="m31.971 276.64c0 8.083-9.6188 10.326-13.263 4.314-2.8348 1.435-6.6824-1.269-5.4676-4.314-3.7461 0.724-9.7195-3.405-7.2894-9.687-4.3547-0.807-4.4555-7.269-1.2156-8.615-2.8348-1.345-2.1262-6.552 1.9234-6.372-3.2391-2.242-1.8223-9.692 3.6457-9.87-3.2402-2.334-0.40547-6.821 2.9359-4.937-3.0375-3.679 0.3043-8.869 6.1762-7.621 0.4051-7.814 12.555-9.146 12.555 0v47.102" fill="#53c5c7"/>
   <g fill="#2d778f">
    <path d="m13.983 264.02h-0.7637v7.514l8.55 8.551 0.5407-0.541-8.327-8.327v-7.197"/>
    <path d="m17.259 264.02h-0.7641v6.359l4.8641 4.865 0.541-0.54-4.641-4.641v-6.043"/>
    <path d="m28.487 256.72-6.9246 6.925h-11.815v0.764h12.132l7.1488-7.149-0.541-0.54"/>
    <path d="m25.796 226.75-0.5406 0.539 3.1211 3.121v38.309h0.7636v-38.626l-3.3441-3.343"/>
    <path d="m25.526 259.84h-11.002v0.763h11.002v-0.763"/>
    <path d="m20.124 246.87h-0.764v7.725l5.8957 5.896 0.5406-0.54-5.6723-5.673v-7.408"/>
    <path d="m16.14 243.45h-0.7636v10.961l6.0738 6.075 0.5406-0.54-5.8508-5.852v-10.644"/>
    <path d="m19.727 264.02h-0.7637v4.807l7.6039 7.605 0.5406-0.541-7.3808-7.381v-4.49"/>
    <path d="m28.488 249.42-3.7555 3.755 0.5403 0.541 3.755-3.755-0.5398-0.541"/>
    <path d="m22.294 238.3-0.5403 0.54 6.7336 6.735 0.541-0.54-6.7343-6.735"/>
    <path d="m28.758 247.91h-4.7449v0.764h4.7449v-0.764"/>
    <path d="m28.758 272.04h-5.6668v0.764h5.6668v-0.764"/>
    <path d="m22.11 234.35h-4.9746v0.763h4.6582l6.6937 6.696 0.541-0.54-6.9183-6.919"/>
    <path d="m15.488 246.6-6.4707 6.47v4.779h0.76406v-4.461l6.2461-6.247-0.5394-0.541"/>
    <path d="m23.186 279.82c0-0.633-0.5132-1.146-1.1464-1.146-0.6328 0-1.1465 0.513-1.1465 1.146 0 0.634 0.5137 1.147 1.1465 1.147 0.6332 0 1.1464-0.513 1.1464-1.147"/>
    <path d="m9.8945 264.02c0-0.633-0.51328-1.147-1.1469-1.147-0.63282 0-1.1465 0.514-1.1465 1.147s0.51367 1.146 1.1465 1.146c0.63359 0 1.1469-0.513 1.1469-1.146"/>
    <path d="m27.984 276.16c0-0.633-0.5133-1.146-1.1469-1.146-0.6324 0-1.1465 0.513-1.1465 1.146 0 0.634 0.5141 1.148 1.1465 1.148 0.6336 0 1.1469-0.514 1.1469-1.148"/>
    <path d="m29.906 267.72c0-0.634-0.5145-1.147-1.1473-1.147-0.6332 0-1.1469 0.513-1.1469 1.147 0 0.632 0.5137 1.146 1.1469 1.146 0.6328 0 1.1473-0.514 1.1473-1.146"/>
    <path d="m15.671 260.22c0-0.633-0.5133-1.146-1.1473-1.146-0.6328 0-1.1461 0.513-1.1461 1.146 0 0.634 0.5133 1.146 1.1461 1.146 0.634 0 1.1473-0.512 1.1473-1.146"/>
    <path d="m10.547 257.85c0-0.633-0.5141-1.146-1.1477-1.146-0.63203 0-1.1457 0.513-1.1457 1.146s0.51367 1.146 1.1457 1.146c0.63358 0 1.1477-0.513 1.1477-1.146"/>
    <path d="m16.904 243.45c0-0.633-0.5137-1.146-1.1461-1.146-0.6336 0-1.1473 0.513-1.1473 1.146s0.5137 1.146 1.1473 1.146c0.6324 0 1.1461-0.513 1.1461-1.146"/>
    <path d="m20.889 246.87c0-0.633-0.5149-1.147-1.1469-1.147-0.6328 0-1.1473 0.514-1.1473 1.147s0.5145 1.146 1.1473 1.146c0.632 0 1.1469-0.513 1.1469-1.146"/>
    <path d="m26.149 253.45c0-0.632-0.514-1.146-1.1469-1.146-0.6328 0-1.146 0.514-1.146 1.146 0 0.634 0.5132 1.147 1.146 1.147 0.6329 0 1.1469-0.513 1.1469-1.147"/>
    <path d="m23.17 238.56c0-0.633-0.5132-1.146-1.1461-1.146-0.6332 0-1.1468 0.513-1.1468 1.146 0 0.634 0.5136 1.146 1.1468 1.146 0.6329 0 1.1461-0.512 1.1461-1.146"/>
    <path d="m18.282 234.74c0-0.633-0.5136-1.146-1.1464-1.146-0.6332 0-1.1465 0.513-1.1465 1.146 0 0.634 0.5133 1.146 1.1465 1.146 0.6328 0 1.1464-0.512 1.1464-1.146"/>
    <path d="m26.672 227.02c0-0.633-0.5141-1.146-1.1465-1.146-0.6332 0-1.1469 0.513-1.1469 1.146 0 0.634 0.5137 1.146 1.1469 1.146 0.6324 0 1.1465-0.512 1.1465-1.146"/>
   </g>
   <path d="m33.973 276.64c0 8.083 9.6188 10.326 13.263 4.314 2.8352 1.435 6.6825-1.269 5.468-4.314 3.7461 0.724 9.7195-3.405 7.2895-9.687 4.3542-0.807 4.4554-7.269 1.2152-8.615 2.8348-1.345 2.1265-6.552-1.9235-6.372 3.2395-2.242 1.8223-9.692-3.6453-9.87 3.2403-2.334 0.4051-6.821-2.9359-4.937 3.0375-3.679-0.3043-8.869-6.1766-7.621-0.4047-7.814-12.555-9.146-12.555 0v47.102" fill="#53c5c7"/>
   <g fill="#2d778f">
    <path d="m51.961 264.02h0.7637v7.514l-8.5496 8.551-0.5406-0.541 8.3265-8.327v-7.197"/>
    <path d="m48.686 264.02h0.7637v6.359l-4.8637 4.865-0.541-0.54 4.641-4.641v-6.043"/>
    <path d="m37.457 256.72 6.9246 6.925h11.815v0.764h-12.132l-7.1488-7.149 0.541-0.54"/>
    <path d="m40.148 226.75 0.5407 0.539-3.1211 3.121v38.309h-0.7637v-38.626l3.3441-3.343"/>
    <path d="m40.418 259.84h11.002v0.763h-11.002v-0.763"/>
    <path d="m45.82 246.87h0.7641v7.725l-5.8953 5.896-0.5407-0.54 5.6719-5.673v-7.408"/>
    <path d="m49.804 243.45h0.7637v10.961l-6.0739 6.075-0.541-0.54 5.8512-5.852v-10.644"/>
    <path d="m46.218 264.02h0.7633v4.807l-7.604 7.605-0.5406-0.541 7.3813-7.381v-4.49"/>
    <path d="m37.457 249.42 3.7551 3.755-0.5398 0.541-3.7555-3.755 0.5402-0.541"/>
    <path d="m43.65 238.3 0.5406 0.54-6.734 6.735-0.541-0.54 6.7344-6.735"/>
    <path d="m37.186 247.91h4.7454v0.764h-4.7454v-0.764"/>
    <path d="m37.186 272.04h5.6672v0.764h-5.6672v-0.764"/>
    <path d="m43.834 234.35h4.9746v0.763h-4.6582l-6.6938 6.696-0.541-0.54 6.9184-6.919"/>
    <path d="m50.456 246.6 6.4707 6.47v4.779h-0.7645v-4.461l-6.2461-6.247 0.5399-0.541"/>
    <path d="m42.759 279.82c0-0.633 0.5129-1.146 1.1465-1.146 0.6328 0 1.1465 0.513 1.1465 1.146 0 0.634-0.5137 1.147-1.1465 1.147-0.6336 0-1.1465-0.513-1.1465-1.147"/>
    <path d="m56.05 264.02c0-0.633 0.5133-1.147 1.1473-1.147 0.6328 0 1.1465 0.514 1.1465 1.147s-0.5137 1.146-1.1465 1.146c-0.634 0-1.1473-0.513-1.1473-1.146"/>
    <path d="m37.96 276.16c0-0.633 0.5128-1.146 1.1468-1.146 0.6325 0 1.1465 0.513 1.1465 1.146 0 0.634-0.514 1.148-1.1465 1.148-0.634 0-1.1468-0.514-1.1468-1.148"/>
    <path d="m36.039 267.72c0-0.634 0.514-1.147 1.1468-1.147 0.6332 0 1.1469 0.513 1.1469 1.147 0 0.632-0.5137 1.146-1.1469 1.146-0.6328 0-1.1468-0.514-1.1468-1.146"/>
    <path d="m50.273 260.22c0-0.633 0.5133-1.146 1.1469-1.146 0.6328 0 1.1461 0.513 1.1461 1.146 0 0.634-0.5133 1.146-1.1461 1.146-0.6336 0-1.1469-0.512-1.1469-1.146"/>
    <path d="m55.398 257.85c0-0.633 0.514-1.146 1.1472-1.146 0.6324 0 1.1461 0.513 1.1461 1.146s-0.5137 1.146-1.1461 1.146c-0.6332 0-1.1472-0.513-1.1472-1.146"/>
    <path d="m49.04 243.45c0-0.633 0.5137-1.146 1.1461-1.146 0.634 0 1.1477 0.513 1.1477 1.146s-0.5137 1.146-1.1477 1.146c-0.6324 0-1.1461-0.513-1.1461-1.146"/>
    <path d="m45.056 246.87c0-0.633 0.5144-1.147 1.1468-1.147 0.6328 0 1.1469 0.514 1.1469 1.147s-0.5141 1.146-1.1469 1.146c-0.6324 0-1.1468-0.513-1.1468-1.146"/>
    <path d="m39.795 253.45c0-0.632 0.5141-1.146 1.1469-1.146s1.1461 0.514 1.1461 1.146c0 0.634-0.5133 1.147-1.1461 1.147s-1.1469-0.513-1.1469-1.147"/>
    <path d="m42.775 238.56c0-0.633 0.5133-1.146 1.1461-1.146 0.6332 0 1.1469 0.513 1.1469 1.146 0 0.634-0.5137 1.146-1.1469 1.146-0.6328 0-1.1461-0.512-1.1461-1.146"/>
    <path d="m47.662 234.74c0-0.633 0.5137-1.146 1.1465-1.146 0.6336 0 1.1465 0.513 1.1465 1.146 0 0.634-0.5129 1.146-1.1465 1.146-0.6328 0-1.1465-0.512-1.1465-1.146"/>
    <path d="m39.272 227.02c0-0.633 0.514-1.146 1.1465-1.146 0.6336 0 1.1468 0.513 1.1468 1.146 0 0.634-0.5132 1.146-1.1468 1.146-0.6325 0-1.1465-0.512-1.1465-1.146"/>
   </g>
  </g>
 </g>
</svg>
