<?xml version="1.0" encoding="UTF-8" standalone="no"?>
<svg
   xmlns:dc="http://purl.org/dc/elements/1.1/"
   xmlns:cc="http://creativecommons.org/ns#"
   xmlns:rdf="http://www.w3.org/1999/02/22-rdf-syntax-ns#"
   xmlns:svg="http://www.w3.org/2000/svg"
   xmlns="http://www.w3.org/2000/svg"
   xmlns:sodipodi="http://sodipodi.sourceforge.net/DTD/sodipodi-0.dtd"
   xmlns:inkscape="http://www.inkscape.org/namespaces/inkscape"
   sodipodi:docname="g2314.svg"
   inkscape:version="1.0beta2 (2b71d25, 2019-12-03)"
   id="svg2033"
   version="1.1"
   viewBox="0 0 26.463747 24.352602"
   height="24.352602mm"
   width="26.463747mm">
  <defs
     id="defs2027" />
  <sodipodi:namedview
     inkscape:window-maximized="0"
     inkscape:window-y="25"
     inkscape:window-x="0"
     inkscape:window-height="847"
     inkscape:window-width="1440"
     showgrid="false"
     inkscape:document-rotation="0"
     inkscape:current-layer="layer1"
     inkscape:document-units="mm"
     inkscape:cy="-76.836496"
     inkscape:cx="-7.1326273"
     inkscape:zoom="0.35"
     inkscape:pageshadow="2"
     inkscape:pageopacity="0.0"
     borderopacity="1.0"
     bordercolor="#666666"
     pagecolor="#ffffff"
     id="base" />
  <metadata
     id="metadata2030">
    <rdf:RDF>
      <cc:Work
         rdf:about="">
        <dc:format>image/svg+xml</dc:format>
        <dc:type
           rdf:resource="http://purl.org/dc/dcmitype/StillImage" />
        <dc:title></dc:title>
      </cc:Work>
    </rdf:RDF>
  </metadata>
  <g
     transform="translate(-107.72051,-168.49632)"
     id="layer1"
     inkscape:groupmode="layer"
     inkscape:label="Layer 1">
    <g
       transform="matrix(0.35277777,0,0,-0.35277777,70.842945,270.19404)"
       id="g2314">
      <path
         inkscape:connector-curvature="0"
         id="path933"
         style="fill:#f68912;fill-opacity:1;fill-rule:nonzero;stroke:none;stroke-width:0.1"
         d="m 166.407,237.384 c -1.437,0.66 -3.073,0.55 -4.27,-0.288 l -0.465,0.664 c 1.432,1.002 3.375,1.14 5.073,0.359 1.484,-0.682 2.449,-1.91 2.583,-3.284 l -0.806,-0.079 c -0.106,1.085 -0.897,2.067 -2.115,2.628 z m 11.685,-9.427 -0.211,0.204 0.128,0.264 c 0.792,1.64 0.818,3.263 0.071,4.453 -0.62,0.988 -1.711,1.559 -2.913,1.53 -0.182,-1.978 -1.673,-3.079 -2.77,-3.616 2.345,-1.068 2.44,-3.773 2.402,-4.67 l -0.811,-0.034 c 0.049,1.172 -0.142,3.79 -2.903,4.258 l -1.933,0.328 1.906,0.465 c 0.128,0.031 2.979,0.758 3.302,3.2 l -0.043,-0.005 0.08,0.523 c 0.27,1.769 -0.251,3.57 -1.427,4.94 -1.068,1.242 -2.521,1.955 -3.988,1.955 l -0.679,-0.023 0.088,0.494 c 0.319,1.813 -0.296,3.007 -0.869,3.69 -0.805,0.959 -2.034,1.532 -3.287,1.532 -0.634,0 -1.229,-0.153 -1.72,-0.443 l -0.551,-0.325 -0.058,0.637 c -0.16,1.764 -1.541,3.199 -3.078,3.199 -1.032,0 -1.971,-0.655 -2.645,-1.843 l -0.399,-0.703 -0.325,0.74 c -1.084,2.475 -2.952,3.838 -5.257,3.838 -2.574,0 -5.307,-1.725 -6.36,-4.013 -0.739,-1.61 -0.509,-3.241 0.652,-4.593 l 0.366,-0.427 -0.522,-0.212 c -0.006,-0.003 -1.671,-0.847 -1.671,-6.007 v -8.973 c 0.37,1.165 0.9,2.166 1.599,2.983 1.237,1.447 2.951,2.244 4.828,2.244 l 0.186,-0.008 c 0.329,2.712 1.853,3.726 2.781,4.081 0.793,0.303 1.677,0.351 2.53,0.191 1.834,2.556 0.678,4.409 0.083,5.093 -1.132,1.302 -2.968,1.795 -4.182,1.122 l -0.393,0.709 c 1.536,0.848 3.813,0.28 5.186,-1.3 1.435,-1.651 1.46,-3.805 0.125,-5.841 0.68,-0.247 1.314,-0.634 1.829,-1.152 0.866,-0.869 1.251,-1.964 1.12,-3.107 1.849,1.045 3.82,1.166 5.531,0.308 1.992,-0.999 3.279,-3.17 3.279,-5.53 0,-2.628 -2.003,-4.319 -3.981,-4.629 -0.23,-0.036 -0.455,-0.054 -0.674,-0.054 -1.606,0 -2.913,0.944 -3.425,2.534 l 0.77,0.248 c 0.551,-1.706 2.017,-2.116 3.203,-1.928 1.639,0.257 3.297,1.655 3.297,3.829 0,2.057 -1.111,3.943 -2.833,4.806 -1.727,0.867 -3.704,0.579 -5.565,-0.811 l -1.127,-0.841 0.507,1.312 c 0.634,1.637 -0.152,2.765 -0.676,3.291 -1.104,1.109 -2.919,1.528 -4.315,0.993 -1.267,-0.483 -2.058,-1.682 -2.273,-3.393 2.688,-0.395 4.739,-2.372 4.739,-4.75 h -0.809 c 0,2.215 -2.204,4.017 -4.913,4.017 -1.636,0 -3.132,-0.696 -4.212,-1.96 -1.322,-1.546 -2.023,-3.938 -2.027,-6.917 0.83,-3.964 4.179,-4.31 5.305,-4.31 1.714,0 3.476,0.675 4.098,1.571 l 0.737,1.063 v -1.294 c 0,-1.118 2.586,-1.57 3.521,-1.644 0.38,0.008 5.974,0.124 9.979,0.124 3.816,0 5.036,0.674 5.423,1.075 0.185,0.191 0.182,0.325 0.182,0.331 l -0.152,0.829 0.746,-0.426 c 0.917,-0.495 1.824,-0.746 2.695,-0.746 1.718,0 3.192,1.003 3.844,2.616 0.683,1.687 0.245,3.568 -1.141,4.908" />
      <path
         inkscape:connector-curvature="0"
         id="path935"
         style="fill:#53c5c7;fill-opacity:1;fill-rule:nonzero;stroke:none;stroke-width:0.1"
         d="m 175.173,266.164 c 0,6.151 -7.707,11.137 -17.214,11.137 -9.507,0 -17.214,-4.986 -17.214,-11.137 0,-6.151 7.707,-11.137 17.214,-11.137 2.02,0 3.868,0.206 5.668,0.62 2.748,-2.896 2.245,-5.912 -0.32,-9.895 0,0 8.557,5.677 5.606,11.821 3.824,2.042 6.26,5.132 6.26,8.591" />
      <path
         inkscape:connector-curvature="0"
         id="path937"
         style="fill:#f68912;fill-opacity:1;fill-rule:nonzero;stroke:none;stroke-width:0.1"
         d="m 115.563,234.756 -0.806,0.079 c 0.134,1.374 1.099,2.602 2.583,3.284 1.698,0.781 3.641,0.643 5.073,-0.359 l -0.465,-0.664 c -1.197,0.838 -2.833,0.948 -4.27,0.288 -1.219,-0.561 -2.009,-1.543 -2.115,-2.628 z m -10.711,-11.707 c 0.652,-1.613 2.126,-2.616 3.844,-2.616 0.871,0 1.778,0.251 2.695,0.746 l 0.746,0.426 -0.152,-0.829 c 0,-0.006 -0.003,-0.14 0.182,-0.331 0.387,-0.401 1.607,-1.075 5.423,-1.075 4.005,0 9.599,-0.116 9.979,-0.124 0.935,0.074 3.521,0.526 3.521,1.644 v 1.294 l 0.737,-1.063 c 0.622,-0.896 2.384,-1.571 4.098,-1.571 1.126,0 4.475,0.346 5.304,4.31 -0.003,2.979 -0.704,5.371 -2.026,6.917 -1.08,1.264 -2.576,1.96 -4.212,1.96 -2.709,0 -4.913,-1.802 -4.913,-4.017 h -0.809 c 0,2.378 2.051,4.355 4.739,4.75 -0.215,1.711 -1.006,2.91 -2.273,3.393 -1.396,0.535 -3.211,0.116 -4.315,-0.993 -0.524,-0.526 -1.31,-1.654 -0.676,-3.291 l 0.507,-1.312 -1.127,0.841 c -1.861,1.39 -3.838,1.678 -5.565,0.811 -1.722,-0.863 -2.833,-2.749 -2.833,-4.806 0,-2.174 1.658,-3.572 3.297,-3.829 1.185,-0.188 2.652,0.222 3.203,1.928 l 0.77,-0.248 c -0.512,-1.59 -1.819,-2.534 -3.425,-2.534 -0.219,0 -0.445,0.018 -0.674,0.054 -1.978,0.31 -3.981,2.001 -3.981,4.629 0,2.36 1.287,4.531 3.279,5.53 1.711,0.858 3.682,0.737 5.531,-0.308 -0.131,1.143 0.254,2.238 1.12,3.107 0.515,0.518 1.149,0.905 1.829,1.152 -1.335,2.036 -1.31,4.19 0.125,5.841 1.373,1.58 3.65,2.148 5.186,1.3 l -0.393,-0.709 c -1.214,0.673 -3.05,0.18 -4.182,-1.122 -0.595,-0.684 -1.751,-2.537 0.083,-5.093 0.853,0.16 1.736,0.112 2.53,-0.191 0.928,-0.355 2.452,-1.369 2.781,-4.081 l 0.186,0.008 c 1.877,0 3.591,-0.797 4.828,-2.244 0.699,-0.817 1.229,-1.818 1.599,-2.983 v 8.973 c 0,5.16 -1.665,6.004 -1.671,6.007 l -0.522,0.212 0.366,0.427 c 1.16,1.352 1.391,2.983 0.652,4.593 -1.053,2.288 -3.786,4.013 -6.36,4.013 -2.305,0 -4.173,-1.363 -5.258,-3.838 l -0.324,-0.74 -0.399,0.703 c -0.674,1.188 -1.613,1.843 -2.645,1.843 -1.537,0 -2.918,-1.435 -3.078,-3.199 l -0.058,-0.637 -0.551,0.325 c -0.491,0.29 -1.086,0.443 -1.72,0.443 -1.253,0 -2.482,-0.573 -3.287,-1.532 -0.573,-0.683 -1.188,-1.877 -0.869,-3.69 l 0.088,-0.494 -0.679,0.023 c -1.467,0 -2.92,-0.713 -3.988,-1.955 -1.177,-1.37 -1.697,-3.171 -1.427,-4.94 l 0.08,-0.523 -0.043,0.005 c 0.323,-2.442 3.174,-3.169 3.302,-3.2 l 1.906,-0.465 -1.933,-0.328 c -2.761,-0.468 -2.952,-3.086 -2.903,-4.258 l -0.811,0.034 c -0.038,0.897 0.057,3.602 2.402,4.67 -1.097,0.537 -2.588,1.638 -2.77,3.616 -1.202,0.029 -2.293,-0.542 -2.913,-1.53 -0.747,-1.19 -0.721,-2.813 0.071,-4.453 l 0.128,-0.264 -0.211,-0.204 c -1.386,-1.34 -1.824,-3.221 -1.141,-4.908" />
      <path
         inkscape:connector-curvature="0"
         id="path939"
         style="fill:#2d778f;fill-opacity:1;fill-rule:nonzero;stroke:none;stroke-width:0.1"
         d="m 151.472,267.254 h 3.791 v -3.986 h -3.791 v 3.986" />
      <path
         inkscape:connector-curvature="0"
         id="path941"
         style="fill:#2d778f;fill-opacity:1;fill-rule:nonzero;stroke:none;stroke-width:0.1"
         d="m 157.401,267.254 h 3.79 v -3.986 h -3.79 v 3.986" />
      <path
         inkscape:connector-curvature="0"
         id="path943"
         style="fill:#2d778f;fill-opacity:1;fill-rule:nonzero;stroke:none;stroke-width:0.1"
         d="m 163.33,267.254 h 3.791 v -3.986 h -3.791 v 3.986" />
      <path
         inkscape:connector-curvature="0"
         id="path945"
         style="fill:#f9dc06;fill-opacity:1;fill-rule:nonzero;stroke:none;stroke-width:0.1"
         d="m 133.471,279.098 h -20.989 c -2.228,0 -4.05,-1.823 -4.05,-4.05 v -13.769 c 0,-2.228 1.822,-4.05 4.05,-4.05 h 15.319 c 2.43,-1.621 3.645,-4.085 2.296,-8.169 0,0 5.804,4.084 3.306,8.169 h 0.068 c 2.228,0 4.05,1.822 4.05,4.05 v 13.769 c 0,2.227 -1.822,4.05 -4.05,4.05" />
      <path
         inkscape:connector-curvature="0"
         id="path947"
         style="fill:#f1511b;fill-opacity:1;fill-rule:nonzero;stroke:none;stroke-width:0.1"
         d="m 157.816,273.157 c 0,8.351 -6.769,15.12 -15.119,15.12 -8.35,0 -15.119,-6.769 -15.119,-15.12 0,-8.35 6.769,-15.118 15.119,-15.118 0.196,0 0.3,-0.008 0.494,0 l -2.43,-9.721 10.665,12.497 c 3.879,2.737 6.39,7.235 6.39,12.342" />
      <path
         inkscape:connector-curvature="0"
         id="path949"
         style="fill:#732c18;fill-opacity:1;fill-rule:nonzero;stroke:none;stroke-width:0.1"
         d="m 139.331,267.254 h 5.783 v -3.986 h -5.783 z m 0,1.142 v 1.312 c 0,0.68 0.109,1.263 0.328,1.749 0.219,0.487 0.498,0.908 0.839,1.264 0.34,0.356 0.7,0.668 1.081,0.936 0.38,0.267 0.741,0.526 1.081,0.777 0.34,0.251 0.62,0.511 0.839,0.778 0.218,0.267 0.328,0.579 0.328,0.935 0,0.276 -0.106,0.507 -0.316,0.693 -0.211,0.186 -0.592,0.279 -1.142,0.279 -0.471,0 -0.94,-0.045 -1.41,-0.133 -0.47,-0.09 -0.923,-0.203 -1.361,-0.341 -0.437,-0.137 -0.854,-0.291 -1.251,-0.461 -0.397,-0.171 -0.765,-0.337 -1.106,-0.498 l -1.287,4.957 c 0.437,0.21 0.926,0.425 1.469,0.644 0.543,0.219 1.134,0.417 1.774,0.595 0.64,0.178 1.333,0.328 2.078,0.45 0.745,0.121 1.531,0.182 2.357,0.182 1.085,0 2.066,-0.134 2.94,-0.401 0.875,-0.268 1.616,-0.64 2.224,-1.118 0.607,-0.478 1.073,-1.037 1.397,-1.676 0.324,-0.641 0.486,-1.333 0.486,-2.078 0,-0.956 -0.137,-1.734 -0.413,-2.333 -0.276,-0.6 -0.616,-1.105 -1.02,-1.519 -0.406,-0.413 -0.851,-0.769 -1.337,-1.069 -0.486,-0.3 -0.932,-0.616 -1.337,-0.948 -0.405,-0.332 -0.745,-0.729 -1.02,-1.19 -0.276,-0.462 -0.413,-1.057 -0.413,-1.786 h -5.808" />
      <path
         inkscape:connector-curvature="0"
         id="path951"
         style="fill:#c56e1c;fill-opacity:1;fill-rule:nonzero;stroke:none;stroke-width:0.1"
         d="m 119.36,263.107 h 4.678 v -3.078 h -4.678 z m -0.668,11.641 v 1.035 h 6.055 v -1.035 l -0.952,-10.953 h -4.171 l -0.932,10.953" />
    </g>
  </g>
</svg>
