<?xml version="1.0" encoding="UTF-8"?>
<svg width="24.186mm" height="16.839mm" version="1.1" viewBox="0 0 24.186 16.839" xmlns="http://www.w3.org/2000/svg" xmlns:cc="http://creativecommons.org/ns#" xmlns:dc="http://purl.org/dc/elements/1.1/" xmlns:rdf="http://www.w3.org/1999/02/22-rdf-syntax-ns#">
 <metadata>
  <rdf:RDF>
   <cc:Work rdf:about="">
    <dc:format>image/svg+xml</dc:format>
    <dc:type rdf:resource="http://purl.org/dc/dcmitype/StillImage"/>
    <dc:title/>
   </cc:Work>
  </rdf:RDF>
 </metadata>
 <g transform="translate(-88.449 -120.85)">
  <g transform="matrix(.35278 0 0 -.35278 11.379 218.79)">
   <path d="m243.3 246.19c0-2.237-1.812-4.051-4.049-4.051-2.238 0-4.05 1.814-4.05 4.051 0 2.236 1.812 4.049 4.05 4.049 2.237 0 4.049-1.813 4.049-4.049" fill="#f68912"/>
   <path d="m230.08 254.29c0-1.119-0.908-2.026-2.026-2.026-1.119 0-2.025 0.907-2.025 2.026 0 1.118 0.906 2.025 2.025 2.025 1.118 0 2.026-0.907 2.026-2.025" fill="#53c5c7"/>
   <path d="m220.9 252.94c0-0.671-0.544-1.215-1.216-1.215-0.67 0-1.215 0.544-1.215 1.215 0 0.672 0.545 1.215 1.215 1.215 0.672 0 1.216-0.543 1.216-1.215" fill="#f9dc06"/>
   <path d="m244.83 265.84c0-1.119-0.906-2.025-2.025-2.025-1.118 0-2.024 0.906-2.024 2.025 0 1.118 0.906 2.024 2.024 2.024 1.119 0 2.025-0.906 2.025-2.024" fill="#2d778f"/>
   <path d="m272.25 238.5c0-1.566-1.268-2.835-2.834-2.835s-2.835 1.269-2.835 2.835 1.269 2.836 2.835 2.836 2.834-1.27 2.834-2.836" fill="#f9dc06"/>
   <path d="m228.46 242.14c0-0.671-0.544-1.214-1.215-1.214-0.672 0-1.215 0.543-1.215 1.214 0 0.672 0.543 1.216 1.215 1.216 0.671 0 1.215-0.544 1.215-1.216" fill="#2d778f"/>
   <path d="m246.05 236.94c0-0.671-0.545-1.215-1.216-1.215-0.669 0-1.214 0.544-1.214 1.215 0 0.672 0.545 1.215 1.214 1.215 0.671 0 1.216-0.543 1.216-1.215" fill="#87ce26"/>
   <path d="m252.53 244.57c0-0.671-0.545-1.214-1.214-1.214-0.672 0-1.217 0.543-1.217 1.214 0 0.672 0.545 1.215 1.217 1.215 0.669 0 1.214-0.543 1.214-1.215" fill="#f1511b"/>
   <path d="m237.63 261.11c0-0.671-0.543-1.215-1.215-1.215-0.67 0-1.214 0.544-1.214 1.215s0.544 1.215 1.214 1.215c0.672 0 1.215-0.544 1.215-1.215" fill="#87ce26"/>
   <path d="m233.72 267.87c0-1.565-1.268-2.835-2.835-2.835-1.565 0-2.834 1.27-2.834 2.835 0 1.566 1.269 2.835 2.834 2.835 1.567 0 2.835-1.269 2.835-2.835" fill="#f1511b"/>
   <path d="m258.2 271.15c0-2.237-1.813-4.05-4.05-4.05-2.238 0-4.051 1.813-4.051 4.05s1.813 4.05 4.051 4.05c2.237 0 4.05-1.813 4.05-4.05" fill="#87ce26"/>
   <path d="m247.26 256.59c0-0.671-0.545-1.215-1.215-1.215-0.672 0-1.216 0.544-1.216 1.215 0 0.672 0.544 1.215 1.216 1.215 0.67 0 1.215-0.543 1.215-1.215" fill="#f9dc06"/>
   <path d="m246.05 276.41c0-0.671-0.545-1.215-1.216-1.215-0.669 0-1.214 0.544-1.214 1.215s0.545 1.215 1.214 1.215c0.671 0 1.216-0.544 1.216-1.215" fill="#f68912"/>
   <path d="m264.38 250.24c0-1.118-0.905-2.024-2.024-2.024s-2.025 0.906-2.025 2.024c0 1.119 0.906 2.025 2.025 2.025s2.024-0.906 2.024-2.025" fill="#2d778f"/>
   <path d="m276.3 264.35c0-1.119-0.907-2.025-2.025-2.025-1.117 0-2.026 0.906-2.026 2.025 0 1.118 0.909 2.025 2.026 2.025 1.118 0 2.025-0.907 2.025-2.025" fill="#53c5c7"/>
   <path d="m280.97 243.36c0-1.119-0.906-2.025-2.024-2.025-1.119 0-2.026 0.906-2.026 2.025 0 1.118 0.907 2.025 2.026 2.025 1.118 0 2.024-0.907 2.024-2.025" fill="#2d778f"/>
   <path d="m256.98 254.29c0-1.566-1.268-2.835-2.834-2.835s-2.834 1.269-2.834 2.835c0 1.565 1.268 2.834 2.834 2.834s2.834-1.269 2.834-2.834" fill="#53c5c7"/>
   <path d="m264.96 275.6c0-1.118-0.906-2.025-2.025-2.025-1.117 0-2.024 0.907-2.024 2.025s0.907 2.025 2.024 2.025c1.119 0 2.025-0.907 2.025-2.025" fill="#f9dc06"/>
   <path d="m260.63 240.93c0-0.671-0.545-1.216-1.214-1.216-0.672 0-1.216 0.545-1.216 1.216 0 0.67 0.544 1.214 1.216 1.214 0.669 0 1.214-0.544 1.214-1.214" fill="#f9dc06"/>
   <path d="m269.02 231.11c0-0.671-0.545-1.215-1.217-1.215-0.67 0-1.214 0.544-1.214 1.215s0.544 1.214 1.214 1.214c0.672 0 1.217-0.543 1.217-1.214" fill="#87ce26"/>
   <path d="m278.13 231.64c0-0.671-0.543-1.215-1.215-1.215-0.67 0-1.214 0.544-1.214 1.215 0 0.672 0.544 1.215 1.214 1.215 0.672 0 1.215-0.543 1.215-1.215" fill="#53c5c7"/>
   <path d="m287.02 244.57c0-0.671-0.545-1.214-1.215-1.214-0.671 0-1.215 0.543-1.215 1.214 0 0.672 0.544 1.215 1.215 1.215 0.67 0 1.215-0.543 1.215-1.215" fill="#f1511b"/>
   <path d="m269.42 259.02c0-0.671-0.544-1.215-1.214-1.215-0.671 0-1.215 0.544-1.215 1.215 0 0.672 0.544 1.215 1.215 1.215 0.67 0 1.214-0.543 1.214-1.215" fill="#f1511b"/>
   <path d="m266.18 266.65c0-0.672-0.544-1.216-1.215-1.216s-1.214 0.544-1.214 1.216c0 0.671 0.543 1.214 1.214 1.214s1.215-0.543 1.215-1.214" fill="#f68912"/>
   <path d="m285.52 257.13c0-1.566-1.27-2.834-2.836-2.834-1.565 0-2.836 1.268-2.836 2.834 0 1.567 1.271 2.835 2.836 2.835 1.566 0 2.836-1.268 2.836-2.835" fill="#87ce26"/>
   <path d="m272.76 251.46c0-0.672-0.544-1.216-1.215-1.216-0.669 0-1.214 0.544-1.214 1.216 0 0.671 0.545 1.214 1.214 1.214 0.671 0 1.215-0.543 1.215-1.214" fill="#f68912"/>
   <g fill="#2d778f">
    <path d="m220.71 253.68-0.599 0.451 8.771 11.705 0.6-0.45-8.772-11.706"/>
    <path d="m220.94 252.76-0.119 0.74 5.168 0.835 0.119-0.741-5.168-0.834"/>
    <path d="m235.36 261.81-2.973 3.629 0.58 0.475 2.973-3.628-0.58-0.476"/>
    <path d="m229.86 255.28-0.475 0.581 5.865 4.779 0.474-0.581-5.864-4.779"/>
    <path d="m228.83 256.2-0.735 0.154 1.838 8.813 0.735-0.154-1.838-8.813"/>
    <path d="m233.49 269.03-0.391 0.639 10.507 6.432 0.391-0.64-10.507-6.431"/>
    <path d="m250.44 272.82-4.739 2.681 0.369 0.652 4.739-2.681-0.369-0.652"/>
    <path d="m257.93 272.64-0.338 0.669 3.377 1.71 0.338-0.669-3.377-1.71"/>
    <path d="m254.52 257.13h-0.75v9.971h0.75v-9.971"/>
    <path d="m242.99 247.8-0.358 0.659 8.846 4.811 0.357-0.659-8.845-4.811"/>
    <path d="m246.96 257.46-0.657 0.365 5.55 9.971 0.656-0.364-5.549-9.972"/>
    <path d="m244.79 266.36-0.318 0.679 5.839 2.73 0.318-0.679-5.839-2.73"/>
    <path d="m243.55 267.76-0.736 0.142 1.417 7.395 0.736-0.142-1.417-7.395"/>
    <path d="m237.62 261.53-0.448 0.603 3.784 2.803 0.447-0.603-3.783-2.803"/>
    <path d="m238.14 250.1-1.854 9.752 0.736 0.14 1.855-9.752-0.737-0.14"/>
    <path d="m235.76 248.25-6.293 4.552 0.44 0.608 6.293-4.552-0.44-0.608"/>
    <path d="m228.5 242.18-0.241 0.711 7.048 2.373 0.24-0.711-7.047-2.373"/>
    <path d="m226.24 242.92-6.172 8.813 0.615 0.431 6.172-8.813-0.615-0.431"/>
    <path d="m243.88 237.78-2.859 4.754 0.642 0.387 2.86-4.754-0.643-0.387"/>
    <path d="m245.9 237.62-0.572 0.486 4.917 5.783 0.572-0.485-4.917-5.784"/>
    <path d="m241.78 249.37-0.629 0.41 3.912 5.994 0.629-0.41-3.912-5.994"/>
    <path d="m245.29 257.6-2.178 6.204 0.707 0.248 2.178-6.204-0.707-0.248"/>
    <path d="m260.37 250.8-3.848 1.895 0.332 0.673 3.848-1.895-0.332-0.673"/>
    <path d="m252.01 245.63-0.72 0.21 1.701 5.84 0.72-0.21-1.701-5.84"/>
    <path d="m246.09 236.9-0.197 0.723 12.248 3.353 0.197-0.723-12.248-3.353"/>
    <path d="m243.56 236.92-15.276 4.52 0.212 0.719 15.277-4.52-0.213-0.719"/>
    <path d="m258.62 241.92-3.783 9.607 0.698 0.274 3.782-9.606-0.697-0.275"/>
    <path d="m260.13 241.96-0.714 0.225 1.968 6.229 0.715-0.225-1.969-6.229"/>
    <path d="m263.7 266.78-5.96 2.47 0.287 0.693 6.191-2.567v-0.25l-0.377-4e-3 -0.141-0.342"/>
    <path d="m263.04 252.18-0.741 0.119 2.107 13.21 0.74-0.118-2.106-13.211"/>
    <path d="m256.29 256.18-0.565 0.494 8.164 9.323 0.565-0.494-8.164-9.323"/>
    <path d="m264.33 267.75-1.312 5.791 0.73 0.166 1.313-5.791-0.731-0.166"/>
    <path d="m260.9 275.32-14.879 0.665 0.033 0.749 14.879-0.665-0.033-0.749"/>
    <path d="m272.58 265.51-8.456 8.4 0.529 0.532 8.456-8.399-0.529-0.533"/>
    <path d="m280.3 258.69-4.722 4.058 0.488 0.569 4.723-4.059-0.489-0.568"/>
    <path d="m285.15 245.66-2.148 8.634 0.729 0.18 2.147-8.634-0.728-0.18"/>
    <path d="m277.92 232.43-0.619 0.425 7.509 10.935 0.619-0.424-7.509-10.936"/>
    <path d="m269.03 230.81-0.043 0.749 6.706 0.389 0.043-0.749-6.706-0.389"/>
    <path d="m266.73 231.78-6.82 7.986 0.57 0.488 6.82-7.987-0.57-0.487"/>
    <path d="m267.64 240.73-4.569 7.582 0.642 0.386 4.57-7.581-0.643-0.387"/>
    <path d="m272.12 239.45-0.342 0.668 5.191 2.649 0.342-0.668-5.191-2.649"/>
    <path d="m277.3 244.6-5.218 5.718 0.555 0.506 5.218-5.718-0.555-0.506"/>
    <path d="m264.41 250.14-0.098 0.743 5.986 0.786 0.098-0.743-5.986-0.786"/>
    <path d="m263.79 251.72-0.623 0.416 4.058 6.083 0.623-0.416-4.058-6.083"/>
    <path d="m269.36 259.54-0.494 0.563 3.645 3.2 0.494-0.564-3.645-3.199"/>
    <path d="m272.16 252.57-0.735 0.156 2.066 9.72 0.734-0.157-2.065-9.719"/>
    <path d="m279.82 245.22-0.727 0.189 2.373 9.113 0.727-0.19-2.373-9.112"/>
    <path d="m275.76 232.16-4.634 4.017 0.493 0.567 4.633-4.018-0.492-0.566"/>
    <path d="m277.49 232.77-0.739 0.128 1.475 8.529 0.738-0.127-1.474-8.53"/>
   </g>
  </g>
 </g>
</svg>
