<?xml version="1.0" encoding="UTF-8" standalone="no"?>
<svg
   xmlns:dc="http://purl.org/dc/elements/1.1/"
   xmlns:cc="http://creativecommons.org/ns#"
   xmlns:rdf="http://www.w3.org/1999/02/22-rdf-syntax-ns#"
   xmlns:svg="http://www.w3.org/2000/svg"
   xmlns="http://www.w3.org/2000/svg"
   xmlns:sodipodi="http://sodipodi.sourceforge.net/DTD/sodipodi-0.dtd"
   xmlns:inkscape="http://www.inkscape.org/namespaces/inkscape"
   sodipodi:docname="g2407.svg"
   inkscape:version="1.0beta2 (2b71d25, 2019-12-03)"
   id="svg2108"
   version="1.1"
   viewBox="0 0 21.576466 21.545244"
   height="21.545244mm"
   width="21.576466mm">
  <defs
     id="defs2102" />
  <sodipodi:namedview
     inkscape:window-maximized="0"
     inkscape:window-y="25"
     inkscape:window-x="0"
     inkscape:window-height="847"
     inkscape:window-width="1440"
     showgrid="false"
     inkscape:document-rotation="0"
     inkscape:current-layer="layer1"
     inkscape:document-units="mm"
     inkscape:cy="80.715419"
     inkscape:cx="112.20299"
     inkscape:zoom="0.35"
     inkscape:pageshadow="2"
     inkscape:pageopacity="0.0"
     borderopacity="1.0"
     bordercolor="#666666"
     pagecolor="#ffffff"
     id="base" />
  <metadata
     id="metadata2105">
    <rdf:RDF>
      <cc:Work
         rdf:about="">
        <dc:format>image/svg+xml</dc:format>
        <dc:type
           rdf:resource="http://purl.org/dc/dcmitype/StillImage" />
        <dc:title></dc:title>
      </cc:Work>
    </rdf:RDF>
  </metadata>
  <g
     transform="translate(-76.146291,-126.81071)"
     id="layer1"
     inkscape:groupmode="layer"
     inkscape:label="Layer 1">
    <g
       transform="matrix(0.35277777,0,0,-0.35277777,-40.152217,227.10464)"
       id="g2407">
      <path
         inkscape:connector-curvature="0"
         id="path1103"
         style="fill:#87ce26;fill-opacity:1;fill-rule:nonzero;stroke:none;stroke-width:0.1"
         d="m 359.164,276.589 c 0,8.066 -9.619,10.305 -13.265,4.304 -2.835,1.433 -6.682,-1.265 -5.467,-4.304 -3.746,0.722 -9.721,-3.398 -7.29,-9.667 -4.353,-0.806 -4.456,-7.255 -1.216,-8.598 -2.834,-1.344 -2.125,-6.54 1.925,-6.36 -3.24,-2.238 -1.823,-9.672 3.644,-9.851 -3.24,-2.329 -0.405,-6.807 2.937,-4.926 -3.037,-3.672 0.304,-8.852 6.176,-7.605 0.406,-7.799 12.556,-9.128 12.556,0 0,9.127 0,47.007 0,47.007" />
      <path
         inkscape:connector-curvature="0"
         id="path1105"
         style="fill:#f68912;fill-opacity:1;fill-rule:nonzero;stroke:none;stroke-width:0.1"
         d="m 361.329,276.589 c 0,8.066 9.619,10.305 13.263,4.304 2.835,1.433 6.684,-1.265 5.469,-4.304 3.746,0.722 9.719,-3.398 7.289,-9.667 4.354,-0.806 4.455,-7.255 1.215,-8.598 2.836,-1.344 2.127,-6.54 -1.924,-6.36 3.24,-2.238 1.822,-9.672 -3.644,-9.851 3.24,-2.329 0.404,-6.807 -2.936,-4.926 3.037,-3.672 -0.305,-8.852 -6.178,-7.605 -0.404,-7.799 -12.554,-9.128 -12.554,0 0,9.127 0,47.007 0,47.007" />
      <path
         inkscape:connector-curvature="0"
         id="path1107"
         style="fill:#2d778f;fill-opacity:1;fill-rule:nonzero;stroke:none;stroke-width:0.1"
         d="m 346.034,259.167 c -5.745,0 -9.749,-1.406 -9.749,-2.668 0,-1.261 4.004,-2.667 9.749,-2.667 5.746,0 9.751,1.406 9.751,2.667 0,1.262 -4.005,2.668 -9.751,2.668 z m 0,-6.085 c -5.09,0 -10.499,1.198 -10.499,3.417 0,2.22 5.409,3.418 10.499,3.418 5.091,0 10.501,-1.198 10.501,-3.418 0,-2.219 -5.41,-3.417 -10.501,-3.417" />
      <path
         inkscape:connector-curvature="0"
         id="path1109"
         style="fill:#2d778f;fill-opacity:1;fill-rule:nonzero;stroke:none;stroke-width:0.1"
         d="m 346.034,266.249 c -1.262,0 -2.667,-4.004 -2.667,-9.75 0,-5.746 1.405,-9.75 2.667,-9.75 1.261,0 2.667,4.004 2.667,9.75 0,5.746 -1.406,9.75 -2.667,9.75 z m 0,-20.25 c -2.22,0 -3.417,5.41 -3.417,10.5 0,5.09 1.197,10.5 3.417,10.5 2.219,0 3.417,-5.41 3.417,-10.5 0,-5.09 -1.198,-10.5 -3.417,-10.5" />
      <path
         inkscape:connector-curvature="0"
         id="path1111"
         style="fill:#2d778f;fill-opacity:1;fill-rule:nonzero;stroke:none;stroke-width:0.1"
         d="m 352.273,263.602 c -1.712,0 -5.053,-2.145 -8.124,-5.216 -1.888,-1.888 -3.439,-3.878 -4.368,-5.605 -0.823,-1.531 -1.069,-2.748 -0.641,-3.176 0.139,-0.138 0.36,-0.208 0.656,-0.208 1.711,0 5.052,2.145 8.123,5.217 4.064,4.062 5.901,7.888 5.009,8.78 -0.137,0.138 -0.358,0.208 -0.655,0.208 z m -12.477,-14.955 c -0.503,0 -0.902,0.144 -1.186,0.428 -0.712,0.711 -0.535,2.116 0.511,4.061 0.962,1.79 2.559,3.842 4.497,5.78 3.252,3.252 6.73,5.436 8.655,5.436 0.503,0 0.902,-0.144 1.186,-0.427 1.569,-1.571 -1.41,-6.243 -5.008,-9.842 -3.253,-3.251 -6.731,-5.436 -8.655,-5.436" />
      <path
         inkscape:connector-curvature="0"
         id="path1113"
         style="fill:#2d778f;fill-opacity:1;fill-rule:nonzero;stroke:none;stroke-width:0.1"
         d="m 339.796,263.602 c -0.296,0 -0.517,-0.07 -0.656,-0.208 -0.428,-0.428 -0.182,-1.645 0.641,-3.175 0.929,-1.727 2.48,-3.718 4.368,-5.605 3.071,-3.072 6.412,-5.217 8.123,-5.217 0.298,0 0.519,0.07 0.656,0.208 0.893,0.892 -0.945,4.718 -5.009,8.781 -3.071,3.071 -6.412,5.216 -8.123,5.216 z m 12.476,-14.955 c -1.924,0 -5.401,2.185 -8.654,5.436 -1.938,1.938 -3.535,3.991 -4.497,5.78 -1.046,1.945 -1.223,3.35 -0.51,4.062 0.283,0.283 0.682,0.427 1.185,0.427 1.925,0 5.403,-2.184 8.655,-5.436 3.598,-3.599 6.578,-8.272 5.008,-9.841 -0.284,-0.284 -0.683,-0.428 -1.187,-0.428" />
      <path
         inkscape:connector-curvature="0"
         id="path1115"
         style="fill:#ffffff;fill-opacity:1;fill-rule:nonzero;stroke:none;stroke-width:0.1"
         d="M 382.145,249.665 H 366.35 v 18.529 h 15.795 v -18.529" />
      <path
         inkscape:connector-curvature="0"
         id="path1117"
         style="fill:#732c18;fill-opacity:1;fill-rule:nonzero;stroke:none;stroke-width:0.1"
         d="m 377.69,266.407 h -6.887 v 3.573 h 6.887 v -3.573" />
      <path
         inkscape:connector-curvature="0"
         id="path1119"
         style="fill:#732c18;fill-opacity:1;fill-rule:nonzero;stroke:none;stroke-width:0.1"
         d="m 377.155,249.665 1.474,-6.58 2.371,0.532 -1.355,6.048 h -2.49" />
      <path
         inkscape:connector-curvature="0"
         id="path1121"
         style="fill:#732c18;fill-opacity:1;fill-rule:nonzero;stroke:none;stroke-width:0.1"
         d="m 368.848,249.665 -1.355,-6.048 2.371,-0.532 1.475,6.58 h -2.491" />
      <path
         inkscape:connector-curvature="0"
         id="path1123"
         style="fill:#f9dc06;fill-opacity:1;fill-rule:nonzero;stroke:none;stroke-width:0.1"
         d="m 348.463,265.828 c 0,-0.67 -0.543,-1.214 -1.214,-1.214 -0.671,0 -1.215,0.544 -1.215,1.214 0,0.671 0.544,1.216 1.215,1.216 0.671,0 1.214,-0.545 1.214,-1.216" />
      <path
         inkscape:connector-curvature="0"
         id="path1125"
         style="fill:#f9dc06;fill-opacity:1;fill-rule:nonzero;stroke:none;stroke-width:0.1"
         d="m 338.997,258.469 c 0,-0.671 -0.543,-1.215 -1.215,-1.215 -0.672,0 -1.215,0.544 -1.215,1.215 0,0.671 0.543,1.215 1.215,1.215 0.672,0 1.215,-0.544 1.215,-1.215" />
      <path
         inkscape:connector-curvature="0"
         id="path1127"
         style="fill:#f9dc06;fill-opacity:1;fill-rule:nonzero;stroke:none;stroke-width:0.1"
         d="m 354.727,249.665 c 0,-0.671 -0.544,-1.215 -1.216,-1.215 -0.671,0 -1.216,0.544 -1.216,1.215 0,0.671 0.545,1.215 1.216,1.215 0.672,0 1.216,-0.544 1.216,-1.215" />
      <path
         inkscape:connector-curvature="0"
         id="path1129"
         style="fill:#f9dc06;fill-opacity:1;fill-rule:nonzero;stroke:none;stroke-width:0.1"
         d="m 340.987,249.022 c 0,-0.671 -0.544,-1.215 -1.215,-1.215 -0.672,0 -1.215,0.544 -1.215,1.215 0,0.671 0.543,1.215 1.215,1.215 0.671,0 1.215,-0.544 1.215,-1.215" />
    </g>
  </g>
</svg>
