<?xml version="1.0" encoding="UTF-8" standalone="no"?>
<svg
   xmlns:dc="http://purl.org/dc/elements/1.1/"
   xmlns:cc="http://creativecommons.org/ns#"
   xmlns:rdf="http://www.w3.org/1999/02/22-rdf-syntax-ns#"
   xmlns:svg="http://www.w3.org/2000/svg"
   xmlns="http://www.w3.org/2000/svg"
   xmlns:sodipodi="http://sodipodi.sourceforge.net/DTD/sodipodi-0.dtd"
   xmlns:inkscape="http://www.inkscape.org/namespaces/inkscape"
   sodipodi:docname="g2435.svg"
   inkscape:version="1.0beta2 (2b71d25, 2019-12-03)"
   id="svg2832"
   version="1.1"
   viewBox="0 0 23.263571 21.043125"
   height="21.043125mm"
   width="23.263571mm">
  <defs
     id="defs2826" />
  <sodipodi:namedview
     inkscape:window-maximized="0"
     inkscape:window-y="25"
     inkscape:window-x="0"
     inkscape:window-height="847"
     inkscape:window-width="1440"
     showgrid="false"
     inkscape:document-rotation="0"
     inkscape:current-layer="layer1"
     inkscape:document-units="mm"
     inkscape:cy="194.05225"
     inkscape:cx="-58.894489"
     inkscape:zoom="0.35"
     inkscape:pageshadow="2"
     inkscape:pageopacity="0.0"
     borderopacity="1.0"
     bordercolor="#666666"
     pagecolor="#ffffff"
     id="base" />
  <metadata
     id="metadata2829">
    <rdf:RDF>
      <cc:Work
         rdf:about="">
        <dc:format>image/svg+xml</dc:format>
        <dc:type
           rdf:resource="http://purl.org/dc/dcmitype/StillImage" />
        <dc:title></dc:title>
      </cc:Work>
    </rdf:RDF>
  </metadata>
  <g
     transform="translate(-121.41583,-96.823676)"
     id="layer1"
     inkscape:groupmode="layer"
     inkscape:label="Layer 1">
    <g
       transform="matrix(0.35277777,0,0,-0.35277777,121.41584,117.8668)"
       id="g2435">
      <path
         inkscape:connector-curvature="0"
         id="path1239"
         style="fill:#f9dc06;fill-opacity:1;fill-rule:nonzero;stroke:none;stroke-width:0.1"
         d="m 40.1445,18.623 c 0,0 -3.5433,0 -7.9984,0 -4.4551,0 -3.5438,3.1379 -3.5438,3.1379 h -8.1675 c -5.4336,0 -4.8262,4.4563 -4.8262,4.4563 -2.9195,-4.8613 -12.35313,-1.5531 -7.4254,4.9937 -8.449216,-5.198 -11.88008,7.9653 -2.83515,9.1801 -3.57696,3.443 0.20273,8.3699 4.25312,7.359 -0.94492,3.7789 3.27383,7.998 7.86363,3.2379 -2.5648,5.6703 6.379,8.709 10.7661,4.3883 1.08,4.657 7.6945,5.6019 10.2597,1.282 2.0254,4.252 12.9606,5.1289 12.6907,-5.1973 4.455,2.7012 7.0867,-2.1597 5.7367,-5.266 2.9027,1.1492 6.5476,-3.2379 3.7129,-6.6129 6.6148,-0.2718 7.391,-8.1011 0.4097,-9.723 6.4246,-0.2512 4.9032,-6.275 1.5477,-6.6129 4.118,-4.252 0.1351,-12.6902 -6.952,-8.843 1.2821,-6.00701 -9.1125,-6.61404 -8.5054,0.8098 -3.4422,-2.159 -7.2903,0.068 -6.9864,3.4101" />
      <path
         inkscape:connector-curvature="0"
         id="path1241"
         style="fill:#f68912;fill-opacity:1;fill-rule:nonzero;stroke:none;stroke-width:0.1"
         d="m 47.1168,14.3449 -0.3238,0.684 c -3.3504,-1.816 -6.9418,0.3609 -6.6485,3.5941 0,0 -0.7992,0 -2.107,0 L 46.8406,0 h 7.0574 l -5.0664,10.7191 c -0.9644,0.7418 -1.6515,1.9391 -1.7148,3.6258" />
      <path
         inkscape:connector-curvature="0"
         id="path1243"
         style="fill:#f1511b;fill-opacity:1;fill-rule:nonzero;stroke:none;stroke-width:0.1"
         d="m 18.5719,35.8828 c 0,-2.943 -5.3262,-5.7156 -5.3262,-5.7156 0,0 -5.32773,2.7726 -5.32773,5.7156 0,2.941 4.27773,4.1293 5.32773,0.9844 1.1457,3.1808 5.3262,1.9566 5.3262,-0.9844" />
      <path
         inkscape:connector-curvature="0"
         id="path1245"
         style="fill:#2a9941;fill-opacity:1;fill-rule:nonzero;stroke:none;stroke-width:0.1"
         d="m 32.4859,48.9031 v 0.8457 c -0.4414,0.0262 -0.7984,0.0793 -1.0711,0.1551 -0.2718,0.0742 -0.4972,0.1449 -0.6761,0.2109 v 1.3954 h 1.5496 c 0,-0.1411 0.0281,-0.2454 0.0847,-0.3141 0.0563,-0.068 0.1735,-0.102 0.352,-0.102 0.1555,0 0.2652,0.0239 0.3313,0.07 0.0652,0.0468 0.0992,0.1168 0.0992,0.2109 l -0.0817,0.173 c -0.0539,0.0489 -0.1636,0.1071 -0.3277,0.1719 -0.3477,0.1313 -0.652,0.2571 -0.9117,0.377 -0.2606,0.1211 -0.4766,0.2531 -0.6485,0.3992 -0.1714,0.1437 -0.2988,0.316 -0.3836,0.5098 -0.0851,0.1961 -0.1265,0.4312 -0.1265,0.707 0,0.2301 0.0312,0.441 0.0941,0.632 0.0641,0.1903 0.166,0.3563 0.3071,0.5 0.1414,0.143 0.3261,0.2602 0.5562,0.352 0.2305,0.0922 0.5148,0.1543 0.8527,0.1859 v 0.8102 h 0.9223 v -0.7961 c 0.2203,-0.0141 0.416,-0.036 0.5852,-0.0668 0.1687,-0.0289 0.3234,-0.0672 0.4644,-0.1063 0.1406,-0.0386 0.2703,-0.0816 0.3879,-0.1258 0.1168,-0.0449 0.2133,-0.0902 0.2887,-0.1371 v -1.2621 h -1.4789 c 0,0.1371 -0.0379,0.2301 -0.1129,0.2793 -0.0758,0.0489 -0.1672,0.075 -0.275,0.075 -0.1555,0 -0.2664,-0.0222 -0.3352,-0.0601 -0.0676,-0.0399 -0.1011,-0.1102 -0.1011,-0.2078 l 0.1085,-0.1782 c 0.0731,-0.0359 0.1817,-0.0781 0.3278,-0.1261 0.2719,-0.0887 0.5293,-0.1829 0.7715,-0.2809 0.2418,-0.0988 0.4547,-0.2199 0.6371,-0.366 0.1836,-0.1449 0.3277,-0.3231 0.4332,-0.5289 0.1058,-0.2063 0.1586,-0.4602 0.1586,-0.7602 0,-0.5398 -0.1571,-0.959 -0.4719,-1.2578 -0.3148,-0.2992 -0.777,-0.475 -1.3879,-0.5312 v -0.8528 h -0.9223" />
      <path
         inkscape:connector-curvature="0"
         id="path1247"
         style="fill:#85471b;fill-opacity:1;fill-rule:nonzero;stroke:none;stroke-width:0.1"
         d="m 43.7418,48.3941 h -0.4387 v 4.884 h 0.4387 v -4.884" />
      <path
         inkscape:connector-curvature="0"
         id="path1249"
         style="fill:#d53e21;fill-opacity:1;fill-rule:nonzero;stroke:none;stroke-width:0.1"
         d="m 43.5227,48.3941 c 0,2.4129 -6.9149,3.5379 -6.9149,-2.4703 0,-6.0109 5.2137,-7.7949 5.7899,-7.7949 0.5757,0 1.125,0.5481 1.125,0.5481 0,0 0.5488,-0.5481 1.1257,-0.5481 0.575,0 5.7895,1.784 5.7895,7.7949 0,6.0082 -6.9152,4.8832 -6.9152,2.4703" />
      <path
         inkscape:connector-curvature="0"
         id="path1251"
         style="fill:#299740;fill-opacity:1;fill-rule:nonzero;stroke:none;stroke-width:0.1"
         d="m 43.498,50.2961 c 0,0 -0.223,2.6121 3.2711,2.8668 -0.3199,-1.7199 -1.498,-3.1867 -3.2711,-2.8668" />
      <path
         inkscape:connector-curvature="0"
         id="path1253"
         style="fill:#e6531c;fill-opacity:1;fill-rule:nonzero;stroke:none;stroke-width:0.1"
         d="m 43.5227,48.3941 c 0,2.4129 6.9152,3.5379 6.9152,-2.4703 0,-6.0109 -5.2145,-7.7949 -5.7895,-7.7949 -0.5769,0 -1.1257,0.5481 -1.1257,0.5481 v 9.7171" />
      <path
         inkscape:connector-curvature="0"
         id="path1255"
         style="fill:#ffffff;fill-opacity:1;fill-rule:nonzero;stroke:none;stroke-width:0.1"
         d="m 50.1777,45.7051 h -0.4394 c 0,3.7359 -2.6656,3.8437 -2.9692,3.8437 v 0.4403 c 1.2657,0 3.4086,-0.9039 3.4086,-4.284" />
      <path
         inkscape:connector-curvature="0"
         id="path1257"
         style="fill:#f9f344;fill-opacity:1;fill-rule:nonzero;stroke:none;stroke-width:0.1"
         d="m 55.8246,29.3121 c 1.9211,1.6098 2.1742,4.4719 0.566,6.3949 -1.6097,1.9192 -4.4718,2.1731 -6.3926,0.5641 -2.8222,-2.3629 -1.3121,-4.7352 -3.8062,-6.8231 l 1.0352,-1.2371 0.0878,-0.1039 1.036,-1.2371 c 1.9168,1.6051 3.5828,0.8512 5.532,1.491 0.6926,0.152 1.361,0.4661 1.9418,0.9512" />
      <path
         inkscape:connector-curvature="0"
         id="path1259"
         style="fill:#2d778f;fill-opacity:1;fill-rule:nonzero;stroke:none;stroke-width:0.1"
         d="m 46.4277,24.0719 c -0.4605,-0.386 -1.1539,-0.325 -1.5406,0.1371 l -1.8129,2.1648 c -0.3863,0.4614 -0.3246,1.1543 0.1367,1.5403 l 1.6696,1.3988 c 0.4609,0.3851 1.1543,0.323 1.5398,-0.1367 l 1.8141,-2.1653 c 0.3855,-0.4621 0.3242,-1.155 -0.1371,-1.541 l -1.6696,-1.398" />
      <path
         inkscape:connector-curvature="0"
         id="path1261"
         style="fill:#ffffff;fill-opacity:1;fill-rule:nonzero;stroke:none;stroke-width:0.1"
         d="m 46.9926,28.4898 -0.209,0.2532 c 2.1484,1.775 3.8172,4.873 3.8332,4.905 l 0.2891,-0.1539 c -0.0172,-0.0332 -1.7157,-3.189 -3.9133,-5.0043" />
      <path
         inkscape:connector-curvature="0"
         id="path1263"
         style="fill:#ffffff;fill-opacity:1;fill-rule:nonzero;stroke:none;stroke-width:0.1"
         d="m 47.5957,27.7699 c 2.1738,1.8449 5.5789,2.9621 5.6129,2.9731 l 0.1019,-0.3121 C 53.277,30.4211 49.9324,29.323 47.8086,27.5199 l -0.2129,0.25" />
      <path
         inkscape:connector-curvature="0"
         id="path1265"
         style="fill:#ffffff;fill-opacity:1;fill-rule:nonzero;stroke:none;stroke-width:0.1"
         d="m 50.9543,31.5141 -0.0383,0.0757 c -0.041,0.1563 0.1254,0.293 0.2867,0.4231 l 0.1239,0.1051 c 0.1808,0.1711 0.2027,0.2379 0.2,0.2648 l -0.2516,0.141 -0.091,0.0313 c -0.241,0.0937 -0.4785,0.1519 -0.7313,0.214 -0.148,0.034 -0.2964,0.0707 -0.4468,0.1149 l 0.0625,0.2101 c 0.1461,-0.0429 0.291,-0.08 0.4343,-0.114 0.2496,-0.0582 0.5075,-0.1199 0.7618,-0.2211 l 0.0785,-0.0289 c 0.1504,-0.05 0.3761,-0.125 0.3996,-0.3231 0.0219,-0.1761 -0.1625,-0.35 -0.2617,-0.4429 l -0.1391,-0.1192 -0.2109,-0.2051 c 0.0093,0 0.0492,-0.0187 0.1507,-0.0378 l 0.2118,0.0039 c 0.125,0.0152 0.2543,0.0281 0.3675,-0.0188 0.2192,-0.091 0.1664,-0.2672 0.1379,-0.3609 L 51.9742,31.127 c -0.0238,-0.1399 -0.0152,-0.1809 0.0629,-0.2508 0.3297,-0.3043 0.9465,-0.5961 1.3524,-0.7024 L 53.334,29.9609 c -0.4262,0.1121 -1.0774,0.4141 -1.4449,0.752 -0.1508,0.1402 -0.1625,0.2652 -0.1301,0.4492 l 0.0305,0.127 0.0191,0.08 -0.0313,0.0149 c -0.0625,0.0262 -0.1636,0.016 -0.2621,0.0051 -0.0906,-0.0071 -0.1847,-0.0161 -0.2703,-0.002 -0.0972,0.0168 -0.2234,0.0481 -0.2906,0.127" />
      <path
         inkscape:connector-curvature="0"
         id="path1267"
         style="fill:#358da3;fill-opacity:1;fill-rule:nonzero;stroke:none;stroke-width:0.1"
         d="m 44.8871,24.209 c 0.3867,-0.4621 1.0801,-0.5231 1.5406,-0.1371 l 1.6696,1.398 c 0.4613,0.386 0.5226,1.0789 0.1371,1.541 l -0.9196,1.0961 -3.3457,-2.8019 0.918,-1.0961" />
      <path
         inkscape:connector-curvature="0"
         id="path1269"
         style="fill:#2d778f;fill-opacity:1;fill-rule:nonzero;stroke:none;stroke-width:0.1"
         d="m 47.9586,25.7211 -2.8613,3.416 0.3359,0.2801 2.8598,-3.4141 -0.3344,-0.282" />
      <path
         inkscape:connector-curvature="0"
         id="path1271"
         style="fill:#2d778f;fill-opacity:1;fill-rule:nonzero;stroke:none;stroke-width:0.1"
         d="m 47.2555,25.1328 -2.8594,3.4184 0.3348,0.2808 2.8605,-3.4172 -0.3359,-0.282" />
      <path
         inkscape:connector-curvature="0"
         id="path1273"
         style="fill:#2d778f;fill-opacity:1;fill-rule:nonzero;stroke:none;stroke-width:0.1"
         d="m 46.5543,24.5449 -2.8609,3.416 0.3359,0.2832 2.8602,-3.4179 -0.3352,-0.2813" />
      <path
         inkscape:connector-curvature="0"
         id="path1275"
         style="fill:#2d778f;fill-opacity:1;fill-rule:nonzero;stroke:none;stroke-width:0.1"
         d="m 45.852,23.9582 -2.861,3.4156 0.336,0.2821 2.8601,-3.4168 -0.3351,-0.2809" />
      <path
         inkscape:connector-curvature="0"
         id="path1277"
         style="fill:#ffffff;fill-opacity:1;fill-rule:nonzero;stroke:none;stroke-width:0.1"
         d="m 55.5016,29.4711 -0.2809,0.3348 c 2.4523,2.0531 1.3305,4.4863 0.691,5.2492 l 0.3348,0.2801 c 0.7183,-0.8551 1.9824,-3.5793 -0.7449,-5.8641" />
      <path
         inkscape:connector-curvature="0"
         id="path1279"
         style="fill:#2d778f;fill-opacity:1;fill-rule:nonzero;stroke:none;stroke-width:0.1"
         d="m 35.9723,27.0359 c 0,-0.657 -0.5328,-1.1898 -1.1903,-1.1898 h -8.4871 c -0.657,0 -1.1898,0.5328 -1.1898,1.1898 v 6.8231 c 0,0.657 0.5328,1.1898 1.1898,1.1898 h 8.4871 c 0.6575,0 1.1903,-0.5328 1.1903,-1.1898 v -6.8231" />
      <path
         inkscape:connector-curvature="0"
         id="path1281"
         style="fill:#358da3;fill-opacity:1;fill-rule:nonzero;stroke:none;stroke-width:0.1"
         d="m 34.7832,35.05 h -4.2449 v -9.2031 h 4.2449 c 0.6566,0 1.1891,0.534 1.1891,1.1902 v 6.8231 c 0,0.657 -0.5325,1.1898 -1.1891,1.1898" />
      <path
         inkscape:connector-curvature="0"
         id="path1283"
         style="fill:#2d2c2c;fill-opacity:1;fill-rule:nonzero;stroke:none;stroke-width:0.1"
         d="m 31.1539,29.6078 c -0.0371,0.2973 -0.075,0.5942 -0.1148,0.9152 -0.0118,0.0969 -0.0239,0.1969 -0.0368,0.2989 0.3415,0.1722 0.5766,0.5222 0.5766,0.9293 0,0.575 -0.4656,1.0398 -1.0398,1.0398 -0.575,0 -1.0418,-0.4648 -1.0418,-1.0398 0,-0.4071 0.2371,-0.7571 0.5785,-0.9293 -0.0133,-0.102 -0.0254,-0.202 -0.0375,-0.2989 -0.0399,-0.321 -0.077,-0.6179 -0.1145,-0.9152 -0.0367,-0.2969 -0.0742,-0.5937 -0.1136,-0.9137 -0.0399,-0.3222 -0.0829,-0.6679 -0.1317,-1.0632 0.3434,0 0.6024,0 0.8606,0 0.2582,0 0.5168,0 0.8609,0 -0.05,0.3953 -0.093,0.741 -0.1324,1.0632 -0.0406,0.32 -0.0774,0.6168 -0.1137,0.9137" />
      <path
         inkscape:connector-curvature="0"
         id="path1285"
         style="fill:#2d778f;fill-opacity:1;fill-rule:nonzero;stroke:none;stroke-width:0.1"
         d="m 28.2383,35.05 v 2.125 c 0,1.3691 1.032,2.4832 2.3008,2.4832 1.2679,0 2.3004,-1.1141 2.3004,-2.4832 h 1.1898 c 0,2.025 -1.566,3.6719 -3.4902,3.6719 -1.9243,0 -3.4907,-1.6469 -3.4907,-3.6719 V 35.05 h 1.1899" />
      <path
         inkscape:connector-curvature="0"
         id="path1287"
         style="fill:#2a9941;fill-opacity:1;fill-rule:nonzero;stroke:none;stroke-width:0.1"
         d="m 56.9223,17.5852 v 0.8449 c -0.4414,0.0269 -0.7985,0.0801 -1.0707,0.1558 -0.2719,0.0743 -0.4977,0.1442 -0.6762,0.211 v 1.3941 h 1.5492 c 0,-0.1398 0.0281,-0.2441 0.0852,-0.3129 0.0558,-0.0691 0.173,-0.1031 0.3519,-0.1031 0.1551,0 0.2653,0.025 0.3309,0.0699 0.0656,0.0473 0.0992,0.118 0.0992,0.211 l -0.0816,0.173 c -0.0536,0.05 -0.1633,0.1082 -0.3278,0.1731 -0.3472,0.1312 -0.6515,0.257 -0.9113,0.3769 -0.2609,0.1199 -0.4766,0.2531 -0.6484,0.3992 -0.1715,0.1438 -0.2989,0.316 -0.384,0.509 -0.0848,0.1969 -0.1266,0.432 -0.1266,0.707 0,0.2309 0.0317,0.4418 0.0945,0.6321 0.0637,0.191 0.1661,0.3566 0.3071,0.5008 0.141,0.1429 0.3261,0.2601 0.5562,0.3519 0.2305,0.091 0.5145,0.1543 0.8524,0.1852 v 0.8109 h 0.9222 v -0.7961 c 0.2203,-0.0148 0.416,-0.0359 0.5852,-0.068 0.1687,-0.0289 0.3238,-0.066 0.4648,-0.105 0.1407,-0.0387 0.27,-0.0821 0.3875,-0.1258 0.1168,-0.0449 0.2137,-0.091 0.2887,-0.1379 v -1.2613 h -1.4789 c 0,0.1363 -0.0375,0.23 -0.1129,0.2793 -0.0758,0.0488 -0.1668,0.0738 -0.2746,0.0738 -0.1555,0 -0.2668,-0.0211 -0.3352,-0.059 -0.0679,-0.0398 -0.1015,-0.1109 -0.1015,-0.2078 l 0.109,-0.1781 c 0.0726,-0.036 0.1816,-0.0782 0.3277,-0.1262 0.2719,-0.0891 0.5293,-0.184 0.7715,-0.2809 0.2414,-0.0988 0.4543,-0.2199 0.6371,-0.3672 0.1836,-0.1437 0.3273,-0.3218 0.4332,-0.5277 0.1059,-0.2062 0.1586,-0.4601 0.1586,-0.7609 0,-0.5403 -0.1574,-0.959 -0.4723,-1.2571 -0.3144,-0.2992 -0.7769,-0.475 -1.3879,-0.532 v -0.8519 h -0.9222" />
      <path
         inkscape:connector-curvature="0"
         id="path1289"
         style="fill:#732c18;fill-opacity:1;fill-rule:nonzero;stroke:none;stroke-width:0.1"
         d="m 20.3352,42.2988 h 3.0046 V 40.227 h -3.0046 z m 0,0.5934 v 0.6816 c 0,0.3543 0.0562,0.6563 0.1703,0.9082 0.1136,0.2532 0.2586,0.4731 0.4355,0.6571 0.1766,0.1859 0.3641,0.348 0.5617,0.4871 0.1981,0.1379 0.3852,0.2726 0.5621,0.4039 0.177,0.1301 0.3219,0.266 0.4356,0.4031 0.1141,0.1398 0.1707,0.3008 0.1707,0.4867 0,0.143 -0.0551,0.2633 -0.1645,0.3602 -0.1097,0.0969 -0.3074,0.1449 -0.5933,0.1449 -0.2445,0 -0.4887,-0.0238 -0.7324,-0.0691 C 20.9363,47.309 20.7012,47.25 20.4734,47.1781 20.2465,47.107 20.0297,47.027 19.8238,46.9379 19.6172,46.85 19.4258,46.7641 19.2488,46.6789 l -0.6687,2.577 c 0.2269,0.1089 0.4812,0.2203 0.7637,0.3351 0.2824,0.1129 0.5886,0.216 0.9218,0.309 0.3324,0.0922 0.6922,0.1699 1.0797,0.234 0.3867,0.0621 0.7953,0.093 1.2246,0.093 0.5641,0 1.0731,-0.068 1.5278,-0.2079 0.4546,-0.1382 0.8398,-0.332 1.155,-0.58 0.3157,-0.2493 0.5578,-0.5391 0.7262,-0.8719 0.1688,-0.332 0.2524,-0.691 0.2524,-1.0793 0,-0.4969 -0.0711,-0.9 -0.2141,-1.2117 -0.1438,-0.3114 -0.3203,-0.5742 -0.5305,-0.7891 -0.2109,-0.2152 -0.4422,-0.4 -0.6945,-0.5562 -0.2527,-0.1559 -0.484,-0.32 -0.6945,-0.4918 -0.2106,-0.1731 -0.3872,-0.3789 -0.5301,-0.6192 -0.1434,-0.239 -0.2153,-0.5488 -0.2153,-0.9277 h -3.0171" />
    </g>
  </g>
</svg>
