<?xml version="1.0" encoding="UTF-8" standalone="no"?>
<svg
   xmlns:dc="http://purl.org/dc/elements/1.1/"
   xmlns:cc="http://creativecommons.org/ns#"
   xmlns:rdf="http://www.w3.org/1999/02/22-rdf-syntax-ns#"
   xmlns:svg="http://www.w3.org/2000/svg"
   xmlns="http://www.w3.org/2000/svg"
   xmlns:sodipodi="http://sodipodi.sourceforge.net/DTD/sodipodi-0.dtd"
   xmlns:inkscape="http://www.inkscape.org/namespaces/inkscape"
   sodipodi:docname="g2448.svg"
   inkscape:version="1.0beta2 (2b71d25, 2019-12-03)"
   id="svg2936"
   version="1.1"
   viewBox="0 0 27.060236 16.158598"
   height="16.158598mm"
   width="27.060236mm">
  <defs
     id="defs2930" />
  <sodipodi:namedview
     inkscape:window-maximized="0"
     inkscape:window-y="25"
     inkscape:window-x="0"
     inkscape:window-height="847"
     inkscape:window-width="1440"
     showgrid="false"
     inkscape:document-rotation="0"
     inkscape:current-layer="layer1"
     inkscape:document-units="mm"
     inkscape:cy="30.535939"
     inkscape:cx="51.137456"
     inkscape:zoom="0.35"
     inkscape:pageshadow="2"
     inkscape:pageopacity="0.0"
     borderopacity="1.0"
     bordercolor="#666666"
     pagecolor="#ffffff"
     id="base" />
  <metadata
     id="metadata2933">
    <rdf:RDF>
      <cc:Work
         rdf:about="">
        <dc:format>image/svg+xml</dc:format>
        <dc:type
           rdf:resource="http://purl.org/dc/dcmitype/StillImage" />
        <dc:title></dc:title>
      </cc:Work>
    </rdf:RDF>
  </metadata>
  <g
     transform="translate(-92.303215,-140.08737)"
     id="layer1"
     inkscape:groupmode="layer"
     inkscape:label="Layer 1">
    <g
       transform="matrix(0.35277777,0,0,-0.35277777,55.724073,158.68895)"
       id="g2448">
      <path
         inkscape:connector-curvature="0"
         id="path1131"
         style="fill:#53c5c7;fill-opacity:1;fill-rule:nonzero;stroke:none;stroke-width:0.1"
         d="m 114.985,34.5078 -0.826,0.0813 c 0.138,1.407 1.128,2.6648 2.646,3.3629 1.738,0.8011 3.73,0.6601 5.197,-0.368 l -0.476,-0.6801 c -1.228,0.8582 -2.903,0.9711 -4.374,0.2941 -1.248,-0.5742 -2.058,-1.58 -2.167,-2.6902 z m 24.216,-4.0769 c -1.106,1.2953 -2.639,2.007 -4.314,2.007 -2.776,0 -5.033,-1.8449 -5.033,-4.1129 h -0.83 c 0,2.4352 2.102,4.4609 4.856,4.8641 -0.22,1.7531 -1.031,2.9808 -2.328,3.4769 -1.431,0.5461 -3.291,0.118 -4.421,-1.018 -0.537,-0.539 -1.34,-1.6949 -0.693,-3.3718 l 0.52,-1.343 -1.155,0.8617 c -1.907,1.4242 -3.931,1.7172 -5.701,0.8301 -1.762,-0.884 -2.901,-2.816 -2.901,-4.9219 0,-2.2269 1.699,-3.659 3.378,-3.9242 1.217,-0.1918 2.716,0.2289 3.279,1.9762 l 0.791,-0.2539 c -0.525,-1.6274 -1.864,-2.5961 -3.509,-2.5961 -0.224,0 -0.455,0.0179 -0.691,0.0551 -2.026,0.3179 -4.078,2.05 -4.078,4.7429 0,2.4168 1.318,4.641 3.359,5.6641 1.754,0.8777 3.772,0.7558 5.665,-0.316 -0.134,1.1718 0.261,2.2929 1.148,3.1828 0.528,0.5301 1.177,0.9262 1.874,1.1801 -1.368,2.0847 -1.343,4.2929 0.127,5.9839 1.406,1.6161 3.739,2.2032 5.313,1.3301 l -0.402,-0.725 c -1.244,0.6879 -3.126,0.1828 -4.285,-1.1492 -0.609,-0.7019 -1.793,-2.598 0.085,-5.218 0.876,0.1653 1.781,0.1161 2.592,-0.1961 0.952,-0.3617 2.511,-1.4007 2.848,-4.1789 l 0.192,0.0071 c 1.922,0 3.679,-0.8149 4.945,-2.2981 0.715,-0.8359 1.259,-1.8621 1.638,-3.0539 v 9.1899 c 0,5.2863 -1.705,6.1511 -1.722,6.1582 l -0.492,0.232 0.343,0.4187 c 1.189,1.384 1.425,3.0551 0.668,4.7032 -1.078,2.3441 -3.879,4.1109 -6.515,4.1109 -2.362,0 -4.274,-1.3957 -5.386,-3.9301 l -0.332,-0.759 -0.409,0.7211 c -0.69,1.2153 -1.653,1.8871 -2.71,1.8871 -1.574,0 -2.988,-1.4699 -3.152,-3.2761 l -0.059,-0.6528 -0.565,0.3329 c -0.504,0.2949 -1.113,0.4539 -1.762,0.4539 -1.284,0 -2.543,-0.5868 -3.367,-1.57 -0.587,-0.6988 -1.218,-1.923 -0.89,-3.78 l 0.089,-0.5059 -0.696,0.0238 c -1.501,0 -2.99,-0.7308 -4.084,-2.0027 -1.205,-1.4051 -1.738,-3.2481 -1.462,-5.0609 l 0.082,-0.5352 -0.043,0.0039 c 0.341,-2.5129 3.349,-3.2687 3.382,-3.2769 l 1.967,-0.4739 -1.996,-0.3383 c -2.827,-0.4796 -3.023,-3.1609 -2.975,-4.2918 l -0.413,-0.0699 h -0.415 c -0.039,0.9489 0.058,3.7231 2.459,4.8188 -1.121,0.5492 -2.65,1.6781 -2.836,3.7019 -1.223,0.0262 -2.349,-0.5539 -2.985,-1.5656 -0.764,-1.2191 -0.738,-2.8812 0.073,-4.5621 l 0.131,-0.2699 -0.216,-0.2082 c -1.419,-1.3719 -1.868,-3.2989 -1.168,-5.0282 0.668,-1.6527 2.176,-2.6789 3.937,-2.6789 0.892,0 1.821,0.2571 2.761,0.7641 l 0.76,0.4109 -0.155,-0.85 0.001,0.0012 c 0.003,0 0.012,-0.132 0.188,-0.3141 0.397,-0.4121 1.647,-1.1019 5.556,-1.1019 4.102,0 9.832,-0.118 10.222,-0.1262 0.958,0.0762 3.606,0.5403 3.606,1.684 v 1.325 l 0.756,-1.0891 c 0.638,-0.9179 2.442,-1.6097 4.198,-1.6097 h 0.001 c 1.069,0 2.601,0.2398 3.826,1.3781 0.823,0.7637 1.345,1.827 1.603,3.1328 -0.019,3.0059 -0.732,5.4231 -2.073,6.9899" />
      <path
         inkscape:connector-curvature="0"
         id="path1133"
         style="fill:#53c5c7;fill-opacity:1;fill-rule:nonzero;stroke:none;stroke-width:0.1"
         d="m 166.932,37.198 c -1.471,0.677 -3.146,0.5641 -4.374,-0.2941 l -0.476,0.6801 c 1.468,1.0281 3.46,1.1691 5.197,0.368 1.518,-0.6981 2.508,-1.9559 2.646,-3.3629 l -0.826,-0.0813 c -0.108,1.1102 -0.919,2.116 -2.167,2.6902 z M 142.81,23.441 c 0.258,-1.3058 0.78,-2.3691 1.603,-3.1328 1.225,-1.1383 2.757,-1.3781 3.826,-1.3781 h 0.001 c 1.756,0 3.56,0.6918 4.198,1.6097 l 0.756,1.0891 v -1.325 c 0,-1.1437 2.648,-1.6078 3.606,-1.684 0.39,0.0082 6.12,0.1262 10.222,0.1262 3.909,0 5.159,0.6898 5.556,1.1019 0.176,0.1821 0.185,0.3141 0.188,0.3141 l 0.001,-0.0012 -0.155,0.85 0.76,-0.4109 c 0.94,-0.507 1.869,-0.7641 2.761,-0.7641 1.761,0 3.269,1.0262 3.937,2.6789 0.7,1.7293 0.251,3.6563 -1.168,5.0282 l -0.216,0.2082 0.131,0.2699 c 0.811,1.6809 0.837,3.343 0.073,4.5621 -0.636,1.0117 -1.762,1.5918 -2.985,1.5656 -0.186,-2.0238 -1.715,-3.1527 -2.836,-3.7019 2.401,-1.0957 2.498,-3.8699 2.459,-4.8188 h -0.415 L 174.7,25.698 c 0.048,1.1309 -0.148,3.8122 -2.975,4.2918 l -1.996,0.3383 1.967,0.4739 c 0.033,0.0082 3.041,0.764 3.382,3.2769 l -0.043,-0.0039 0.082,0.5352 c 0.276,1.8128 -0.257,3.6558 -1.462,5.0609 -1.094,1.2719 -2.583,2.0027 -4.084,2.0027 l -0.696,-0.0238 0.089,0.5059 c 0.328,1.857 -0.303,3.0812 -0.89,3.78 -0.824,0.9832 -2.083,1.57 -3.367,1.57 -0.649,0 -1.258,-0.159 -1.762,-0.4539 l -0.565,-0.3329 -0.059,0.6528 c -0.164,1.8062 -1.578,3.2761 -3.152,3.2761 -1.057,0 -2.02,-0.6718 -2.71,-1.8871 l -0.409,-0.7211 -0.332,0.759 c -1.112,2.5344 -3.024,3.9301 -5.386,3.9301 -2.636,0 -5.437,-1.7668 -6.514,-4.1109 -0.758,-1.6481 -0.522,-3.3192 0.667,-4.7032 l 0.343,-0.4187 -0.492,-0.232 c -0.017,-0.0071 -1.722,-0.8719 -1.722,-6.1582 V 27.916 c 0.379,1.1918 0.923,2.218 1.638,3.0539 1.266,1.4832 3.023,2.2981 4.946,2.2981 l 0.191,-0.0071 c 0.337,2.7782 1.896,3.8172 2.848,4.1789 0.811,0.3122 1.716,0.3614 2.592,0.1961 1.878,2.62 0.694,4.5161 0.085,5.218 -1.159,1.332 -3.041,1.8371 -4.285,1.1492 l -0.402,0.725 c 1.574,0.8731 3.907,0.286 5.313,-1.3301 1.47,-1.691 1.495,-3.8992 0.127,-5.9839 0.697,-0.2539 1.346,-0.65 1.874,-1.1801 0.887,-0.8899 1.282,-2.011 1.148,-3.1828 1.893,1.0718 3.911,1.1937 5.665,0.316 2.041,-1.0231 3.359,-3.2473 3.359,-5.6641 0,-2.6929 -2.052,-4.425 -4.078,-4.7429 -0.236,-0.0372 -0.467,-0.0551 -0.691,-0.0551 -1.645,0 -2.984,0.9687 -3.509,2.5961 l 0.791,0.2539 c 0.563,-1.7473 2.062,-2.168 3.279,-1.9762 1.679,0.2652 3.378,1.6973 3.378,3.9242 0,2.1059 -1.139,4.0379 -2.901,4.9219 -1.77,0.8871 -3.794,0.5941 -5.701,-0.8301 l -1.156,-0.8617 0.521,1.343 c 0.648,1.6769 -0.156,2.8328 -0.693,3.3718 -1.13,1.136 -2.99,1.5641 -4.421,1.018 -1.297,-0.4961 -2.108,-1.7238 -2.328,-3.4769 2.754,-0.4032 4.856,-2.4289 4.856,-4.8641 h -0.831 c 0,2.268 -2.256,4.1129 -5.031,4.1129 -1.676,0 -3.209,-0.7117 -4.315,-2.007 -1.341,-1.5668 -2.054,-3.984 -2.073,-6.9899" />
      <path
         inkscape:connector-curvature="0"
         id="path1135"
         style="fill:#f1511b;fill-opacity:1;fill-rule:nonzero;stroke:none;stroke-width:0.1"
         d="m 145.144,31.4449 -3.102,-2.9308 -3.102,2.9308 H 123.211 V 7.07891 c 0,0 9.664,5.31989 18.682,-0.06485 l 0.149,-0.08906 0.149,0.08906 c 9.017,5.38474 18.682,0.06485 18.682,0.06485 V 31.4449 h -15.729" />
      <path
         inkscape:connector-curvature="0"
         id="path1137"
         style="fill:#f68912;fill-opacity:1;fill-rule:nonzero;stroke:none;stroke-width:0.1"
         d="m 145.144,31.8762 -3.102,-2.9301 -3.102,2.9301 H 123.211 V 7.50898 c 0,0 9.664,5.32192 18.682,-0.06484 l 0.149,-0.08711 0.149,0.08711 c 9.017,5.38676 18.682,0.06484 18.682,0.06484 V 31.8762 h -15.729" />
      <path
         inkscape:connector-curvature="0"
         id="path1139"
         style="fill:#deded6;fill-opacity:1;fill-rule:nonzero;stroke:none;stroke-width:0.1"
         d="m 142.191,28.225 c -7.483,9.202 -17.723,4.2719 -17.723,4.2719 V 9.38594 c 11.453,4.20706 17.723,-1.25703 17.723,-1.25703 0,0 7.186,5.20509 17.724,1.25703 V 32.4969 c 0,0 -10.239,4.9301 -17.724,-4.2719" />
      <path
         inkscape:connector-curvature="0"
         id="path1141"
         style="fill:#e7e8da;fill-opacity:1;fill-rule:nonzero;stroke:none;stroke-width:0.1"
         d="m 124.468,10.841 v 23.1102 c 0,0 10.24,4.9297 17.723,-4.2703 V 9.5832 c 0,0 -7.723,6.227 -17.723,1.2578" />
      <path
         inkscape:connector-curvature="0"
         id="path1143"
         style="fill:#f8f8eb;fill-opacity:1;fill-rule:nonzero;stroke:none;stroke-width:0.1"
         d="m 159.915,10.841 v 23.1102 c 0,0 -10.239,4.9297 -17.724,-4.2703 V 9.5832 c 0,0 7.724,6.227 17.724,1.2578" />
      <path
         inkscape:connector-curvature="0"
         id="path1145"
         style="fill:#f1511b;fill-opacity:1;fill-rule:nonzero;stroke:none;stroke-width:0.1"
         d="M 128.679,35.0379 V 23.1488 l 2.318,2.6844 2.115,-2.6844 v 11.8891 c 0,0 -2.69,0.5242 -4.433,0" />
      <path
         inkscape:connector-curvature="0"
         id="path1147"
         style="fill:#5c5d5f;fill-opacity:1;fill-rule:nonzero;stroke:none;stroke-width:0.1"
         d="m 144.427,27.5961 -0.52,0.4969 c 0.051,0.0519 5.101,5.232 13.103,3.6558 l -0.139,-0.7027 c -7.605,1.498 -12.396,-3.4012 -12.444,-3.45" />
      <path
         inkscape:connector-curvature="0"
         id="path1149"
         style="fill:#5c5d5f;fill-opacity:1;fill-rule:nonzero;stroke:none;stroke-width:0.1"
         d="m 144.427,24.2961 -0.52,0.4961 c 0.051,0.0527 5.101,5.2316 13.103,3.6566 l -0.139,-0.7058 c -7.605,1.4992 -12.396,-3.3981 -12.444,-3.4469" />
      <path
         inkscape:connector-curvature="0"
         id="path1151"
         style="fill:#5c5d5f;fill-opacity:1;fill-rule:nonzero;stroke:none;stroke-width:0.1"
         d="m 144.427,20.9949 -0.52,0.4961 c 0.051,0.052 5.101,5.234 13.103,3.6559 l -0.139,-0.7039 c -7.605,1.4968 -12.396,-3.3989 -12.444,-3.4481" />
    </g>
  </g>
</svg>
