<?xml version="1.0" encoding="UTF-8" standalone="no"?>
<svg
   xmlns:dc="http://purl.org/dc/elements/1.1/"
   xmlns:cc="http://creativecommons.org/ns#"
   xmlns:rdf="http://www.w3.org/1999/02/22-rdf-syntax-ns#"
   xmlns:svg="http://www.w3.org/2000/svg"
   xmlns="http://www.w3.org/2000/svg"
   xmlns:sodipodi="http://sodipodi.sourceforge.net/DTD/sodipodi-0.dtd"
   xmlns:inkscape="http://www.inkscape.org/namespaces/inkscape"
   sodipodi:docname="g2486.svg"
   inkscape:version="1.0beta2 (2b71d25, 2019-12-03)"
   id="svg3035"
   version="1.1"
   viewBox="0 0 24.366007 21.070766"
   height="21.070766mm"
   width="24.366007mm">
  <defs
     id="defs3029" />
  <sodipodi:namedview
     inkscape:window-maximized="0"
     inkscape:window-y="25"
     inkscape:window-x="0"
     inkscape:window-height="847"
     inkscape:window-width="1440"
     showgrid="false"
     inkscape:document-rotation="0"
     inkscape:current-layer="layer1"
     inkscape:document-units="mm"
     inkscape:cy="-348.75267"
     inkscape:cx="-322.52542"
     inkscape:zoom="0.35"
     inkscape:pageshadow="2"
     inkscape:pageopacity="0.0"
     borderopacity="1.0"
     bordercolor="#666666"
     pagecolor="#ffffff"
     id="base" />
  <metadata
     id="metadata3032">
    <rdf:RDF>
      <cc:Work
         rdf:about="">
        <dc:format>image/svg+xml</dc:format>
        <dc:type
           rdf:resource="http://purl.org/dc/dcmitype/StillImage" />
        <dc:title></dc:title>
      </cc:Work>
    </rdf:RDF>
  </metadata>
  <g
     transform="translate(-191.16818,-240.44081)"
     id="layer1"
     inkscape:groupmode="layer"
     inkscape:label="Layer 1">
    <g
       transform="matrix(0.35277777,0,0,-0.35277777,114.1889,262.90891)"
       id="g2486">
      <path
         inkscape:connector-curvature="0"
         id="path845"
         style="fill:#87ce26;fill-opacity:1;fill-rule:nonzero;stroke:none;stroke-width:0.1"
         d="m 220.932,16.2461 h -0.9 v 8.0078 h 0.9 v -8.0078" />
      <path
         inkscape:connector-curvature="0"
         id="path847"
         style="fill:#87ce26;fill-opacity:1;fill-rule:nonzero;stroke:none;stroke-width:0.1"
         d="m 230.445,27.8461 h -0.9 v 22.1828 h 0.9 V 27.8461" />
      <path
         inkscape:connector-curvature="0"
         id="path849"
         style="fill:#87ce26;fill-opacity:1;fill-rule:nonzero;stroke:none;stroke-width:0.1"
         d="m 229.676,36.4941 -6.021,6.0207 0.637,0.6372 6.021,-6.0211 -0.637,-0.6368" />
      <path
         inkscape:connector-curvature="0"
         id="path851"
         style="fill:#87ce26;fill-opacity:1;fill-rule:nonzero;stroke:none;stroke-width:0.1"
         d="m 237.422,31.2789 h -0.9 v 2.8801 h 0.9 v -2.8801" />
      <path
         inkscape:connector-curvature="0"
         id="path853"
         style="fill:#87ce26;fill-opacity:1;fill-rule:nonzero;stroke:none;stroke-width:0.1"
         d="m 242.415,32.1969 h -0.901 v 8.3453 l 2.531,2.5297 0.637,-0.6367 -2.267,-2.2661 v -7.9722" />
      <path
         inkscape:connector-curvature="0"
         id="path855"
         style="fill:#87ce26;fill-opacity:1;fill-rule:nonzero;stroke:none;stroke-width:0.1"
         d="m 220.481,27.084 c -0.756,0 -1.372,-0.616 -1.372,-1.3731 0,-0.7558 0.616,-1.3711 1.372,-1.3711 0.758,0 1.373,0.6153 1.373,1.3711 0,0.7571 -0.615,1.3731 -1.373,1.3731 z m 0,-3.6449 c -1.252,0 -2.272,1.0199 -2.272,2.2718 0,1.2539 1.02,2.2731 2.272,2.2731 1.254,0 2.273,-1.0192 2.273,-2.2731 0,-1.2519 -1.019,-2.2718 -2.273,-2.2718" />
      <path
         inkscape:connector-curvature="0"
         id="path857"
         style="fill:#87ce26;fill-opacity:1;fill-rule:nonzero;stroke:none;stroke-width:0.1"
         d="m 250.449,30.7328 h -0.9 v 17.3231 l -4.381,4.3812 0.637,0.6359 4.644,-4.6441 V 30.7328" />
      <path
         inkscape:connector-curvature="0"
         id="path859"
         style="fill:#87ce26;fill-opacity:1;fill-rule:nonzero;stroke:none;stroke-width:0.1"
         d="m 220.481,36.8961 c -0.756,0 -1.372,-0.6172 -1.372,-1.3731 0,-0.757 0.616,-1.373 1.372,-1.373 0.758,0 1.373,0.616 1.373,1.373 0,0.7559 -0.615,1.3731 -1.373,1.3731 z m 0,-3.6461 c -1.252,0 -2.272,1.0191 -2.272,2.273 0,1.2532 1.02,2.2731 2.272,2.2731 1.254,0 2.273,-1.0199 2.273,-2.2731 0,-1.2539 -1.019,-2.273 -2.273,-2.273" />
      <path
         inkscape:connector-curvature="0"
         id="path861"
         style="fill:#87ce26;fill-opacity:1;fill-rule:nonzero;stroke:none;stroke-width:0.1"
         d="m 222.765,45.5699 c -0.757,0 -1.373,-0.6148 -1.373,-1.3719 0,-0.757 0.616,-1.373 1.373,-1.373 0.757,0 1.372,0.616 1.372,1.373 0,0.7571 -0.615,1.3719 -1.372,1.3719 z m 0,-3.6437 c -1.253,0 -2.272,1.0187 -2.272,2.2718 0,1.2532 1.019,2.2719 2.272,2.2719 1.253,0 2.273,-1.0187 2.273,-2.2719 0,-1.2531 -1.02,-2.2718 -2.273,-2.2718" />
      <path
         inkscape:connector-curvature="0"
         id="path863"
         style="fill:#87ce26;fill-opacity:1;fill-rule:nonzero;stroke:none;stroke-width:0.1"
         d="m 229.995,52.998 c -0.758,0 -1.373,-0.6171 -1.373,-1.373 0,-0.757 0.615,-1.3719 1.373,-1.3719 0.755,0 1.371,0.6149 1.371,1.3719 0,0.7559 -0.616,1.373 -1.371,1.373 z m 0,-3.6449 c -1.254,0 -2.274,1.0199 -2.274,2.2719 0,1.2531 1.02,2.2719 2.274,2.2719 1.252,0 2.271,-1.0188 2.271,-2.2719 0,-1.252 -1.019,-2.2719 -2.271,-2.2719" />
      <path
         inkscape:connector-curvature="0"
         id="path865"
         style="fill:#87ce26;fill-opacity:1;fill-rule:nonzero;stroke:none;stroke-width:0.1"
         d="m 230.313,36.4941 -0.637,0.6368 6.022,6.0211 0.635,-0.6372 -6.02,-6.0207" />
      <path
         inkscape:connector-curvature="0"
         id="path867"
         style="fill:#87ce26;fill-opacity:1;fill-rule:nonzero;stroke:none;stroke-width:0.1"
         d="m 237.225,45.5699 c -0.757,0 -1.373,-0.6148 -1.373,-1.3719 0,-0.757 0.616,-1.373 1.373,-1.373 0.756,0 1.373,0.616 1.373,1.373 0,0.7571 -0.617,1.3719 -1.373,1.3719 z m 0,-3.6437 c -1.254,0 -2.273,1.0187 -2.273,2.2718 0,1.2532 1.019,2.2719 2.273,2.2719 1.253,0 2.273,-1.0187 2.273,-2.2719 0,-1.2531 -1.02,-2.2718 -2.273,-2.2718" />
      <path
         inkscape:connector-curvature="0"
         id="path869"
         style="fill:#87ce26;fill-opacity:1;fill-rule:nonzero;stroke:none;stroke-width:0.1"
         d="m 236.971,37.3559 c -0.756,0 -1.371,-0.6161 -1.371,-1.3719 0,-0.7578 0.615,-1.3731 1.371,-1.3731 0.758,0 1.373,0.6153 1.373,1.3731 0,0.7558 -0.615,1.3719 -1.373,1.3719 z m 0,-3.6438 c -1.252,0 -2.271,1.0188 -2.271,2.2719 0,1.2531 1.019,2.273 2.271,2.273 1.254,0 2.274,-1.0199 2.274,-2.273 0,-1.2531 -1.02,-2.2719 -2.274,-2.2719" />
      <path
         inkscape:connector-curvature="0"
         id="path871"
         style="fill:#87ce26;fill-opacity:1;fill-rule:nonzero;stroke:none;stroke-width:0.1"
         d="m 245.652,45.418 c -0.757,0 -1.373,-0.616 -1.373,-1.3731 0,-0.7558 0.616,-1.3711 1.373,-1.3711 0.757,0 1.372,0.6153 1.372,1.3711 0,0.7571 -0.615,1.3731 -1.372,1.3731 z m 0,-3.645 c -1.253,0 -2.273,1.02 -2.273,2.2719 0,1.2539 1.02,2.2731 2.273,2.2731 1.253,0 2.272,-1.0192 2.272,-2.2731 0,-1.2519 -1.019,-2.2719 -2.272,-2.2719" />
      <path
         inkscape:connector-curvature="0"
         id="path873"
         style="fill:#87ce26;fill-opacity:1;fill-rule:nonzero;stroke:none;stroke-width:0.1"
         d="m 253.193,24.2539 h -0.9 v 35.707 h 0.9 v -35.707" />
      <path
         inkscape:connector-curvature="0"
         id="path875"
         style="fill:#87ce26;fill-opacity:1;fill-rule:nonzero;stroke:none;stroke-width:0.1"
         d="m 244.198,55.418 c -0.758,0 -1.373,-0.6149 -1.373,-1.3731 0,-0.7558 0.615,-1.373 1.373,-1.373 0.756,0 1.372,0.6172 1.372,1.373 0,0.7582 -0.616,1.3731 -1.372,1.3731 z m 0,-3.6461 c -1.253,0 -2.273,1.0203 -2.273,2.273 0,1.2531 1.02,2.2723 2.273,2.2723 1.253,0 2.272,-1.0192 2.272,-2.2723 0,-1.2527 -1.019,-2.273 -2.272,-2.273" />
      <path
         inkscape:connector-curvature="0"
         id="path877"
         style="fill:#87ce26;fill-opacity:1;fill-rule:nonzero;stroke:none;stroke-width:0.1"
         d="m 285.456,16.2461 h -0.901 v 8.0078 h 0.901 v -8.0078" />
      <path
         inkscape:connector-curvature="0"
         id="path879"
         style="fill:#87ce26;fill-opacity:1;fill-rule:nonzero;stroke:none;stroke-width:0.1"
         d="m 275.942,27.7801 h -0.9 v 22.2488 h 0.9 V 27.7801" />
      <path
         inkscape:connector-curvature="0"
         id="path881"
         style="fill:#87ce26;fill-opacity:1;fill-rule:nonzero;stroke:none;stroke-width:0.1"
         d="m 252.743,62.7891 c -0.757,0 -1.373,-0.6153 -1.373,-1.3711 0,-0.7578 0.616,-1.3731 1.373,-1.3731 0.757,0 1.373,0.6153 1.373,1.3731 0,0.7558 -0.616,1.3711 -1.373,1.3711 z m 0,-3.645 c -1.254,0 -2.274,1.02 -2.274,2.2739 0,1.2519 1.02,2.2711 2.274,2.2711 1.254,0 2.273,-1.0192 2.273,-2.2711 0,-1.2539 -1.019,-2.2739 -2.273,-2.2739" />
      <path
         inkscape:connector-curvature="0"
         id="path883"
         style="fill:#87ce26;fill-opacity:1;fill-rule:nonzero;stroke:none;stroke-width:0.1"
         d="m 275.811,36.4941 -0.637,0.6368 6.021,6.0211 0.636,-0.6372 -6.02,-6.0207" />
      <path
         inkscape:connector-curvature="0"
         id="path885"
         style="fill:#87ce26;fill-opacity:1;fill-rule:nonzero;stroke:none;stroke-width:0.1"
         d="m 263.971,32.1969 h -0.899 v 7.9722 l -2.268,2.2661 0.636,0.6367 2.531,-2.5297 v -8.3453" />
      <path
         inkscape:connector-curvature="0"
         id="path887"
         style="fill:#87ce26;fill-opacity:1;fill-rule:nonzero;stroke:none;stroke-width:0.1"
         d="m 285.006,27.084 c -0.757,0 -1.373,-0.616 -1.373,-1.3731 0,-0.7558 0.616,-1.3711 1.373,-1.3711 0.756,0 1.371,0.6153 1.371,1.3711 0,0.7571 -0.615,1.3731 -1.371,1.3731 z m 0,-3.6449 c -1.254,0 -2.273,1.0199 -2.273,2.2718 0,1.2539 1.019,2.2731 2.273,2.2731 1.252,0 2.272,-1.0192 2.272,-2.2731 0,-1.2519 -1.02,-2.2718 -2.272,-2.2718" />
      <path
         inkscape:connector-curvature="0"
         id="path889"
         style="fill:#87ce26;fill-opacity:1;fill-rule:nonzero;stroke:none;stroke-width:0.1"
         d="m 255.938,30.7328 h -0.9 v 17.6961 l 4.644,4.6441 0.637,-0.6359 -4.381,-4.3812 V 30.7328" />
      <path
         inkscape:connector-curvature="0"
         id="path891"
         style="fill:#87ce26;fill-opacity:1;fill-rule:nonzero;stroke:none;stroke-width:0.1"
         d="m 285.006,36.8961 c -0.757,0 -1.373,-0.6172 -1.373,-1.3731 0,-0.757 0.616,-1.373 1.373,-1.373 0.756,0 1.371,0.616 1.371,1.373 0,0.7559 -0.615,1.3731 -1.371,1.3731 z m 0,-3.6461 c -1.254,0 -2.273,1.0191 -2.273,2.273 0,1.2532 1.019,2.2731 2.273,2.2731 1.252,0 2.272,-1.0199 2.272,-2.2731 0,-1.2539 -1.02,-2.273 -2.272,-2.273" />
      <path
         inkscape:connector-curvature="0"
         id="path893"
         style="fill:#87ce26;fill-opacity:1;fill-rule:nonzero;stroke:none;stroke-width:0.1"
         d="m 282.722,45.5699 c -0.757,0 -1.372,-0.6148 -1.372,-1.3719 0,-0.757 0.615,-1.373 1.372,-1.373 0.757,0 1.373,0.616 1.373,1.373 0,0.7571 -0.616,1.3719 -1.373,1.3719 z m 0,-3.6437 c -1.253,0 -2.272,1.0187 -2.272,2.2718 0,1.2532 1.019,2.2719 2.272,2.2719 1.253,0 2.273,-1.0187 2.273,-2.2719 0,-1.2531 -1.02,-2.2718 -2.273,-2.2718" />
      <path
         inkscape:connector-curvature="0"
         id="path895"
         style="fill:#87ce26;fill-opacity:1;fill-rule:nonzero;stroke:none;stroke-width:0.1"
         d="m 275.493,52.998 c -0.757,0 -1.373,-0.6171 -1.373,-1.373 0,-0.757 0.616,-1.3719 1.373,-1.3719 0.756,0 1.373,0.6149 1.373,1.3719 0,0.7559 -0.617,1.373 -1.373,1.373 z m 0,-3.6449 c -1.254,0 -2.274,1.0199 -2.274,2.2719 0,1.2531 1.02,2.2719 2.274,2.2719 1.253,0 2.272,-1.0188 2.272,-2.2719 0,-1.252 -1.019,-2.2719 -2.272,-2.2719" />
      <path
         inkscape:connector-curvature="0"
         id="path897"
         style="fill:#87ce26;fill-opacity:1;fill-rule:nonzero;stroke:none;stroke-width:0.1"
         d="m 275.174,36.4941 -6.022,6.0207 0.636,0.6372 6.023,-6.0211 -0.637,-0.6368" />
      <path
         inkscape:connector-curvature="0"
         id="path899"
         style="fill:#87ce26;fill-opacity:1;fill-rule:nonzero;stroke:none;stroke-width:0.1"
         d="m 268.262,45.5699 c -0.756,0 -1.373,-0.6148 -1.373,-1.3719 0,-0.757 0.617,-1.373 1.373,-1.373 0.757,0 1.373,0.616 1.373,1.373 0,0.7571 -0.616,1.3719 -1.373,1.3719 z m 0,-3.6437 c -1.253,0 -2.272,1.0187 -2.272,2.2718 0,1.2532 1.019,2.2719 2.272,2.2719 1.254,0 2.274,-1.0187 2.274,-2.2719 0,-1.2531 -1.02,-2.2718 -2.274,-2.2718" />
      <path
         inkscape:connector-curvature="0"
         id="path901"
         style="fill:#87ce26;fill-opacity:1;fill-rule:nonzero;stroke:none;stroke-width:0.1"
         d="m 268.514,37.3559 c -0.757,0 -1.373,-0.6161 -1.373,-1.3719 0,-0.7578 0.616,-1.3731 1.373,-1.3731 0.756,0 1.373,0.6153 1.373,1.3731 0,0.7558 -0.617,1.3719 -1.373,1.3719 z m 0,-3.6438 c -1.254,0 -2.273,1.0188 -2.273,2.2719 0,1.2531 1.019,2.273 2.273,2.273 1.253,0 2.273,-1.0199 2.273,-2.273 0,-1.2531 -1.02,-2.2719 -2.273,-2.2719" />
      <path
         inkscape:connector-curvature="0"
         id="path903"
         style="fill:#87ce26;fill-opacity:1;fill-rule:nonzero;stroke:none;stroke-width:0.1"
         d="m 259.835,45.418 c -0.756,0 -1.372,-0.616 -1.372,-1.3731 0,-0.7558 0.616,-1.3711 1.372,-1.3711 0.757,0 1.373,0.6153 1.373,1.3711 0,0.7571 -0.616,1.3731 -1.373,1.3731 z m 0,-3.645 c -1.252,0 -2.272,1.02 -2.272,2.2719 0,1.2539 1.02,2.2731 2.272,2.2731 1.253,0 2.273,-1.0192 2.273,-2.2731 0,-1.2519 -1.02,-2.2719 -2.273,-2.2719" />
      <path
         inkscape:connector-curvature="0"
         id="path905"
         style="fill:#87ce26;fill-opacity:1;fill-rule:nonzero;stroke:none;stroke-width:0.1"
         d="m 280.483,22.575 h -0.9 v 8.177 l 3.807,3.8109 0.636,-0.6348 -3.543,-3.548 V 22.575" />
      <path
         inkscape:connector-curvature="0"
         id="path907"
         style="fill:#87ce26;fill-opacity:1;fill-rule:nonzero;stroke:none;stroke-width:0.1"
         d="m 261.29,55.418 c -0.757,0 -1.373,-0.6149 -1.373,-1.3731 0,-0.7558 0.616,-1.373 1.373,-1.373 0.755,0 1.371,0.6172 1.371,1.373 0,0.7582 -0.616,1.3731 -1.371,1.3731 z m 0,-3.6461 c -1.254,0 -2.274,1.0203 -2.274,2.273 0,1.2531 1.02,2.2723 2.274,2.2723 1.252,0 2.271,-1.0192 2.271,-2.2723 0,-1.2527 -1.019,-2.273 -2.271,-2.273" />
      <path
         inkscape:connector-curvature="0"
         id="path909"
         style="fill:#87ce26;fill-opacity:1;fill-rule:nonzero;stroke:none;stroke-width:0.1"
         d="m 268.965,31.273 h -0.9 v 2.886 h 0.9 v -2.886" />
      <path
         inkscape:connector-curvature="0"
         id="path911"
         style="fill:#87ce26;fill-opacity:1;fill-rule:nonzero;stroke:none;stroke-width:0.1"
         d="m 225.904,22.6398 h -0.901 v 7.7403 l -3.542,3.548 0.636,0.6348 3.807,-3.8109 v -8.1122" />
      <path
         inkscape:connector-curvature="0"
         id="path913"
         style="fill:#f1511b;fill-opacity:1;fill-rule:nonzero;stroke:none;stroke-width:0.1"
         d="m 228.659,17.9199 -0.726,0.0699 c 0.121,1.2383 0.99,2.3434 2.325,2.9571 1.528,0.7031 3.278,0.5801 4.566,-0.3231 l -0.419,-0.5976 c -1.078,0.7539 -2.549,0.8547 -3.842,0.259 -1.098,-0.5051 -1.809,-1.3891 -1.904,-2.3653 z m 21.275,-3.5801 c -0.972,1.1364 -2.318,1.7633 -3.79,1.7633 -2.438,0 -4.421,-1.6222 -4.421,-3.6152 h -0.729 c 0,2.141 1.846,3.9203 4.264,4.275 -0.193,1.5402 -0.904,2.618 -2.045,3.0531 -1.255,0.482 -2.89,0.1039 -3.883,-0.8922 -0.472,-0.475 -1.178,-1.4898 -0.609,-2.9629 l 0.457,-1.1808 -1.014,0.757 c -1.675,1.25 -3.455,1.5098 -5.009,0.7301 -1.549,-0.7774 -2.549,-2.4742 -2.549,-4.325 0,-1.95626 1.492,-3.21603 2.967,-3.44728 1.07,-0.16289 2.388,0.2 2.883,1.73518 l 0.693,-0.2223 c -0.461,-1.43163 -1.637,-2.28163 -3.083,-2.28163 -0.196,0 -0.399,0.01602 -0.607,0.04883 -1.781,0.27891 -3.583,1.80117 -3.583,4.1672 0,2.1238 1.159,4.0769 2.952,4.9758 1.542,0.773 3.315,0.6629 4.977,-0.277 -0.118,1.0289 0.229,2.0141 1.009,2.7961 0.463,0.466 1.034,0.8149 1.645,1.0367 -1.201,1.8321 -1.178,3.7711 0.113,5.2582 1.235,1.4219 3.286,1.936 4.668,1.17 l -0.354,-0.6391 c -1.093,0.6043 -2.747,0.1609 -3.764,-1.009 -0.536,-0.616 -1.577,-2.284 0.076,-4.584 0.767,0.1422 1.561,0.0992 2.275,-0.1719 0.836,-0.3199 2.207,-1.2332 2.503,-3.673 l 0.168,0.007 c 1.689,0 3.231,-0.7172 4.345,-2.0191 0.629,-0.7348 1.105,-1.6348 1.439,-2.684 v 8.075 c 0,4.666 -1.489,5.4012 -1.504,5.407 l -0.468,0.1903 0.329,0.384 c 1.044,1.2168 1.253,2.6859 0.586,4.1328 -0.947,2.059 -3.408,3.6121 -5.724,3.6121 -2.074,0 -3.756,-1.227 -4.732,-3.4539 l -0.291,-0.666 -0.36,0.632 c -0.606,1.0687 -1.452,1.659 -2.381,1.659 -1.383,0 -2.625,-1.2922 -2.769,-2.8793 l -0.053,-0.5731 -0.496,0.2922 c -0.441,0.261 -0.977,0.3988 -1.547,0.3988 -1.129,0 -2.234,-0.5148 -2.959,-1.3777 -0.516,-0.616 -1.07,-1.691 -0.782,-3.3223 l 0.079,-0.4449 -0.611,0.0223 c -1.321,0 -2.629,-0.6422 -3.589,-1.7602 -1.06,-1.2332 -1.527,-2.8539 -1.284,-4.4461 l 0.072,-0.4711 -0.039,0.0051 c 0.291,-2.198 2.856,-2.8519 2.972,-2.8801 l 1.714,-0.4187 -1.739,-0.2949 c -2.484,-0.4211 -2.656,-2.7774 -2.614,-3.7723 l -0.363,-0.0598 h -0.365 c -0.034,0.834 0.051,3.2719 2.16,4.234 -0.986,0.4828 -2.329,1.475 -2.492,3.2539 -1.08,0.0258 -2.064,-0.489 -2.622,-1.3781 -0.671,-1.0699 -0.648,-2.5309 0.065,-4.0078 l 0.114,-0.2371 -0.19,-0.182 c -1.247,-1.2071 -1.64,-2.90005 -1.026,-4.41684 0.587,-1.4543 1.913,-2.35625 3.46,-2.35625 0.783,0 1.6,0.22695 2.426,0.67226 l 0.668,0.35977 -0.137,-0.7461 0.001,0.00118 c 0.003,0 0.011,-0.11485 0.165,-0.27618 0.35,-0.36171 1.447,-0.96679 4.881,-0.96679 3.603,0 8.639,-0.10508 8.981,-0.11211 0.842,0.06719 3.169,0.47617 3.169,1.48008 V 6.60586 L 243.297,5.65 c 0.56,-0.80586 2.145,-1.41602 3.688,-1.41602 h 10e-4 c 0.939,0 2.285,0.21094 3.362,1.21094 0.723,0.67227 1.181,1.60625 1.408,2.75391 -0.017,2.64097 -0.644,4.76407 -1.822,6.14097" />
      <path
         inkscape:connector-curvature="0"
         id="path915"
         style="fill:#f1511b;fill-opacity:1;fill-rule:nonzero;stroke:none;stroke-width:0.1"
         d="m 274.955,20.2852 c -1.294,0.5957 -2.765,0.4949 -3.843,-0.259 l -0.418,0.5976 c 1.289,0.9032 3.036,1.0262 4.565,0.3231 1.335,-0.6137 2.204,-1.7188 2.325,-2.9571 l -0.726,-0.0699 c -0.095,0.9762 -0.807,1.8602 -1.903,2.3653 z m 10.516,-8.4832 -0.189,0.182 0.115,0.2371 c 0.713,1.4769 0.735,2.9379 0.064,4.0078 -0.558,0.8902 -1.541,1.4039 -2.623,1.3781 -0.162,-1.7789 -1.505,-2.7711 -2.492,-3.2539 2.112,-0.9609 2.196,-3.3949 2.162,-4.2031 l -0.73,-0.0309 c 0.043,1.0547 -0.128,3.411 -2.612,3.8321 l -1.74,0.2949 1.713,0.4187 c 0.117,0.0282 2.682,0.6821 2.973,2.8801 l -0.038,-0.0051 0.071,0.4711 c 0.243,1.5922 -0.225,3.2129 -1.283,4.4461 -0.961,1.118 -2.269,1.7602 -3.589,1.7602 l -0.612,-0.0223 0.08,0.4449 c 0.287,1.6313 -0.267,2.7063 -0.783,3.3223 -0.724,0.8629 -1.831,1.3777 -2.958,1.3777 -0.571,0 -1.106,-0.1378 -1.548,-0.3988 l -0.496,-0.2922 -0.052,0.5731 c -0.145,1.5871 -1.388,2.8793 -2.77,2.8793 -0.928,0 -1.774,-0.5903 -2.381,-1.659 l -0.36,-0.632 -0.291,0.666 c -0.977,2.2269 -2.657,3.4539 -4.732,3.4539 -2.316,0 -4.777,-1.5531 -5.723,-3.6121 -0.666,-1.4469 -0.459,-2.916 0.586,-4.1328 l 0.33,-0.384 -0.471,-0.1903 c -0.006,-0.0039 -1.503,-0.764 -1.503,-5.407 v -8.075 c 0.333,1.0492 0.81,1.9492 1.439,2.684 1.113,1.3019 2.656,2.0191 4.346,2.0191 l 0.168,-0.007 c 0.295,2.4398 1.666,3.3531 2.501,3.673 0.715,0.2711 1.509,0.3141 2.277,0.1719 1.651,2.3 0.61,3.968 0.075,4.584 -1.018,1.1699 -2.67,1.6133 -3.764,1.009 l -0.353,0.6391 c 1.383,0.764 3.432,0.25 4.668,-1.17 1.291,-1.4871 1.312,-3.4261 0.111,-5.2582 0.613,-0.2218 1.182,-0.5707 1.647,-1.0367 0.779,-0.782 1.127,-1.7672 1.008,-2.7961 1.663,0.941 3.437,1.05 4.978,0.277 1.793,-0.8989 2.951,-2.852 2.951,-4.9758 0,-2.36603 -1.803,-3.88829 -3.584,-4.1672 -0.206,-0.03281 -0.409,-0.04883 -0.605,-0.04883 -1.447,0 -2.622,0.85 -3.084,2.28163 l 0.695,0.2223 c 0.493,-1.53518 1.809,-1.89807 2.881,-1.73518 1.474,0.23125 2.968,1.49102 2.968,3.44728 0,1.8508 -1.001,3.5476 -2.549,4.325 -1.556,0.7777 -3.334,0.5219 -5.009,-0.7301 l -1.016,-0.757 0.457,1.1808 c 0.571,1.4731 -0.136,2.4879 -0.607,2.9629 -0.994,0.9973 -2.631,1.375 -3.885,0.8922 -1.139,-0.4351 -1.851,-1.5129 -2.045,-3.0531 2.419,-0.3547 4.266,-2.134 4.266,-4.275 h -0.731 c 0,1.993 -1.982,3.6152 -4.419,3.6152 -1.473,0 -2.819,-0.6269 -3.791,-1.7633 -1.19,-1.3929 -1.821,-3.5449 -1.825,-6.22496 0.746,-3.56796 3.762,-3.88086 4.774,-3.88086 1.543,0 3.129,0.61016 3.688,1.41602 l 0.664,0.95586 V 5.44102 c 0,-1.00391 2.327,-1.41289 3.169,-1.48008 0.342,0.00703 5.377,0.11211 8.981,0.11211 3.434,0 4.532,0.60508 4.881,0.96679 0.166,0.1711 0.164,0.29336 0.163,0.29805 l -0.136,0.74609 0.671,-0.38281 c 0.825,-0.44531 1.641,-0.67226 2.425,-0.67226 1.546,0 2.873,0.90195 3.461,2.35625 0.613,1.51679 0.22,3.20974 -1.028,4.41684" />
    </g>
  </g>
</svg>
