<?xml version="1.0" encoding="UTF-8" standalone="no"?>
<svg
   xmlns:dc="http://purl.org/dc/elements/1.1/"
   xmlns:cc="http://creativecommons.org/ns#"
   xmlns:rdf="http://www.w3.org/1999/02/22-rdf-syntax-ns#"
   xmlns:svg="http://www.w3.org/2000/svg"
   xmlns="http://www.w3.org/2000/svg"
   xmlns:sodipodi="http://sodipodi.sourceforge.net/DTD/sodipodi-0.dtd"
   xmlns:inkscape="http://www.inkscape.org/namespaces/inkscape"
   sodipodi:docname="g2495.svg"
   inkscape:version="1.0beta2 (2b71d25, 2019-12-03)"
   id="svg3155"
   version="1.1"
   viewBox="0 0 22.910492 20.865969"
   height="20.865969mm"
   width="22.910492mm">
  <defs
     id="defs3149" />
  <sodipodi:namedview
     inkscape:window-maximized="0"
     inkscape:window-y="25"
     inkscape:window-x="0"
     inkscape:window-height="847"
     inkscape:window-width="1440"
     showgrid="false"
     inkscape:document-rotation="0"
     inkscape:current-layer="layer1"
     inkscape:document-units="mm"
     inkscape:cy="-111.9968"
     inkscape:cx="-190.9903"
     inkscape:zoom="0.35"
     inkscape:pageshadow="2"
     inkscape:pageopacity="0.0"
     borderopacity="1.0"
     bordercolor="#666666"
     pagecolor="#ffffff"
     id="base" />
  <metadata
     id="metadata3152">
    <rdf:RDF>
      <cc:Work
         rdf:about="">
        <dc:format>image/svg+xml</dc:format>
        <dc:type
           rdf:resource="http://purl.org/dc/dcmitype/StillImage" />
        <dc:title></dc:title>
      </cc:Work>
    </rdf:RDF>
  </metadata>
  <g
     transform="translate(-156.36618,-177.79915)"
     id="layer1"
     inkscape:groupmode="layer"
     inkscape:label="Layer 1">
    <g
       transform="matrix(0.35277777,0,0,-0.35277777,40.734588,198.75373)"
       id="g2495">
      <path
         inkscape:connector-curvature="0"
         id="path1641"
         style="fill:#53c5c7;fill-opacity:1;fill-rule:nonzero;stroke:none;stroke-width:0.1"
         d="m 373.328,30.702 -0.682,0.4371 c 1.989,3.1089 1.983,6.1539 -0.015,8.1461 -1.682,1.6769 -4.279,2.0828 -6.039,0.9468 l -0.718,-0.4629 0.096,0.85 c 0.265,2.3129 -1.155,3.77 -2.678,4.1879 -1.224,0.3352 -2.948,0.075 -3.774,-1.7679 l -0.402,-0.8993 -0.346,0.9223 c -0.775,2.068 -2.407,3.009 -4.361,2.509 -1.689,-0.4289 -3.351,-2.027 -3.093,-3.8609 l 0.136,-0.9711 -0.782,0.591 c -1.212,0.9168 -2.945,0.9859 -4.309,0.1738 -1.322,-0.7879 -1.969,-2.1988 -1.729,-3.773 l -0.8,-0.1231 c -0.292,1.9121 0.499,3.6293 2.114,4.5922 1.408,0.8391 3.149,0.893 4.544,0.1922 0.158,1.9457 1.891,3.4988 3.718,3.9637 1.678,0.4261 3.786,0.0203 4.983,-2.2539 1.075,1.5429 2.866,1.8808 4.314,1.4871 1.633,-0.4481 3.259,-1.9692 3.306,-4.325 2.018,0.8789 4.645,0.3371 6.392,-1.4051 2.288,-2.2809 2.335,-5.7039 0.125,-9.157 z m 14.967,-1.093 -3.714,0.1461 3.621,0.841 c 3.356,0.7801 4.678,3.0449 4.5,4.9449 -0.169,1.7961 -1.724,3.6641 -4.818,3.7899 l -1.017,0.0421 0.655,0.779 c 0.967,1.1511 1.171,2.564 0.561,3.875 -0.719,1.541 -2.412,2.466 -3.708,1.9539 l -1.124,-0.4438 0.482,1.1078 c 0.53,1.2192 0.377,2.8141 -0.381,3.9699 -1.004,1.5293 -2.758,1.8071 -4.64,0.6672 l -0.782,-0.475 0.024,0.9149 c 0.067,2.5711 -0.565,4.5582 -1.88,5.9082 -1.112,1.141 -2.703,1.7687 -4.484,1.7687 -2.367,0 -4.627,-1.1379 -5.374,-2.7066 l -0.402,-0.8461 -0.479,0.8059 c -0.956,1.6089 -2.587,2.532 -4.476,2.532 -1.999,0 -4.279,-1.134 -4.867,-3.6719 l -0.202,-0.8691 -0.636,0.6261 c -1.244,1.225 -2.975,1.9 -4.873,1.9 -2.144,0 -4.101,-0.8851 -4.984,-2.2543 -0.643,-0.9976 -0.679,-2.1976 -0.103,-3.4718 l 1.193,-2.636 -2.009,2.0828 c -1.24,1.2872 -2.539,1.9672 -3.753,1.9672 -0.993,0 -1.895,-0.4558 -2.541,-1.2851 -0.753,-0.9649 -1.024,-2.2547 -0.724,-3.452 l 0.202,-0.809 -0.809,0.202 c -1.935,0.482 -4.065,-0.6488 -4.802,-2.4758 -0.564,-1.4 -0.193,-2.8699 1.018,-4.0359 l 0.746,-0.718 -1.026,-0.1383 c -3.849,-0.5168 -5.047,-3.2 -4.903,-5.3398 0.134,-2.0141 1.538,-4.0539 3.96,-4.0539 1.064,0 2.225,0.3816 3.45,1.1347 l 2.25,1.3832 -1.589,-2.1101 c -1.28,-1.7008 -1.626,-3.2629 -1,-4.5192 0.605,-1.2117 2.077,-1.9949 3.751,-1.9949 1.651,0 3.054,0.7582 3.847,2.0781 l 1.232,2.05 -0.308,-2.3742 c -0.003,-0.0136 -0.186,-1.5379 0.788,-2.6468 0.724,-0.8239 1.916,-1.2411 3.541,-1.2411 h 8.834 l -0.186,-0.6398 c -0.002,-0.0063 -0.24,-0.8949 0.278,-1.577 0.459,-0.6043 1.422,-0.9222 2.785,-0.9222 h 7.633 c 0.167,1.1031 0.868,2.148 1.884,2.7562 0.656,0.3918 1.937,0.8899 3.647,0.2778 -0.277,1.257 -0.083,2.4961 0.572,3.5632 0.727,1.184 1.955,1.993 3.204,2.109 l 0.076,-0.807 c -1.001,-0.093 -1.993,-0.7551 -2.59,-1.7262 -0.671,-1.0929 -0.755,-2.4148 -0.237,-3.7219 l 0.407,-1.03 -0.975,0.5242 c -1.319,0.7058 -2.627,0.7488 -3.688,0.1148 -0.772,-0.4621 -1.294,-1.2371 -1.455,-2.0601 h 0.069 l -0.049,-0.5449 c -0.086,-0.945 0.209,-1.8418 0.834,-2.5258 1.234,-1.3512 3.541,-1.5723 5.387,-0.4141 l 0.845,0.5309 -0.081,-0.995 c -0.123,-1.507 0.238,-2.7679 1.046,-3.6429 0.737,-0.8012 1.837,-1.259 3.015,-1.259 1.193,0 2.285,0.4711 2.923,1.259 0.583,0.7211 0.768,1.6781 0.535,2.7687 l -0.226,1.0614 0.954,-0.5172 c 1.124,-0.611 2.207,-0.9192 3.219,-0.9192 1.861,0 3.432,1.0871 4.204,2.9082 0.888,2.0961 0.469,4.477 -1.07,6.0649 l -0.717,0.741 1.027,0.1043 c 1.51,0.1527 2.482,1.6308 2.442,2.9148 -0.048,1.5981 -1.529,2.6071 -3.959,2.702" />
      <path
         inkscape:connector-curvature="0"
         id="path1643"
         style="fill:#2d2c2c;fill-opacity:1;fill-rule:nonzero;stroke:none;stroke-width:0.1"
         d="m 367.047,42.118 c -0.82,0 -1.486,0.9101 -1.486,2.0308 0,1.1242 0.666,2.0352 1.486,2.0352 0.821,0 1.486,-0.911 1.486,-2.0352 0,-1.1207 -0.665,-2.0308 -1.486,-2.0308 z m -6.343,0 c -0.823,0 -1.489,0.9101 -1.489,2.0308 0,1.1242 0.666,2.0352 1.489,2.0352 0.818,0 1.486,-0.911 1.486,-2.0352 0,-1.1207 -0.668,-2.0308 -1.486,-2.0308 z m 3.171,10.9558 c -3.722,0 -6.742,-2.6277 -6.742,-7.3359 0,-4.7098 3.02,-9.716 6.742,-9.716 3.721,0 6.743,5.0062 6.743,9.716 0,4.7082 -3.022,7.3359 -6.743,7.3359" />
      <path
         inkscape:connector-curvature="0"
         id="path1645"
         style="fill:#2d2c2c;fill-opacity:1;fill-rule:nonzero;stroke:none;stroke-width:0.1"
         d="m 357.999,37.8809 c -0.684,0.3953 -1.561,0.1589 -1.956,-0.525 -0.27,-0.4719 -0.224,-1.025 0.04,-1.4571 -0.506,0.0141 -1.012,-0.2269 -1.282,-0.6988 -0.398,-0.682 -0.161,-1.5578 0.524,-1.9531 0.683,-0.3957 1.556,-0.1617 1.955,0.5211 0.06,0.105 0.074,0.2109 0.107,0.3218 l 6.434,-3.7136 0.929,1.6078 -6.429,3.7121 0.203,0.2289 c 0.395,0.6871 0.16,1.5602 -0.525,1.9559" />
      <path
         inkscape:connector-curvature="0"
         id="path1647"
         style="fill:#2d2c2c;fill-opacity:1;fill-rule:nonzero;stroke:none;stroke-width:0.1"
         d="m 372.95,27.5969 c -0.274,-0.4707 -0.774,-0.711 -1.283,-0.6957 0.265,-0.4313 0.31,-0.9883 0.039,-1.4614 -0.396,-0.6828 -1.27,-0.9187 -1.957,-0.5207 -0.682,0.393 -0.917,1.27 -0.522,1.9528 0.057,0.1031 0.145,0.1722 0.223,0.2543 l -6.435,3.7168 0.929,1.607 6.43,-3.7121 c 0.031,0.1 0.043,0.198 0.097,0.2902 0.395,0.6867 1.271,0.9199 1.954,0.525 0.685,-0.3941 0.919,-1.2722 0.525,-1.9562" />
      <path
         inkscape:connector-curvature="0"
         id="path1649"
         style="fill:#2d2c2c;fill-opacity:1;fill-rule:nonzero;stroke:none;stroke-width:0.1"
         d="m 356.043,25.4398 c -0.272,0.4711 -0.226,1.0262 0.04,1.459 -0.506,-0.0148 -1.012,0.2274 -1.282,0.6961 -0.398,0.6852 -0.161,1.5621 0.524,1.9551 0.683,0.398 1.556,0.1621 1.955,-0.5219 0.057,-0.1011 0.074,-0.2133 0.105,-0.3222 l 6.436,3.7171 0.929,-1.6101 -6.429,-3.7109 c 0.07,-0.079 0.151,-0.1391 0.203,-0.2301 0.393,-0.686 0.16,-1.5598 -0.524,-1.9547 -0.685,-0.3961 -1.562,-0.1621 -1.957,0.5226" />
      <path
         inkscape:connector-curvature="0"
         id="path1651"
         style="fill:#2d2c2c;fill-opacity:1;fill-rule:nonzero;stroke:none;stroke-width:0.1"
         d="m 372.95,35.2 c -0.272,0.4719 -0.774,0.7102 -1.285,0.6949 0.267,0.434 0.312,0.9891 0.041,1.461 -0.397,0.6839 -1.272,0.9179 -1.957,0.523 -0.682,-0.3937 -0.918,-1.2711 -0.524,-1.9539 0.059,-0.1039 0.147,-0.173 0.224,-0.2531 l -6.434,-3.7149 0.929,-1.6121 6.43,3.7141 c 0.029,-0.0969 0.043,-0.1988 0.097,-0.291 0.395,-0.6828 1.271,-0.92 1.954,-0.525 0.685,0.398 0.919,1.2718 0.525,1.957" />
      <path
         inkscape:connector-curvature="0"
         id="path1653"
         style="fill:#2d778f;fill-opacity:1;fill-rule:nonzero;stroke:none;stroke-width:0.1"
         d="m 375.212,11.102 c -0.832,0.9031 -1.285,2.107 -1.33,3.516 -2.079,-0.9321 -4.494,-0.4969 -5.869,1.009 -0.694,0.7601 -1.079,1.7191 -1.109,2.7449 h -1.357 l 8.568,-18.120728 h 7.057 l -4.681,9.902728 c -0.475,0.2531 -0.917,0.557 -1.279,0.9481" />
    </g>
  </g>
</svg>
